<svg width="421" height="260" viewBox="0 0 421 260" fill="none" xmlns="http://www.w3.org/2000/svg">
<path d="M41.2414 259.579C31.1775 252.432 -6.25609 223.785 1.92318 198.319C7.50738 180.933 29.5228 179.112 34.093 160.739C40.2951 135.81 3.65954 123.476 11.2169 103.082C17.0917 87.2324 40.9489 90.0183 69.1216 70.1364C110.388 41.0146 93.735 10.6647 122.023 1.66909C149.689 -7.12977 168.211 21.0741 239.98 34.6151C299.679 45.879 330.867 34.6668 345.066 50.5745C361.916 69.4479 325.609 93.758 344.352 115.437C361.096 134.806 403.443 130.859 406.546 145.294C409.099 157.157 381.552 164.708 385.1 177.211C388.194 188.116 410.73 187.936 417.984 198.318C429.033 214.117 397.188 243.642 372.233 259.578H41.2424L41.2414 259.579Z" fill="#EBF2FF"/>
<path d="M343.728 160.741C343.523 160.741 343.33 160.623 343.247 160.421C342.093 157.62 342.8 146.917 343.617 134.525C344.645 118.897 345.928 99.4489 343.022 96.3471C342.614 95.9089 342.144 95.8742 341.695 96.3679C337.394 101.085 339.824 140.169 341.706 160.177C341.735 160.461 341.527 160.712 341.24 160.741C340.965 160.757 340.703 160.557 340.674 160.274C340.452 157.892 335.247 101.901 340.929 95.6695C341.771 94.7455 342.965 94.7693 343.779 95.6377C346.994 99.0694 345.804 117.128 344.653 134.594C343.879 146.346 343.144 157.448 344.206 160.027C344.317 160.292 344.192 160.594 343.927 160.702C343.862 160.73 343.794 160.741 343.73 160.741H343.728Z" fill="#4ED066"/>
<path d="M345.33 160.741L345.279 160.739C344.993 160.71 344.785 160.458 344.814 160.174C344.828 160.04 346.201 146.628 350.477 133.013C356.269 114.592 364.327 104.585 374.439 103.266C378.425 102.749 380.751 103.256 381.554 104.817C383.453 108.503 375.78 116.705 367.654 125.389C361.961 131.471 354.879 139.04 356.241 140.741C356.556 141.133 356.887 141.316 357.273 141.316C358.972 141.316 361.596 138.041 364.131 134.871C368.106 129.904 372.213 124.764 375.833 127.168C376.443 127.576 376.79 128.201 376.837 128.978C377.289 136.202 350.23 159.622 349.075 160.617C348.861 160.801 348.534 160.779 348.348 160.561C348.158 160.346 348.18 160.018 348.398 159.832C356.14 153.158 376.149 134.616 375.801 129.043C375.773 128.58 375.6 128.26 375.256 128.03C372.432 126.152 368.45 131.128 364.939 135.519C362.004 139.184 359.474 142.35 357.277 142.35H357.273C356.563 142.35 355.943 142.027 355.43 141.386C353.602 139.102 358.595 133.55 366.894 124.681C373.711 117.397 382.196 108.33 380.632 105.289C380.07 104.194 377.974 103.851 374.576 104.295C351.398 107.311 345.899 159.746 345.846 160.275C345.821 160.544 345.595 160.74 345.329 160.74L345.33 160.741Z" fill="#4ED066"/>
<path d="M339.279 161.225C339.004 161.225 338.778 161.013 338.76 160.739C336.1 117.843 328.694 110.77 327.235 109.789C326.888 109.553 326.375 109.303 325.924 109.452C325.834 109.481 325.702 109.55 325.587 109.799C324.806 111.538 326.559 117.076 328.064 121.08C328.587 122.222 329.02 123.311 329.362 124.33C329.451 124.595 329.315 124.881 329.053 124.979C328.795 125.073 328.501 124.955 328.393 124.7C328.236 124.331 327.713 123.097 327.096 121.464C322.096 110.58 309.22 94.5035 303.622 92.7569C302.995 92.5601 302.521 92.576 302.213 92.8045C301.607 93.2586 301.284 93.7842 301.227 94.4111C301.001 96.8999 304.721 100.924 309.436 106.02C310.787 107.479 312.228 109.034 313.698 110.687C321.107 119.012 331.59 140.821 334.024 145.989C334.2 146.33 334.366 146.693 334.533 147.076C334.644 147.335 334.526 147.637 334.267 147.754C334.009 147.869 333.705 147.757 333.587 147.498C333.569 147.467 333.389 147.074 333.063 146.391C331.461 143.27 329.518 141.993 328.106 141.478C326.367 140.843 324.801 141.087 323.916 141.529C323.701 142.479 328.618 147.767 333.368 152.075C333.576 152.263 333.593 152.581 333.41 152.794C333.227 153.01 332.909 153.036 332.694 152.865C327.582 148.78 323.723 148.532 321.969 149.563C321.381 149.907 321.066 150.395 321.141 150.836C321.227 151.35 321.826 151.768 322.747 151.951C328.02 153.004 335.052 159.57 335.35 159.848C335.558 160.045 335.569 160.374 335.372 160.58C335.175 160.79 334.848 160.798 334.64 160.604C334.569 160.537 327.526 153.962 322.546 152.968C321.166 152.692 320.282 151.978 320.12 151.01C319.969 150.133 320.478 149.238 321.443 148.671C322.948 147.788 325.497 147.641 328.797 149.169C325.901 146.287 322.726 142.764 322.923 141.343C322.969 141.012 323.155 140.753 323.45 140.603C324.529 140.068 326.414 139.755 328.464 140.506C329.188 140.771 330.041 141.212 330.916 141.939C326.804 133.552 318.771 117.95 312.921 111.377C311.456 109.728 310.018 108.18 308.674 106.725C303.595 101.233 299.924 97.2666 300.193 94.3207C300.279 93.3967 300.745 92.6088 301.591 91.9759C302.175 91.5378 302.964 91.4692 303.931 91.7683C308.931 93.3281 319.026 105.121 325.133 115.519C324.455 112.976 324.093 110.586 324.638 109.376C324.846 108.924 325.172 108.609 325.592 108.47C326.061 108.315 326.828 108.267 327.814 108.932C329.962 110.378 337.17 118.385 339.794 160.676C339.812 160.962 339.593 161.208 339.306 161.224L339.277 161.227L339.279 161.225Z" fill="#4ED066"/>
<path d="M364.654 237.381C364.654 249.68 354.671 259.648 342.354 259.648C330.034 259.648 320.052 249.68 320.052 237.381L329.39 160.225H354.28L359.789 201.202V201.204L364.653 237.381H364.654Z" fill="#5777FA"/>
<path d="M351.688 166.438H333.017C332.731 166.438 332.501 166.208 332.501 165.921C332.501 165.635 332.73 165.404 333.017 165.404H351.688C351.975 165.404 352.205 165.635 352.205 165.921C352.205 166.208 351.976 166.438 351.688 166.438Z" fill="#435BDB"/>
<path d="M364.654 237.38C364.654 249.679 354.671 259.648 342.354 259.648C330.034 259.648 320.052 249.679 320.052 237.38C320.052 237.38 329.425 255.321 342.354 255.321C350.678 255.321 355.653 247.878 358.137 242.582C359.463 239.761 360.119 236.676 360.091 233.56L359.789 201.202V201.204L364.653 237.38H364.654Z" fill="#435BDB"/>
<path d="M107.546 136.219V234.14H279.223V149.219C279.223 143.236 274.365 138.385 268.372 138.385H231.273C228.673 138.385 226.175 137.372 224.311 135.563L216.736 128.207C214.872 126.398 212.374 125.386 209.774 125.386H118.397C112.404 125.386 107.546 130.237 107.546 136.22V136.219Z" fill="#FC9E00"/>
<path d="M292.748 161.808L280.953 251.051C280.301 255.97 276.1 259.648 271.128 259.648H116.595C111.723 259.648 107.575 256.114 106.809 251.31L94.6494 175.064C93.7141 169.2 98.2515 163.891 104.198 163.891H155.516C158.483 163.891 161.332 162.736 163.459 160.673L170.215 154.112C172.342 152.046 175.191 150.891 178.158 150.891H283.163C289.005 150.891 293.512 156.026 292.747 161.807L292.748 161.808Z" fill="#FFC200"/>
</svg>
