<svg width="394" height="355" viewBox="0 0 394 355" fill="none" xmlns="http://www.w3.org/2000/svg">
<path opacity="0.3" d="M197 355C305.731 355 393.875 329.771 393.875 298.649C393.875 267.527 305.731 242.298 197 242.298C88.269 242.298 0.125 267.527 0.125 298.649C0.125 329.771 88.269 355 197 355Z" fill="#C8DBFF"/>
<path d="M197.014 132.512V316.448L54.3774 274.546V90.6388L197.014 132.512Z" fill="#EFD4A3"/>
<path d="M339.623 90.6388V274.546L197.014 316.448V132.512L339.623 90.6388Z" fill="#EFDAB6"/>
<path d="M339.622 90.6387L197.014 132.512L126.214 111.725L104.362 105.307L54.3774 90.6387L197.014 48.7655L339.622 90.6387Z" fill="#FFEBCC"/>
<path d="M270.849 70.4425L127.667 112.151L127.586 112.18C123.025 111.224 111.496 109.83 105.734 105.761L105.815 105.733L248.969 64.0247L270.849 70.4439V70.4425Z" fill="#FF3232"/>
<path d="M127.581 112.135V296.071L126.134 295.634L105.729 289.652V105.717L127.581 112.135Z" fill="#FF3232"/>
<path d="M107.068 38.179C101.492 38.179 96.9895 42.6817 96.9895 48.2561C96.9895 53.8304 101.492 58.3332 107.068 58.3332C112.644 58.3332 117.144 53.8196 117.144 48.2561C117.144 42.6925 112.632 38.179 107.068 38.179ZM107.068 54.5979C103.566 54.5979 100.726 51.7577 100.726 48.2574C100.726 44.7571 103.566 41.9156 107.068 41.9156C110.57 41.9156 113.407 44.7558 113.407 48.2574C113.407 51.7591 110.568 54.5979 107.068 54.5979Z" fill="#C8DBFF"/>
<path d="M376.112 173.123C370.773 173.123 366.464 177.433 366.464 182.771C366.464 188.109 370.775 192.419 376.112 192.419C381.448 192.419 385.758 188.097 385.758 182.771C385.758 177.445 381.439 173.123 376.112 173.123ZM376.112 187.831C373.318 187.831 371.051 185.564 371.051 182.77C371.051 179.976 373.318 177.709 376.112 177.709C378.906 177.709 381.171 179.976 381.171 182.77C381.171 185.564 378.906 187.831 376.112 187.831Z" fill="#C8DBFF"/>
<path d="M349.296 46.1738C342.451 46.1738 336.922 51.702 336.922 58.5464C336.922 65.3908 342.451 70.919 349.296 70.919C356.142 70.919 361.666 65.3772 361.666 58.5464C361.666 51.7156 356.127 46.1738 349.296 46.1738ZM349.296 66.3321C344.997 66.3321 341.509 62.8454 341.509 58.5464C341.509 54.2475 344.997 50.7608 349.296 50.7608C353.595 50.7608 357.081 54.2488 357.081 58.5464C357.081 62.844 353.595 66.3321 349.296 66.3321Z" fill="#C8DBFF"/>
<path d="M48.0725 288.842C41.2267 288.842 35.6985 294.37 35.6985 301.215C35.6985 308.059 41.2267 313.587 48.0725 313.587C54.9182 313.587 60.4437 308.045 60.4437 301.215C60.4437 294.384 54.9046 288.842 48.0725 288.842ZM48.0725 308.999C43.7735 308.999 40.2854 305.511 40.2854 301.213C40.2854 296.916 43.7735 293.428 48.0725 293.428C52.3714 293.428 55.8554 296.916 55.8554 301.213C55.8554 305.511 52.3714 308.999 48.0725 308.999Z" fill="white"/>
<path d="M212.576 8.21665L214.51 13.1363C215.226 14.9578 216.667 16.399 218.488 17.1148L223.408 19.0476C224.332 19.4103 224.332 20.7183 223.408 21.0809L218.488 23.0151C216.667 23.731 215.226 25.1721 214.51 26.9936L212.576 31.9133C212.213 32.8369 210.905 32.8369 210.542 31.9133L208.609 26.9936C207.894 25.1721 206.452 23.731 204.631 23.0151L199.711 21.0809C198.788 20.7183 198.788 19.4103 199.711 19.0476L204.631 17.1148C206.452 16.399 207.894 14.9578 208.609 13.1363L210.542 8.21665C210.905 7.29302 212.213 7.29302 212.576 8.21665Z" fill="#C8DBFF"/>
<path d="M35.1062 158.653L36.7633 162.872C37.3773 164.434 38.6133 165.67 40.174 166.283L44.3928 167.94C45.1847 168.251 45.1847 169.372 44.3928 169.684L40.174 171.342C38.612 171.956 37.3759 173.192 36.7633 174.753L35.1062 178.972C34.7952 179.764 33.6732 179.764 33.3622 178.972L31.7051 174.753C31.0911 173.191 29.8551 171.955 28.2944 171.342L24.0756 169.684C23.2837 169.373 23.2837 168.252 24.0756 167.94L28.2944 166.283C29.8564 165.669 31.0925 164.433 31.7051 162.871L33.3622 158.652C33.6732 157.86 34.7952 157.86 35.1062 158.652V158.653Z" fill="#C8DBFF"/>
<path d="M380.26 213.103L381.835 217.111C382.418 218.594 383.593 219.769 385.076 220.352L389.083 221.926C389.835 222.222 389.835 223.287 389.083 223.582L385.076 225.158C383.593 225.74 382.418 226.915 381.835 228.399L380.26 232.405C379.963 233.158 378.899 233.158 378.604 232.405L377.03 228.399C376.447 226.915 375.272 225.74 373.789 225.158L369.78 223.582C369.028 223.286 369.028 222.221 369.78 221.926L373.787 220.352C375.271 219.769 376.446 218.594 377.028 217.111L378.602 213.103C378.899 212.35 379.963 212.35 380.258 213.103H380.26Z" fill="#C8DBFF"/>
<path d="M44.4526 49.2124L46.0268 53.2194C46.6095 54.7026 47.7844 55.8775 49.2677 56.4602L53.2746 58.0345C54.0271 58.3306 54.0271 59.3955 53.2746 59.6902L49.2677 61.2645C47.7844 61.8472 46.6095 63.0221 46.0268 64.5053L44.4526 68.5123C44.1565 69.2648 43.0916 69.2648 42.7968 68.5123L41.2226 64.5053C40.6399 63.0221 39.4649 61.8472 37.9817 61.2645L33.9748 59.6902C33.2223 59.3941 33.2223 58.3292 33.9748 58.0345L37.9817 56.4602C39.4649 55.8775 40.6399 54.7026 41.2226 53.2194L42.7968 49.2124C43.0929 48.4599 44.1578 48.4599 44.4526 49.2124Z" fill="#C8DBFF"/>
<path d="M227.969 315.737L229.543 319.746C230.126 321.229 231.301 322.404 232.784 322.986L236.792 324.561C237.545 324.857 237.545 325.922 236.792 326.217L232.784 327.791C231.301 328.373 230.126 329.548 229.543 331.032L227.969 335.039C227.673 335.791 226.608 335.791 226.313 335.039L224.739 331.032C224.156 329.548 222.981 328.373 221.498 327.791L217.49 326.217C216.737 325.92 216.737 324.855 217.49 324.561L221.497 322.986C222.98 322.404 224.155 321.229 224.737 319.746L226.312 315.739C226.608 314.986 227.673 314.986 227.967 315.739L227.969 315.737Z" fill="white"/>
<path d="M24.5781 105.717C24.5781 108.586 22.2527 110.911 19.384 110.911C16.5153 110.911 14.1899 108.586 14.1899 105.717C14.1899 102.848 16.5153 100.523 19.384 100.523C22.2527 100.523 24.5781 102.848 24.5781 105.717Z" fill="#C8DBFF"/>
<path d="M389.181 123.884C389.181 126.903 386.733 129.351 383.714 129.351C380.694 129.351 378.247 126.903 378.247 123.884C378.247 120.864 380.694 118.417 383.714 118.417C386.733 118.417 389.181 120.864 389.181 123.884Z" fill="#C8DBFF"/>
<path d="M152.421 9.4479C154.16 7.70857 154.16 4.8886 152.421 3.14928C150.682 1.40996 147.862 1.40994 146.122 3.14926C144.383 4.88858 144.383 7.70859 146.122 9.44791C147.862 11.1872 150.682 11.1872 152.421 9.4479Z" fill="#C8DBFF"/>
<path d="M283.202 28.0747C283.202 30.199 281.48 31.9213 279.355 31.9213C277.231 31.9213 275.509 30.199 275.509 28.0747C275.509 25.9503 277.231 24.228 279.355 24.228C281.48 24.228 283.202 25.9503 283.202 28.0747Z" fill="#C8DBFF"/>
<path d="M289.817 31.885C291.941 31.8423 293.628 30.0859 293.586 27.9619C293.543 25.8378 291.787 24.1505 289.663 24.1932C287.538 24.2358 285.851 25.9922 285.894 28.1163C285.936 30.2403 287.693 31.9276 289.817 31.885Z" fill="#C8DBFF"/>
<path d="M303.941 28.0747C303.941 30.199 302.218 31.9213 300.094 31.9213C297.97 31.9213 296.247 30.199 296.247 28.0747C296.247 25.9503 297.97 24.228 300.094 24.228C302.218 24.228 303.941 25.9503 303.941 28.0747Z" fill="#C8DBFF"/>
<path d="M3.77877 243.213C5.7967 243.213 7.43256 241.577 7.43256 239.559C7.43256 237.542 5.7967 235.906 3.77877 235.906C1.76084 235.906 0.125 237.542 0.125 239.559C0.125 241.577 1.76084 243.213 3.77877 243.213Z" fill="#C8DBFF"/>
<path d="M13.6306 243.213C15.6485 243.213 17.2844 241.577 17.2844 239.559C17.2844 237.541 15.6485 235.906 13.6306 235.906C11.6127 235.906 9.97681 237.541 9.97681 239.559C9.97681 241.577 11.6127 243.213 13.6306 243.213Z" fill="#C8DBFF"/>
<path d="M23.4807 243.213C25.4986 243.213 27.1345 241.577 27.1345 239.559C27.1345 237.541 25.4986 235.906 23.4807 235.906C21.4628 235.906 19.8269 237.541 19.8269 239.559C19.8269 241.577 21.4628 243.213 23.4807 243.213Z" fill="#C8DBFF"/>
<path d="M276.68 329.236C276.68 331.36 274.957 333.083 272.833 333.083C270.709 333.083 268.986 331.36 268.986 329.236C268.986 327.112 270.709 325.389 272.833 325.389C274.957 325.389 276.68 327.112 276.68 329.236Z" fill="white"/>
<path d="M283.202 333.083C285.327 333.083 287.049 331.361 287.049 329.236C287.049 327.112 285.327 325.389 283.202 325.389C281.078 325.389 279.355 327.112 279.355 329.236C279.355 331.361 281.078 333.083 283.202 333.083Z" fill="white"/>
<path d="M297.418 329.236C297.418 331.36 295.696 333.083 293.571 333.083C291.447 333.083 289.725 331.36 289.725 329.236C289.725 327.112 291.447 325.389 293.571 325.389C295.696 325.389 297.418 327.112 297.418 329.236Z" fill="white"/>
<path d="M99.6601 299.156C99.6601 302.024 97.3347 304.35 94.466 304.35C91.5974 304.35 89.272 302.024 89.272 299.156C89.272 296.287 91.5974 293.961 94.466 293.961C97.3347 293.961 99.6601 296.287 99.6601 299.156Z" fill="white"/>
<path d="M296.616 312.035C335.019 312.035 366.15 280.904 366.15 242.502C366.15 204.099 335.019 172.968 296.616 172.968C258.214 172.968 227.083 204.099 227.083 242.502C227.083 280.904 258.214 312.035 296.616 312.035Z" fill="#FF3232"/>
<path d="M333.246 217.697L321.421 205.872L259.988 267.304L271.814 279.129L333.246 217.697Z" fill="white"/>
<path d="M321.421 279.13L333.246 267.305L271.814 205.872L259.989 217.697L321.421 279.13Z" fill="white"/>
</svg>
