<svg width="252" height="200" viewBox="0 0 252 200" fill="none" xmlns="http://www.w3.org/2000/svg">
<path d="M125.771 200C195.102 200 251.307 195.067 251.307 188.983C251.307 182.898 195.102 177.966 125.771 177.966C56.4392 177.966 0.234863 182.898 0.234863 188.983C0.234863 195.067 56.4392 200 125.771 200Z" fill="#EDF0FC"/>
<path d="M213.417 183.977C213.417 183.977 194.762 146.111 251.666 129.604C251.666 129.604 255.631 186.986 213.417 183.977Z" fill="#EB725F"/>
<mask id="mask0_5994_222783" style="mask-type:luminance" maskUnits="userSpaceOnUse" x="210" y="129" width="42" height="56">
<path d="M213.417 183.977C213.417 183.977 194.762 146.111 251.666 129.604C251.666 129.604 255.631 186.986 213.417 183.977Z" fill="white"/>
</mask>
<g mask="url(#mask0_5994_222783)">
<path d="M259.298 138.419L258.975 137.875C247.724 144.574 237.485 146.918 234.464 147.51C237.282 144.185 240.063 141.134 242.575 138.491C243.705 138.282 251.457 136.673 259.328 130.805L258.945 130.297C252.318 135.231 245.799 137.103 243.352 137.677C248.819 131.995 252.856 128.395 252.976 128.287L252.551 127.815C252.432 127.922 248.305 131.601 242.742 137.396C243.281 130.183 246.821 123.12 246.857 123.048L246.289 122.761C246.247 122.838 242.401 130.512 242.06 138.108C239.536 140.758 236.755 143.82 233.932 147.157C234.136 137.719 238.179 126.66 238.221 126.547L237.622 126.325C237.581 126.445 233.274 138.216 233.286 147.929C230.565 151.183 227.826 154.688 225.266 158.33C224.769 144.735 228.788 130.71 228.83 130.566L228.22 130.393C228.178 130.542 223.962 145.237 224.668 159.197C222.772 161.937 220.989 164.754 219.398 167.589C216.581 152.971 220.212 139.705 220.248 139.567L219.632 139.394C219.59 139.532 215.792 153.396 218.914 168.456C217.359 171.315 216.007 174.198 214.948 177.045C211.348 166.823 210.648 152.181 210.804 151.332L210.175 151.219C210.008 152.134 210.654 167.409 214.607 177.978C213.639 180.741 212.957 183.474 212.634 186.13L213.268 186.208C213.573 183.642 214.231 181.004 215.152 178.331C215.893 178.486 218.035 178.851 221.725 178.851C222.018 178.851 222.317 178.851 222.628 178.845C227.389 178.773 235.421 178.043 246.648 175.011L246.48 174.401C227.329 179.575 217.281 178.103 215.361 177.726C216.426 174.766 217.819 171.769 219.434 168.797C219.949 168.845 221.282 168.952 223.226 168.952C229.351 168.952 241.379 167.87 251.845 160.417L251.475 159.903C238.352 169.245 222.724 168.438 219.769 168.187C221.396 165.256 223.232 162.343 225.194 159.508C227.156 159.311 244.638 157.307 256.283 148.228L255.895 147.726C245.111 156.129 229.225 158.402 225.678 158.814C228.268 155.118 231.049 151.559 233.813 148.264C235.314 148.013 246.684 145.919 259.292 138.413L259.298 138.419Z" fill="#F9AB43"/>
</g>
<path opacity="0.1" d="M251.666 129.604C248.298 130.578 245.206 131.631 242.347 132.75C243.579 136.434 244.255 140.417 244.255 144.58C244.255 163.474 230.367 178.786 213.244 178.786C212.699 178.786 212.155 178.768 211.617 178.738C212.442 181.991 213.417 183.977 213.417 183.977C255.631 186.986 251.666 129.604 251.666 129.604Z" fill="#0046A0"/>
<path d="M44.2252 179.976C44.2252 179.976 11.174 187.859 8.28516 140.357C8.28516 140.357 54.064 147.451 44.2252 179.976Z" fill="#F9AB43"/>
<mask id="mask1_5994_222783" style="mask-type:luminance" maskUnits="userSpaceOnUse" x="8" y="140" width="38" height="41">
<path d="M44.2252 179.976C44.2252 179.976 11.174 187.859 8.28516 140.357C8.28516 140.357 54.064 147.451 44.2252 179.976Z" fill="white"/>
</mask>
<g mask="url(#mask1_5994_222783)">
<path d="M16.5632 135.949L16.0787 136.104C19.3444 146.105 19.3803 154.544 19.3025 157.014C17.1852 154.215 15.2833 151.5 13.6564 149.059C13.6923 148.138 13.8 141.78 10.5882 134.573L10.1216 134.783C12.8251 140.847 13.1421 146.284 13.154 148.306C9.6611 143.018 7.54381 139.215 7.484 139.101L7.03542 139.346C7.10121 139.46 9.25438 143.347 12.8251 148.73C7.25672 147.032 2.33433 143.001 2.2805 142.959L1.95752 143.353C2.01135 143.395 7.3584 147.773 13.2677 149.394C14.9065 151.84 16.8144 154.562 18.9377 157.367C11.5571 155.531 3.58436 150.399 3.50661 150.345L3.2255 150.776C3.30923 150.83 11.7963 156.296 19.4281 158.007C21.5035 160.716 23.7704 163.486 26.1747 166.135C15.4029 164.108 5.09756 158.473 4.99588 158.414L4.75066 158.862C4.85832 158.922 15.6601 164.837 26.7489 166.763C28.5672 168.731 30.4631 170.633 32.413 172.379C20.4329 171.991 10.6539 166.787 10.5523 166.733L10.307 167.182C10.4087 167.236 20.6243 172.672 33.0111 172.906C34.9848 174.634 37.0064 176.201 39.0579 177.541C30.3914 178.546 18.7642 176.494 18.1302 176.219L17.9269 176.692C18.6147 176.985 30.7323 179.192 39.7337 177.972C41.7374 179.222 43.759 180.244 45.7925 180.962L45.966 180.484C44.0042 179.79 42.0484 178.803 40.1165 177.607C40.3677 177.051 41.0376 175.442 41.6895 172.553C41.7434 172.326 41.7912 172.086 41.8451 171.841C42.6286 168.097 43.4839 161.679 43.0891 152.343L42.5807 152.367C43.2566 168.282 40.3139 175.896 39.6799 177.332C37.5447 175.974 35.4394 174.347 33.3879 172.553C33.5194 172.158 33.8424 171.135 34.1833 169.61C35.2659 164.813 36.5459 155.202 32.5505 145.68L32.078 145.877C37.0901 157.816 33.6869 169.915 32.9692 172.182C30.9536 170.388 28.9918 168.432 27.1138 166.392C27.3052 164.819 28.8303 150.77 23.7584 140.034L23.2979 140.249C27.993 150.19 26.9583 163.031 26.6532 165.884C24.207 163.198 21.9103 160.387 19.8049 157.636C19.8707 156.416 20.2415 147.139 16.5812 135.931L16.5632 135.949Z" fill="#EB725F"/>
</g>
<path opacity="0.1" d="M8.29102 140.357C8.46447 143.169 8.73959 145.776 9.11042 148.211C12.2265 147.9 15.4742 148.079 18.7399 148.821C33.5788 152.176 43.1545 165.771 40.1161 179.186C40.0204 179.611 39.9128 180.036 39.7931 180.454C42.4966 180.389 44.2311 179.976 44.2311 179.976C54.0699 147.451 8.29102 140.357 8.29102 140.357Z" fill="#0046A0"/>
<path d="M215.379 46.1318H36.1628C33.5202 46.1318 31.3779 48.2741 31.3779 50.9167V158.91C31.3779 161.553 33.5202 163.695 36.1628 163.695H215.379C218.021 163.695 220.163 161.553 220.163 158.91V50.9167C220.163 48.2741 218.021 46.1318 215.379 46.1318Z" fill="#6E7FDD"/>
<path d="M214.84 51.8975H36.707V157.929H214.84V51.8975Z" fill="#D0DBF7"/>
<path d="M155.078 163.695H96.4634V178.373H155.078V163.695Z" fill="#8397ED"/>
<path d="M183.134 186.8C172.416 178.146 150.753 172.23 125.77 172.23C100.788 172.23 79.1302 178.146 68.4062 186.8H183.129H183.134Z" fill="#6E7FDD"/>
<path d="M68.4127 188.296H178.458C179.953 188.296 181.448 188.331 182.944 188.296C183.009 188.296 183.075 188.296 183.135 188.296C185.061 188.296 185.061 185.305 183.135 185.305H73.0898C71.5946 185.305 70.0993 185.269 68.6041 185.305C68.5383 185.305 68.4725 185.305 68.4127 185.305C66.4868 185.305 66.4868 188.296 68.4127 188.296Z" fill="#8397ED"/>
<path d="M205.109 59.2725H46.4385V151.01H205.109V59.2725Z" fill="white"/>
<path d="M205.109 59.2725H46.4385V68.1124H205.109V59.2725Z" fill="#E2E6FF"/>
<path d="M54.1477 63.8956C54.1477 65.0141 53.2445 65.9172 52.1261 65.9172C51.0076 65.9172 50.1045 65.0141 50.1045 63.8956C50.1045 62.7772 51.0076 61.874 52.1261 61.874C53.2445 61.874 54.1477 62.7772 54.1477 63.8956Z" fill="#EB725F"/>
<path d="M60.9602 63.8956C60.9602 65.0141 60.057 65.9172 58.9386 65.9172C57.8201 65.9172 56.917 65.0141 56.917 63.8956C56.917 62.7772 57.8201 61.874 58.9386 61.874C60.057 61.874 60.9602 62.7772 60.9602 63.8956Z" fill="#F9AB43"/>
<path d="M67.7727 63.8956C67.7727 65.0141 66.8695 65.9172 65.7511 65.9172C64.6326 65.9172 63.7295 65.0141 63.7295 63.8956C63.7295 62.7772 64.6326 61.874 65.7511 61.874C66.8695 61.874 67.7727 62.7772 67.7727 63.8956Z" fill="#6E7FDD"/>
<path d="M181.837 106.917C181.837 112.384 177.136 116.858 171.394 116.858H83.1138C77.372 116.858 72.6709 112.384 72.6709 106.917C72.6709 101.45 77.372 96.9766 83.1138 96.9766H171.394C177.136 96.9766 181.837 101.45 181.837 106.917Z" fill="#E2E6FF"/>
<path d="M94.5141 111.6L90.8896 108.226C91.4338 107.455 91.7209 106.528 91.685 105.565C91.6432 104.405 91.1527 103.322 90.2974 102.532C89.4481 101.737 88.3357 101.324 87.1694 101.366C86.009 101.408 84.9265 101.898 84.137 102.754C83.3415 103.603 82.9288 104.716 82.9707 105.882C83.0125 107.042 83.503 108.125 84.3583 108.914C85.2076 109.71 86.3201 110.122 87.4864 110.081C88.4493 110.045 89.3524 109.698 90.0821 109.1L93.7066 112.473L94.5141 111.606V111.6ZM85.1657 108.047C84.5437 107.467 84.1848 106.683 84.1549 105.84C84.125 104.991 84.4241 104.183 85.0042 103.561C85.5844 102.939 86.3679 102.58 87.2112 102.55C88.0605 102.521 88.868 102.82 89.49 103.4C90.112 103.98 90.4709 104.763 90.5008 105.607C90.5307 106.456 90.2316 107.263 89.6515 107.886C89.0713 108.508 88.2878 108.866 87.4445 108.896C86.5952 108.926 85.7877 108.627 85.1657 108.047Z" fill="#6E7FDD"/>
<path d="M110.22 107.766C110.785 107.766 111.243 107.308 111.243 106.743C111.243 106.179 110.785 105.721 110.22 105.721C109.655 105.721 109.197 106.179 109.197 106.743C109.197 107.308 109.655 107.766 110.22 107.766Z" fill="#B6C3F2"/>
<path d="M122.182 107.766C122.747 107.766 123.205 107.308 123.205 106.743C123.205 106.179 122.747 105.721 122.182 105.721C121.617 105.721 121.159 106.179 121.159 106.743C121.159 107.308 121.617 107.766 122.182 107.766Z" fill="#B6C3F2"/>
<path d="M134.144 107.766C134.709 107.766 135.167 107.308 135.167 106.743C135.167 106.179 134.709 105.721 134.144 105.721C133.579 105.721 133.122 106.179 133.122 106.743C133.122 107.308 133.579 107.766 134.144 107.766Z" fill="#B6C3F2"/>
<path d="M146.106 107.766C146.671 107.766 147.129 107.308 147.129 106.743C147.129 106.179 146.671 105.721 146.106 105.721C145.541 105.721 145.083 106.179 145.083 106.743C145.083 107.308 145.541 107.766 146.106 107.766Z" fill="#B6C3F2"/>
<path d="M240.44 23.4639H161.46V110.356H240.44V23.4639Z" fill="#F5F9FF"/>
<path d="M240.44 23.4639H161.46V33.2608H240.44V23.4639Z" fill="#E2E6FF"/>
<path d="M170.007 28.5837C170.007 29.8218 169.002 30.8266 167.764 30.8266C166.526 30.8266 165.521 29.8218 165.521 28.5837C165.521 27.3456 166.526 26.3408 167.764 26.3408C169.002 26.3408 170.007 27.3456 170.007 28.5837Z" fill="#EB725F"/>
<path d="M177.555 28.5837C177.555 29.8218 176.55 30.8266 175.312 30.8266C174.074 30.8266 173.069 29.8218 173.069 28.5837C173.069 27.3456 174.074 26.3408 175.312 26.3408C176.55 26.3408 177.555 27.3456 177.555 28.5837Z" fill="#F9AB43"/>
<path d="M185.103 28.5837C185.103 29.8218 184.098 30.8266 182.86 30.8266C181.622 30.8266 180.617 29.8218 180.617 28.5837C180.617 27.3456 181.622 26.3408 182.86 26.3408C184.098 26.3408 185.103 27.3456 185.103 28.5837Z" fill="#6E7FDD"/>
<path d="M217.244 77.9316L213.983 81.1924L243.22 110.429L246.48 107.168L217.244 77.9316Z" fill="#EB725F"/>
<path d="M218.259 76.0685L212.122 82.2051L220.678 90.7608L226.814 84.6242L218.259 76.0685Z" fill="#6E7FDD"/>
<g opacity="0.2">
<path d="M215.618 79.5602C207.969 87.21 195.528 87.21 187.884 79.5602C180.24 71.9105 180.24 59.4699 187.884 51.8262C195.528 44.1764 207.974 44.1764 215.618 51.8262C223.268 59.4759 223.262 71.9165 215.618 79.5602Z" fill="#F5F9FF"/>
</g>
<path d="M217.478 81.4265C208.806 90.099 194.691 90.099 186.018 81.4265C177.346 72.754 177.346 58.6388 186.018 49.9663C194.691 41.2938 208.806 41.2938 217.478 49.9663C226.151 58.6388 226.151 72.754 217.478 81.4265ZM189.278 53.226C182.405 60.0982 182.405 71.2887 189.278 78.1609C196.15 85.0331 207.34 85.0331 214.213 78.1609C221.085 71.2887 221.085 60.0982 214.213 53.226C207.34 46.3537 196.15 46.3537 189.278 53.226Z" fill="#EB725F"/>
<path d="M211.503 58.8123L208.632 55.9414L201.748 62.8196L194.864 55.9414L191.993 58.8123L198.877 65.6965L191.993 72.5747L194.864 75.4515L201.748 68.5674L208.632 75.4515L211.503 72.5747L204.619 65.6965L211.503 58.8123Z" fill="#F9AB43"/>
<path d="M75.8888 123.85H40.1641V188.391H95.2673V142.415L75.8888 123.85Z" fill="#EB725F"/>
<path d="M75.8887 123.85L95.2672 142.415H75.8887V123.85Z" fill="#F4AEA6"/>
<path d="M61.8395 148.652C61.8395 150.59 60.7151 152.157 59.3275 152.157C57.9399 152.157 56.8154 150.584 56.8154 148.652C56.8154 146.72 57.9399 145.147 59.3275 145.147C60.7151 145.147 61.8395 146.72 61.8395 148.652Z" fill="white"/>
<path d="M76.0384 152.157C77.4258 152.157 78.5504 150.588 78.5504 148.652C78.5504 146.717 77.4258 145.147 76.0384 145.147C74.6511 145.147 73.5264 146.717 73.5264 148.652C73.5264 150.588 74.6511 152.157 76.0384 152.157Z" fill="white"/>
<path d="M60.6909 159.185C61.7376 158.036 63.191 157.139 64.6384 156.619C68.3048 155.297 71.8456 156.679 74.6327 159.185C75.3804 159.855 76.4868 158.754 75.7392 158.078C72.647 155.297 68.6337 153.664 64.5188 155.01C62.7125 155.602 60.8823 156.667 59.5904 158.078C58.9146 158.82 60.0151 159.926 60.6969 159.185H60.6909Z" fill="white"/>
<path d="M57.0668 15.0244H16.8802C14.4818 15.0244 12.52 16.9862 12.52 19.3846V47.5732C12.52 49.9716 14.4818 51.9334 16.8802 51.9334H31.0014L36.9765 59.2123L42.9515 51.9334H57.0728C59.4712 51.9334 61.4329 49.9716 61.4329 47.5732V19.3846C61.4329 16.9862 59.4712 15.0244 57.0728 15.0244H57.0668Z" fill="#F9AB43"/>
<path d="M36.9704 20.2637C29.6317 20.2637 23.6626 26.2327 23.6626 33.5715C23.6626 40.9102 29.6317 46.8793 36.9704 46.8793C44.3091 46.8793 50.2782 40.9102 50.2782 33.5715C50.2782 26.2327 44.3091 20.2637 36.9704 20.2637ZM36.9704 22.7697C39.4944 22.7697 41.821 23.643 43.6632 25.1023L28.5072 40.2583C27.0479 38.4161 26.1746 36.0955 26.1746 33.5655C26.1746 27.6144 31.0193 22.7697 36.9704 22.7697ZM36.9704 44.3672C34.4464 44.3672 32.1198 43.494 30.2776 42.0346L45.4336 26.8787C46.8929 28.7209 47.7662 31.0415 47.7662 33.5715C47.7662 39.5286 42.9215 44.3672 36.9704 44.3672Z" fill="white"/>
<path d="M207.065 128.371L173.733 128.149L173.338 188.361L224.745 188.701L225.032 145.805L207.065 128.371Z" fill="#D0DBF7"/>
<path d="M207.065 128.371L225.032 145.806L206.952 145.692L207.065 128.371Z" fill="#E3EBFC"/>
<path d="M210.145 150.818L206.969 147.6L199.26 155.202L191.658 147.498L188.44 150.674L196.042 158.378L188.338 165.985L191.514 169.203L199.218 161.595L206.826 169.305L210.044 166.129L202.436 158.419L210.145 150.818Z" fill="#EEF4FF"/>
<path d="M39.0158 81.9221L19.0631 71.9277L1.00635 107.963L31.7728 123.383L44.638 97.712L39.0158 81.9221Z" fill="#D0DBF7"/>
<path d="M39.0159 81.9219L44.6381 97.7118L33.8184 92.293L39.0159 81.9219Z" fill="#E3EBFC"/>
<path d="M34.219 96.312L33.262 93.4411L26.3839 95.7258L24.0991 88.8477L21.2282 89.8046L23.513 96.6828L16.6348 98.9676L17.5858 101.838L24.4699 99.5537L26.7547 106.432L29.6256 105.475L27.3408 98.5967L34.219 96.312Z" fill="#EEF4FF"/>
<path d="M113.63 15.0361L97.6602 20.2277L107.05 49.0682L131.674 41.0596L124.988 20.5148L113.63 15.0361Z" fill="#D0DBF7"/>
<path d="M113.629 15.0361L124.987 20.5148L116.327 23.3318L113.629 15.0361Z" fill="#E3EBFC"/>
<path d="M118.666 25.2699L116.638 24.2412L114.168 29.0978L109.305 26.6276L108.271 28.6552L113.133 31.1314L110.657 35.988L112.685 37.0227L115.161 32.1601L120.023 34.6363L121.052 32.6087L116.195 30.1325L118.666 25.2699Z" fill="#EEF4FF"/>
<path d="M162.913 12.2672H161.513C161.22 11.0291 160.736 9.86883 160.096 8.81018L161.089 7.82331C161.866 7.05176 161.866 5.78976 161.101 5.01821L159.946 3.85789C159.175 3.08035 157.913 3.08035 157.141 3.84593L156.148 4.83279C155.096 4.18086 153.941 3.69042 152.709 3.39137V1.9918C152.715 0.897271 151.83 0.00610007 150.735 0.000119033H149.103C148.008 -0.011843 147.117 0.879329 147.111 1.97386V3.37342C145.873 3.66649 144.713 4.15096 143.654 4.79093L142.667 3.79808C141.896 3.02054 140.634 3.02054 139.862 3.78611L138.702 4.94045C137.924 5.71201 137.924 6.97401 138.69 7.74556L139.677 8.73841C139.025 9.79108 138.534 10.9454 138.235 12.1775H136.836C135.741 12.1715 134.85 13.0567 134.844 14.1512V15.7901C134.832 16.8846 135.723 17.7758 136.818 17.7817H138.217C138.51 19.0198 138.995 20.1801 139.635 21.2388L138.642 22.2256C137.864 22.9972 137.864 24.2592 138.63 25.0308L139.784 26.1911C140.556 26.9686 141.818 26.9686 142.589 26.203L143.582 25.2162C144.635 25.8681 145.789 26.3585 147.021 26.6576V28.0572C147.015 29.1517 147.9 30.0429 148.995 30.0488H150.628C151.722 30.0608 152.614 29.1696 152.62 28.0751V26.6755C153.858 26.3825 155.018 25.898 156.077 25.258L157.063 26.2509C157.835 27.0284 159.097 27.0284 159.869 26.2629L161.029 25.1085C161.806 24.337 161.806 23.075 161.041 22.3034L160.054 21.3106C160.706 20.2579 161.196 19.1035 161.495 17.8715H162.895C163.989 17.8774 164.881 16.9922 164.887 15.8977V14.2589C164.899 13.1644 164.007 12.2732 162.913 12.2672ZM149.844 20.5629C146.782 20.551 144.312 18.0628 144.324 15.0065C144.336 11.9502 146.824 9.47408 149.88 9.48604C152.942 9.49801 155.413 11.9861 155.401 15.0424C155.389 18.1047 152.901 20.5749 149.844 20.5629Z" fill="#EB725F"/>
<path d="M149.892 7.12311C145.526 7.10517 141.979 10.634 141.961 15.0001C141.944 19.3663 145.472 22.9131 149.839 22.931C154.205 22.9489 157.751 19.4201 157.769 15.054C157.787 10.6878 154.258 7.14106 149.892 7.12311ZM149.844 19.9345C147.135 19.9225 144.946 17.7215 144.952 15.0121C144.964 12.3027 147.165 10.1136 149.874 10.1196C152.584 10.1316 154.773 12.3326 154.767 15.042C154.755 17.7514 152.554 19.9405 149.844 19.9345Z" fill="#F9AB43"/>
</svg>
