<svg width="1080" height="1080" viewBox="0 0 1080 1080" fill="none" xmlns="http://www.w3.org/2000/svg">
<rect width="1080" height="1080" fill="white"/>
<path d="M147.052 816V760.591H158.479L184.07 798.078V760.591H195.261V816H184.148L158.244 778.904V816H147.052ZM231.036 816.626C225.349 816.626 220.445 815.426 216.323 813.026C212.254 810.626 209.123 807.313 206.932 803.087C204.793 798.809 203.723 793.904 203.723 788.374C203.723 782.739 204.819 777.783 207.01 773.504C209.254 769.226 212.436 765.913 216.558 763.565C220.68 761.165 225.584 759.965 231.271 759.965C236.906 759.965 241.758 761.139 245.827 763.487C249.897 765.835 253.027 769.122 255.219 773.348C257.462 777.574 258.584 782.504 258.584 788.139C258.584 793.67 257.462 798.6 255.219 802.93C253.027 807.209 249.871 810.574 245.749 813.026C241.68 815.426 236.775 816.626 231.036 816.626ZM231.193 806.139C234.949 806.139 238.001 805.278 240.349 803.557C242.697 801.835 244.393 799.617 245.436 796.904C246.532 794.191 247.08 791.348 247.08 788.374C247.08 786.183 246.767 784.017 246.141 781.878C245.567 779.739 244.654 777.809 243.401 776.087C242.149 774.365 240.506 773.009 238.471 772.017C236.436 770.974 233.984 770.452 231.114 770.452C227.41 770.452 224.384 771.313 222.036 773.035C219.688 774.704 217.941 776.896 216.793 779.609C215.697 782.322 215.149 785.217 215.149 788.296C215.149 791.374 215.697 794.27 216.793 796.983C217.941 799.696 219.688 801.913 222.036 803.635C224.436 805.304 227.488 806.139 231.193 806.139ZM289.001 816V760.591H310.601C314.827 760.591 318.506 761.243 321.636 762.548C324.819 763.8 327.271 765.835 328.992 768.652C330.714 771.417 331.575 775.122 331.575 779.765C331.575 784.096 330.61 787.722 328.679 790.643C326.801 793.565 324.219 795.757 320.932 797.217C317.645 798.626 313.914 799.33 309.74 799.33H300.192V816H289.001ZM300.192 789.313H309.584C312.923 789.313 315.558 788.53 317.488 786.965C319.471 785.348 320.462 782.922 320.462 779.687C320.462 776.817 319.627 774.652 317.958 773.191C316.34 771.73 313.732 771 310.132 771H300.192V789.313ZM339.935 816V760.591H362.239C365.005 760.591 367.639 760.878 370.144 761.452C372.7 761.974 374.996 762.887 377.031 764.191C379.065 765.496 380.657 767.322 381.805 769.67C383.005 771.965 383.605 774.913 383.605 778.513C383.605 781.174 383.161 783.574 382.274 785.713C381.387 787.852 380.083 789.678 378.361 791.191C376.639 792.704 374.578 793.878 372.178 794.713L384.465 816H371.865L361.065 796.513H351.126V816H339.935ZM351.126 786.574H361.457C363.074 786.574 364.535 786.443 365.839 786.183C367.196 785.87 368.344 785.4 369.283 784.774C370.274 784.148 371.031 783.313 371.552 782.27C372.126 781.226 372.413 779.948 372.413 778.435C372.465 776.504 372.048 775.017 371.161 773.974C370.326 772.878 369.126 772.122 367.561 771.704C366.048 771.235 364.248 771 362.161 771H351.126V786.574ZM417.957 816.626C412.27 816.626 407.366 815.426 403.244 813.026C399.175 810.626 396.044 807.313 393.853 803.087C391.714 798.809 390.644 793.904 390.644 788.374C390.644 782.739 391.74 777.783 393.931 773.504C396.175 769.226 399.357 765.913 403.479 763.565C407.601 761.165 412.505 759.965 418.192 759.965C423.827 759.965 428.679 761.139 432.749 763.487C436.818 765.835 439.949 769.122 442.14 773.348C444.383 777.574 445.505 782.504 445.505 788.139C445.505 793.67 444.383 798.6 442.14 802.93C439.949 807.209 436.792 810.574 432.67 813.026C428.601 815.426 423.696 816.626 417.957 816.626ZM418.114 806.139C421.87 806.139 424.923 805.278 427.27 803.557C429.618 801.835 431.314 799.617 432.357 796.904C433.453 794.191 434.001 791.348 434.001 788.374C434.001 786.183 433.688 784.017 433.062 781.878C432.488 779.739 431.575 777.809 430.323 776.087C429.07 774.365 427.427 773.009 425.392 772.017C423.357 770.974 420.905 770.452 418.036 770.452C414.331 770.452 411.305 771.313 408.957 773.035C406.61 774.704 404.862 776.896 403.714 779.609C402.618 782.322 402.07 785.217 402.07 788.296C402.07 791.374 402.618 794.27 403.714 796.983C404.862 799.696 406.61 801.913 408.957 803.635C411.357 805.304 414.41 806.139 418.114 806.139ZM454.031 816V760.591H474.926C480.718 760.591 485.648 761.687 489.718 763.878C493.839 766.07 496.97 769.226 499.109 773.348C501.3 777.47 502.396 782.504 502.396 788.452C502.396 794.296 501.326 799.278 499.187 803.4C497.1 807.47 494.022 810.6 489.952 812.791C485.883 814.93 480.9 816 475.005 816H454.031ZM465.222 805.67H474.926C478.787 805.67 481.892 804.939 484.239 803.478C486.587 802.017 488.309 799.983 489.405 797.374C490.5 794.765 491.048 791.765 491.048 788.374C491.048 785.087 490.5 782.139 489.405 779.53C488.361 776.87 486.639 774.783 484.239 773.27C481.892 771.757 478.709 771 474.692 771H465.222V805.67ZM534.089 816.626C528.663 816.626 524.202 815.609 520.707 813.574C517.263 811.539 514.707 808.617 513.037 804.809C511.42 801 510.611 796.435 510.611 791.113V760.591H521.802V791.661C521.802 794.165 522.167 796.539 522.898 798.783C523.68 800.974 524.959 802.774 526.733 804.183C528.559 805.539 531.037 806.217 534.167 806.217C537.35 806.217 539.802 805.539 541.524 804.183C543.246 802.774 544.446 800.948 545.124 798.704C545.802 796.461 546.141 794.113 546.141 791.661V760.591H557.333V791.113C557.333 796.383 556.524 800.948 554.907 804.809C553.289 808.617 550.759 811.539 547.315 813.574C543.872 815.609 539.463 816.626 534.089 816.626ZM592.143 816.626C586.456 816.626 581.604 815.478 577.587 813.183C573.622 810.835 570.596 807.548 568.509 803.322C566.474 799.096 565.456 794.165 565.456 788.53C565.456 782.791 566.5 777.783 568.587 773.504C570.726 769.226 573.778 765.913 577.743 763.565C581.709 761.165 586.483 759.965 592.065 759.965C596.291 759.965 600.074 760.696 603.413 762.157C606.752 763.565 609.439 765.678 611.474 768.496C613.561 771.261 614.865 774.678 615.387 778.748H604.587C603.909 776.191 602.526 774.183 600.439 772.722C598.404 771.209 595.691 770.452 592.3 770.452C588.543 770.452 585.543 771.313 583.3 773.035C581.109 774.704 579.517 776.896 578.526 779.609C577.535 782.27 577.039 785.087 577.039 788.061C577.039 791.139 577.561 794.061 578.604 796.826C579.648 799.591 581.291 801.835 583.535 803.557C585.83 805.278 588.83 806.139 592.535 806.139C594.726 806.139 596.683 805.826 598.404 805.2C600.126 804.522 601.535 803.557 602.63 802.304C603.778 801.052 604.561 799.565 604.978 797.843H616.17C615.7 801.861 614.343 805.278 612.1 808.096C609.856 810.913 607.013 813.052 603.57 814.513C600.126 815.922 596.317 816.626 592.143 816.626ZM635.92 816V771H619.016V760.591H664.172V771H647.19V816H635.92ZM692.421 816V760.591H703.612V816H692.421ZM715.153 816V760.591H730.023L744.814 787.357L759.449 760.591H773.77V816H762.579V775.539L746.849 803.635H742.31L726.344 775.539V816H715.153ZM779.555 816L801.155 760.591H813.677L835.042 816H822.99L819.546 806.53H795.051L791.607 816H779.555ZM798.651 796.435H816.025L807.416 772.487L798.651 796.435ZM862.512 816.626C856.877 816.626 852.077 815.452 848.112 813.104C844.146 810.704 841.12 807.391 839.033 803.165C836.946 798.887 835.903 793.904 835.903 788.217C835.903 783.991 836.477 780.157 837.625 776.713C838.825 773.217 840.546 770.217 842.79 767.713C845.085 765.209 847.877 763.304 851.164 762C854.451 760.643 858.181 759.965 862.355 759.965C866.581 759.965 870.364 760.643 873.703 762C877.042 763.357 879.807 765.391 881.998 768.104C884.242 770.765 885.703 774.104 886.381 778.122H875.033C874.616 776.4 873.859 774.991 872.764 773.896C871.668 772.748 870.285 771.887 868.616 771.313C866.998 770.739 865.146 770.452 863.059 770.452C860.19 770.452 857.764 770.948 855.781 771.939C853.798 772.93 852.181 774.287 850.929 776.009C849.729 777.678 848.842 779.609 848.268 781.8C847.746 783.939 847.485 786.157 847.485 788.452C847.485 791.583 848.007 794.504 849.051 797.217C850.094 799.878 851.738 802.043 853.981 803.713C856.225 805.33 859.198 806.139 862.903 806.139C865.355 806.139 867.52 805.774 869.398 805.043C871.329 804.261 872.868 803.113 874.016 801.6C875.216 800.035 875.894 798.157 876.051 795.965H860.946V786.339H887.555V789.391C887.555 795.026 886.616 799.878 884.738 803.948C882.859 808.017 880.068 811.148 876.364 813.339C872.659 815.53 868.042 816.626 862.512 816.626ZM896.079 816V760.591H935.992V771H907.271V783.522H931.923V793.539H907.271V805.67H935.992V816H896.079ZM323.847 906L345.447 850.591H357.969L379.334 906H367.282L363.839 896.53H339.343L335.9 906H323.847ZM342.943 886.435H360.317L351.708 862.487L342.943 886.435ZM395.975 906L375.784 850.591H387.993L403.488 896.53L418.671 850.591H430.801L410.688 906H395.975ZM427.243 906L448.843 850.591H461.365L482.73 906H470.678L467.235 896.53H442.739L439.296 906H427.243ZM446.339 886.435H463.713L455.104 862.487L446.339 886.435ZM488.478 906V850.591H499.669V906H488.478ZM511.21 906V850.591H522.401V895.67H550.497V906H511.21ZM553.219 906L574.819 850.591H587.341L608.706 906H596.654L593.21 896.53H568.715L565.271 906H553.219ZM572.315 886.435H589.689L581.08 862.487L572.315 886.435ZM614.375 906V850.591H638.636C641.192 850.591 643.514 850.852 645.601 851.374C647.74 851.843 649.592 852.626 651.158 853.722C652.723 854.817 653.923 856.278 654.758 858.104C655.645 859.93 656.088 862.252 656.088 865.07C656.088 867.365 655.566 869.504 654.523 871.487C653.479 873.47 651.94 874.983 649.905 876.026C652.619 876.913 654.758 878.452 656.323 880.643C657.888 882.783 658.671 885.626 658.671 889.174C658.671 892.357 658.071 895.043 656.871 897.235C655.671 899.374 654.027 901.096 651.94 902.4C649.853 903.704 647.427 904.643 644.662 905.217C641.897 905.739 638.949 906 635.819 906H614.375ZM625.566 895.67H637.149C638.558 895.67 639.862 895.565 641.062 895.357C642.314 895.148 643.41 894.809 644.349 894.339C645.288 893.817 646.019 893.113 646.54 892.226C647.114 891.339 647.401 890.243 647.401 888.939C647.401 887.739 647.166 886.748 646.697 885.965C646.279 885.13 645.653 884.452 644.819 883.93C644.036 883.409 643.097 883.043 642.001 882.835C640.958 882.626 639.784 882.522 638.479 882.522H625.566V895.67ZM625.566 873.209H635.819C637.227 873.209 638.505 873.078 639.653 872.817C640.801 872.557 641.766 872.139 642.549 871.565C643.332 870.991 643.932 870.287 644.349 869.452C644.766 868.565 644.975 867.548 644.975 866.4C645.027 864.835 644.688 863.687 643.958 862.957C643.227 862.174 642.236 861.652 640.984 861.391C639.732 861.078 638.323 860.922 636.758 860.922H625.566V873.209ZM667.221 906V850.591H678.413V895.67H706.508V906H667.221ZM713.493 906V850.591H753.406V861H724.684V873.522H749.337V883.539H724.684V895.67H753.406V906H713.493Z" fill="#B6B9C0"/>
<path d="M740 383.49V598.986C740 623.28 720.28 643 695.986 643H383.014C358.72 643 339 623.28 339 598.986V286.014C339 261.72 358.72 242 383.014 242H598.51" stroke="#B6B9C0" stroke-width="12" stroke-miterlimit="10" stroke-linecap="round" stroke-linejoin="round"/>
<path d="M339 541.551L421.554 458.996C434.451 446.1 455.296 446.1 468.193 458.996L577.216 568.019" stroke="#B6B9C0" stroke-width="12" stroke-miterlimit="10" stroke-linecap="round" stroke-linejoin="round"/>
<path d="M511.232 502.035L582.314 430.953C595.211 418.056 616.056 418.056 628.953 430.953L739.925 541.925" stroke="#B6B9C0" stroke-width="12" stroke-miterlimit="10" stroke-linecap="round" stroke-linejoin="round"/>
<path d="M444.874 316.907C444.874 339.476 426.579 357.847 403.934 357.847C381.365 357.847 362.995 339.551 362.995 316.907C362.995 294.338 381.29 275.967 403.934 275.967C426.504 275.967 444.874 294.263 444.874 316.907Z" stroke="#B6B9C0" stroke-width="12" stroke-miterlimit="10" stroke-linecap="round" stroke-linejoin="round"/>
<path d="M586 299.288C586 353.032 629.545 396.577 683.288 396.577C737.032 396.577 780.577 353.032 780.577 299.288C780.577 245.545 737.032 202 683.288 202C629.545 202 586 245.545 586 299.288Z" stroke="#B6B9C0" stroke-width="12" stroke-miterlimit="10" stroke-linecap="round" stroke-linejoin="round"/>
<path d="M633.957 249.957L732.547 348.62" stroke="#B6B9C0" stroke-width="12" stroke-miterlimit="22.9256" stroke-linecap="round"/>
<path d="M732.547 249.957L633.957 348.62" stroke="#B6B9C0" stroke-width="12" stroke-miterlimit="22.9256" stroke-linecap="round"/>
</svg>
