<svg width="204" height="150" viewBox="0 0 204 150" fill="none" xmlns="http://www.w3.org/2000/svg">
<path fill-rule="evenodd" clip-rule="evenodd" d="M159.557 92.1965C159.557 93.0341 159.889 93.8371 160.48 94.4289C161.073 95.0208 161.876 95.3534 162.713 95.3534C177.391 95.3534 189.29 107.252 189.29 121.931C189.29 128.979 186.491 135.739 181.505 140.724C176.522 145.708 169.762 148.509 162.713 148.509H34.2573C19.5795 148.509 7.67969 136.61 7.67969 121.931C7.67969 114.883 10.4799 108.123 15.4644 103.138C20.4489 98.1536 27.209 95.3534 34.2573 95.3534C35.095 95.3534 35.898 95.0208 36.4898 94.4289C37.0817 93.8371 37.4142 93.0341 37.4142 92.1965C37.4142 92.1088 37.4142 92.0201 37.4142 91.9314C37.4142 89.3519 36.1707 86.9305 34.0732 85.4287C33.1199 84.7472 32.2176 83.9847 31.3781 83.1451C27.3488 79.1159 25.0864 73.6523 25.0864 67.9544C25.0864 62.2566 27.3498 56.793 31.3781 52.7638C35.4063 48.7355 40.8709 46.4722 46.5687 46.4722H150.4C156.097 46.4722 161.561 48.7355 165.591 52.7638C169.619 56.793 171.882 62.2566 171.882 67.9544C171.882 73.6523 169.619 79.1159 165.591 83.1451C164.721 84.0136 163.785 84.8002 162.795 85.5C160.763 86.9372 159.555 89.2709 159.555 91.7598C159.555 91.9063 159.555 92.0519 159.555 92.1965H159.557Z" fill="#E4F0FC"/>
<path fill-rule="evenodd" clip-rule="evenodd" d="M174.212 10.4175C182.535 10.4175 189.28 17.1631 189.28 25.4857C189.28 29.4822 187.694 33.3148 184.867 36.1401C182.041 38.9664 178.208 40.554 174.212 40.554C154.701 40.554 120.892 40.554 101.382 40.554C93.0591 40.554 86.3125 33.8083 86.3125 25.4857C86.3125 21.4892 87.9001 17.6557 90.7264 14.8304C93.5526 12.0041 97.3852 10.4175 101.382 10.4175C120.893 10.4175 154.701 10.4175 174.212 10.4175Z" fill="#E4F0FC"/>
<path fill-rule="evenodd" clip-rule="evenodd" d="M102.003 147.017C157.864 147.017 203.219 147.685 203.219 148.508C203.219 149.331 157.865 149.999 102.003 149.999C46.1413 149.999 0.789062 149.331 0.789062 148.508C0.789062 147.685 46.1413 147.017 102.003 147.017Z" fill="#D3DDE8"/>
<path fill-rule="evenodd" clip-rule="evenodd" d="M33.2679 34.8177C34.9452 31.8497 38.7171 30.8019 41.685 32.4792C44.653 34.1574 45.7008 37.9283 44.0226 40.8962C42.3453 43.8642 38.5734 44.912 35.6064 43.2338C32.6385 41.5565 31.5907 37.7847 33.2689 34.8177H33.2679ZM34.6126 35.5763C35.8706 33.3515 38.6997 32.5659 40.9254 33.8229C43.1512 35.0808 43.9368 37.91 42.6788 40.1357C41.4209 42.3614 38.5927 43.147 36.366 41.8891C34.1403 40.6312 33.3547 37.803 34.6126 35.5763Z" fill="#89A9C5"/>
<path fill-rule="evenodd" clip-rule="evenodd" d="M178.954 89.0023C178.778 92.2189 176.022 94.6866 172.805 94.5092C169.588 94.3319 167.12 91.576 167.298 88.3593C167.475 85.1427 170.23 82.675 173.447 82.8533C176.664 83.0307 179.132 85.7866 178.954 89.0032V89.0023ZM177.499 88.9223C177.365 91.335 175.299 93.1848 172.885 93.0518C170.473 92.9188 168.623 90.8521 168.757 88.4393C168.89 86.0266 170.956 84.1768 173.369 84.3098C175.781 84.4429 177.632 86.5095 177.499 88.9223H177.499Z" fill="#89A9C5"/>
<path fill-rule="evenodd" clip-rule="evenodd" d="M16.7366 57.1069C17.579 55.6167 19.4732 55.0904 20.9634 55.9328C22.4537 56.7753 22.98 58.6685 22.1375 60.1597C21.295 61.6499 19.4009 62.1763 17.9116 61.3338C16.4214 60.4913 15.8951 58.5972 16.7375 57.1069H16.7366Z" fill="#89A9C5"/>
<path fill-rule="evenodd" clip-rule="evenodd" d="M173.112 47.3762C173.014 49.1219 171.518 50.4608 169.774 50.3644C168.029 50.268 166.689 48.772 166.786 47.0263C166.882 45.2806 168.378 43.9417 170.123 44.0381C171.868 44.1345 173.207 45.6305 173.112 47.3762Z" fill="#89A9C5"/>
<path d="M32.2591 90.4114C32.2042 90.5078 32.1136 90.5791 32.0066 90.609C31.8996 90.6389 31.7849 90.6244 31.6875 90.5705C31.1631 90.2736 30.5424 90.1984 29.9611 90.3594C29.3808 90.5203 28.8883 90.9059 28.5914 91.4303C28.5827 91.4467 28.5731 91.4621 28.5644 91.4775C28.4709 91.6433 28.2607 91.7021 28.0949 91.6086C27.9744 91.5402 27.8366 91.4621 27.7161 91.3946C27.5503 91.3011 27.4915 91.091 27.586 90.9252C27.5869 90.9242 27.5879 90.9223 27.5879 90.9213C28.2193 89.8051 27.825 88.3891 26.7088 87.7577C26.5411 87.6623 26.4813 87.4492 26.5767 87.2815C26.6452 87.1601 26.7242 87.0203 26.7927 86.8988C26.8871 86.7311 27.1011 86.6714 27.2688 86.7668C28.3851 87.3982 29.8011 87.0039 30.4325 85.8877C30.4334 85.8867 30.4344 85.8848 30.4344 85.8838C30.5279 85.718 30.7381 85.6602 30.9038 85.7537C31.0243 85.8212 31.1622 85.9002 31.2827 85.9677C31.4485 86.0612 31.5073 86.2713 31.4128 86.4371C31.4041 86.4525 31.3955 86.468 31.3858 86.4843C31.0889 87.0087 31.0137 87.6295 31.1747 88.2108C31.3357 88.791 31.7213 89.2836 32.2456 89.5805C32.342 89.6355 32.4134 89.7261 32.4433 89.8331C32.4731 89.9401 32.4587 90.0548 32.4047 90.1521C32.3565 90.237 32.3054 90.3276 32.2572 90.4124L32.2591 90.4114Z" fill="#89A9C5"/>
<path d="M94.9897 3.16221C94.9964 3.04269 95.0504 2.92894 95.1401 2.8499C95.2297 2.76893 95.3473 2.72748 95.4678 2.73326C96.1194 2.76989 96.7595 2.54433 97.2453 2.11056C97.7321 1.6739 98.0251 1.06469 98.0608 0.411141C98.0618 0.391862 98.0627 0.371619 98.0637 0.35234C98.0753 0.147986 98.2517 -0.0100996 98.457 0.000503737C98.6064 0.00917916 98.7789 0.0178546 98.9283 0.0274939C99.1346 0.0390612 99.2917 0.214498 99.2802 0.42078C99.2802 0.421744 99.2802 0.423672 99.2802 0.4256C99.204 1.81367 100.266 3.00027 101.653 3.07642C101.863 3.08799 102.022 3.26632 102.01 3.47549C102.001 3.62587 101.992 3.79938 101.984 3.94975C101.972 4.15892 101.794 4.31797 101.585 4.30737C100.198 4.23122 99.0112 5.29348 98.9341 6.67962C98.9341 6.68058 98.9341 6.68251 98.9341 6.6854C98.9226 6.89072 98.7462 7.04784 98.5408 7.03724C98.3914 7.02856 98.2199 7.01989 98.0695 7.01025C97.8632 6.99868 97.7061 6.82324 97.7167 6.61696C97.7176 6.59768 97.7186 6.5784 97.7196 6.55816C97.7562 5.90654 97.5316 5.26745 97.0959 4.78066C96.6602 4.29291 96.0491 3.99987 95.3974 3.96421C95.277 3.9565 95.1642 3.90348 95.0842 3.81383C95.0042 3.72419 94.9627 3.60562 94.9695 3.48513C94.9752 3.3791 94.982 3.26728 94.9878 3.16125L94.9897 3.16221Z" fill="#89A9C5"/>
<path fill-rule="evenodd" clip-rule="evenodd" d="M61.0781 148.489L146.604 148.507L73.0512 135.66C72.7514 144.037 69.3092 147.624 61.0781 148.488V148.489Z" fill="#98B6D2"/>
<path fill-rule="evenodd" clip-rule="evenodd" d="M146.604 32.8126V148.508L73.0506 135.662C73.0506 135.662 73.0506 136.248 73.0506 137.169C73.0506 140.177 71.8563 143.061 69.7299 145.186C67.6034 147.313 64.7193 148.507 61.7128 148.507C58.7063 148.507 55.8222 147.313 53.6958 145.186C51.5693 143.06 50.375 140.176 50.375 137.169C50.375 104.155 50.375 10.4175 50.375 10.4175H124.21L146.606 32.8126H146.604Z" fill="#B3CEE6"/>
<path fill-rule="evenodd" clip-rule="evenodd" d="M146.599 32.8126H124.203V10.4175L146.599 32.8126Z" fill="#98B6D2"/>
<path fill-rule="evenodd" clip-rule="evenodd" d="M137.839 40.248V41.4231H59.125V40.248H137.839Z" fill="white"/>
<path fill-rule="evenodd" clip-rule="evenodd" d="M137.839 66V67.175H59.125V66H137.839Z" fill="white"/>
<path fill-rule="evenodd" clip-rule="evenodd" d="M137.839 91.7505V92.9255H59.125V91.7505H137.839Z" fill="white"/>
<path fill-rule="evenodd" clip-rule="evenodd" d="M137.839 117.502V118.677H59.125V117.502H137.839Z" fill="white"/>
<path fill-rule="evenodd" clip-rule="evenodd" d="M120.047 85.5051L136.811 110.282L145.271 104.558L128.506 79.7812L120.047 85.5051Z" fill="#99B3CA"/>
<path fill-rule="evenodd" clip-rule="evenodd" d="M119.282 84.3743L124.632 92.2814C127.748 91.0794 130.568 89.1698 133.092 86.5576L127.742 78.6514L119.281 84.3752L119.282 84.3743Z" fill="#7C98B0"/>
<path fill-rule="evenodd" clip-rule="evenodd" d="M90.6013 34.3363C75.481 44.5656 71.5116 65.1466 81.7418 80.2669C91.9721 95.3872 112.553 99.3567 127.673 89.1264C142.793 78.8962 146.762 58.3152 136.533 43.1949C126.303 28.0746 105.722 24.1051 90.6013 34.3363Z" fill="#88A9C5"/>
<path fill-rule="evenodd" clip-rule="evenodd" d="M81.5813 49.0423C81.8088 48.6066 81.6391 48.0678 81.2024 47.8403C80.7667 47.6128 80.2279 47.7825 80.0004 48.2191C78.9102 50.3118 78.1063 52.5453 77.6127 54.8539C77.3361 56.1465 77.1578 57.4633 77.0797 58.7916C77.0508 59.2822 77.4267 59.7044 77.9173 59.7324C78.408 59.7613 78.8302 59.3853 78.8582 58.8947C78.9304 57.657 79.0972 56.4309 79.3546 55.226C79.8144 53.0745 80.5643 50.9924 81.5793 49.0414L81.5813 49.0423Z" fill="#CFE5F9"/>
<path fill-rule="evenodd" clip-rule="evenodd" d="M94.193 35.4398C94.6344 35.2229 94.8157 34.6879 94.5988 34.2474C94.3819 33.805 93.8469 33.6237 93.4064 33.8406C88.2599 36.3748 84.3049 40.405 81.8276 45.1611C81.6001 45.5968 81.7698 46.1356 82.2064 46.3631C82.6421 46.5906 83.181 46.421 83.4075 45.9843C85.7151 41.554 89.3993 37.8005 94.193 35.4398Z" fill="#CFE5F9"/>
<path fill-rule="evenodd" clip-rule="evenodd" d="M94.6717 40.3561C82.8751 48.3375 79.777 64.3957 87.7593 76.1923C95.7407 87.989 111.799 91.0871 123.596 83.1047C135.392 75.1233 138.49 59.0651 130.508 47.2684C122.527 35.4718 106.468 32.3747 94.6707 40.3561H94.6717Z" fill="#E9F3FB"/>
<path d="M93.6797 69.5897L100.012 76.4731L109.19 68.031L116.93 76.4452L123.144 70.729L115.406 62.3148L124.584 53.8717L118.252 46.9873L109.074 55.4304L101.334 47.0162L95.1188 52.7324L102.858 61.1466L93.6797 69.5897Z" fill="#F15858"/>
<path fill-rule="evenodd" clip-rule="evenodd" d="M131.212 106.962C130.872 107.192 130.637 107.547 130.559 107.95C130.481 108.353 130.567 108.77 130.798 109.11C134.9 115.173 152.33 140.935 156.432 146.998C156.662 147.338 157.019 147.573 157.421 147.651C157.823 147.729 158.243 147.643 158.581 147.413C158.921 147.182 159.339 147.097 159.743 147.175C160.145 147.253 160.5 147.487 160.732 147.827C160.961 148.167 161.317 148.402 161.719 148.48C162.123 148.558 162.54 148.472 162.88 148.242C164.898 146.877 168.79 144.243 170.807 142.878C171.147 142.649 171.381 142.293 171.459 141.89C171.537 141.487 171.452 141.07 171.222 140.731C170.992 140.39 170.907 139.973 170.983 139.57C171.061 139.167 171.295 138.811 171.636 138.582C171.976 138.352 172.21 137.997 172.288 137.594C172.364 137.191 172.28 136.774 172.049 136.433C167.947 130.37 150.517 104.608 146.414 98.5449C146.184 98.2046 145.829 97.9704 145.425 97.8923C145.023 97.8142 144.606 97.9 144.266 98.1304C143.925 98.3598 143.508 98.4456 143.106 98.3685C142.702 98.2904 142.347 98.0562 142.117 97.7159C141.888 97.3756 141.531 97.1414 141.128 97.0633C140.725 96.9852 140.308 97.071 139.967 97.3014C137.951 98.6663 134.058 101.3 132.04 102.665C131.7 102.895 131.466 103.251 131.387 103.653C131.309 104.056 131.395 104.473 131.626 104.813C131.856 105.153 131.941 105.571 131.864 105.973C131.786 106.376 131.551 106.732 131.211 106.962H131.212Z" fill="#89A9C5"/>
<path fill-rule="evenodd" clip-rule="evenodd" d="M136.93 110.465C136.585 109.955 135.891 109.821 135.381 110.166C134.871 110.511 134.737 111.205 135.082 111.715L149.839 133.526C150.184 134.036 150.879 134.17 151.389 133.825C151.899 133.48 152.031 132.786 151.687 132.276L136.93 110.465Z" fill="#D7EBFC"/>
<path fill-rule="evenodd" clip-rule="evenodd" d="M154.86 136.956C154.515 136.446 153.821 136.312 153.311 136.657C152.801 137.002 152.667 137.697 153.012 138.206L155.614 142.053C155.96 142.562 156.655 142.696 157.164 142.351C157.674 142.006 157.806 141.312 157.462 140.802L154.86 136.956Z" fill="#D7EBFC"/>
</svg>
