<svg width="240" height="240" viewBox="0 0 240 240" fill="none" xmlns="http://www.w3.org/2000/svg">
<g clip-path="url(#clip0_2175_220126)">
<path d="M213.939 206.432C209.036 211.561 204.396 214.869 200.731 217.482C157.641 248.202 106.655 239.247 95.8183 237.06C79.8166 233.831 48.8863 227.589 26.5245 201.46C-7.3076 161.928 -2.03955 99.6475 24.2032 58.5357C29.0037 51.0153 54.3588 9.27721 105.895 2.58324C137.084 -1.46764 173.44 6.70227 199.768 28.619C255.033 74.6236 251.098 167.562 213.94 206.432H213.939Z" fill="url(#paint0_linear_2175_220126)"/>
<path d="M238.483 2.42732C238.777 1.17651 237.017 0.344946 235.94 1.21878C224.998 10.0909 198.709 36.6606 205.26 83.0922C213.48 141.348 199.427 162.605 181.934 175.571C181.934 175.571 205.958 169.473 221.073 147.904C258.183 94.9455 233.259 24.6684 238.483 2.42732H238.483Z" fill="#91B3FA"/>
<g style="mix-blend-mode:soft-light">
<path d="M230.156 20.6235C228.787 27.1087 227.567 33.6138 226.624 40.1482C225.642 46.6774 224.889 53.229 224.374 59.791C223.888 66.3547 223.545 72.9253 223.525 79.4985C223.471 86.0717 223.745 92.6389 224.046 99.2319C224.304 105.822 224.607 112.461 224.125 119.146C223.651 125.818 222.246 132.548 219.459 138.857C218.762 140.43 218.03 141.997 217.197 143.512C216.398 145.041 215.519 146.539 214.609 148.024C212.773 150.985 210.706 153.846 208.403 156.562C203.779 161.984 198.203 166.794 192.06 170.864C191.414 171.293 190.488 171.188 189.991 170.629C189.504 170.081 189.612 169.299 190.229 168.866L190.233 168.862C191.695 167.836 193.141 166.796 194.529 165.704C195.233 165.167 195.909 164.605 196.595 164.054C197.257 163.481 197.945 162.93 198.586 162.34C201.195 160.018 203.611 157.541 205.804 154.922C210.214 149.708 213.744 143.899 216.418 137.876C217.717 134.851 218.754 131.748 219.513 128.586C220.267 125.425 220.743 122.208 221.005 118.965C221.531 112.477 221.293 105.903 221.09 99.3121C220.897 92.7182 220.755 86.0916 220.929 79.4692C221.006 76.1584 221.152 72.8494 221.366 69.5438C221.461 67.891 221.595 66.24 221.724 64.5889C221.873 62.9387 222.031 61.2894 222.205 59.6418C222.915 53.0522 223.858 46.4841 225.039 39.9515C226.257 33.4231 227.676 26.9259 229.381 20.4855C229.43 20.3018 229.642 20.1862 229.855 20.2284C230.063 20.269 230.194 20.4441 230.157 20.6227L230.156 20.6235Z" fill="white"/>
</g>
<path d="M210.442 125.414C211.477 127.023 213.819 127.052 214.915 125.482C220.957 116.825 235.826 90.8033 225.787 55.7678C217.31 26.1823 215.525 9.3344 215.244 1.62944C215.185 -5.74219e-05 213.08 -0.606482 212.16 0.740075C202.012 15.5902 172.924 67.113 210.443 125.414H210.442Z" fill="#BDD0FB"/>
<g style="mix-blend-mode:soft-light">
<path d="M212.971 124.853C213.015 124.869 213.062 124.882 213.111 124.891C213.517 124.96 213.904 124.686 213.973 124.28C214.051 123.819 221.709 77.6982 211.78 36.0291C211.684 35.628 211.281 35.3804 210.88 35.4753C210.479 35.5711 210.232 35.9739 210.327 36.375C220.184 77.7405 212.578 123.571 212.5 124.029C212.439 124.387 212.644 124.729 212.972 124.853H212.971Z" fill="white"/>
</g>
<path d="M228.605 117.027C231.129 59.4559 182.799 10.5772 120.657 7.85317C58.515 5.12912 6.09316 49.5913 3.5695 107.162C1.04583 164.733 49.376 213.612 111.518 216.336C173.66 219.06 226.082 174.598 228.605 117.027Z" fill="#7D97F4"/>
<path opacity="0.1" d="M110.001 188.065C158.81 188.065 198.377 150.686 198.377 104.577C198.377 58.4684 158.81 21.0898 110.001 21.0898C61.1916 21.0898 21.624 58.4684 21.624 104.577C21.624 150.686 61.1916 188.065 110.001 188.065Z" fill="#91B3FA"/>
<g opacity="0.68">
<g style="mix-blend-mode:soft-light">
<path d="M144.869 112.608C144.842 131.011 143.58 149.452 140.337 167.593C139.515 172.126 138.564 176.636 137.43 181.103C136.292 185.569 134.979 189.995 133.371 194.324C131.749 198.64 129.868 202.896 127.315 206.784C126.029 208.715 124.57 210.563 122.77 212.085C121.87 212.841 120.882 213.511 119.795 214.003C118.711 214.491 117.524 214.8 116.322 214.821C115.12 214.857 113.917 214.621 112.811 214.176C111.701 213.735 110.688 213.095 109.767 212.364C107.923 210.889 106.433 209.061 105.124 207.146C102.527 203.285 100.62 199.039 98.9806 194.728C97.352 190.407 96.0261 185.984 94.8788 181.521C93.7333 177.057 92.7723 172.549 91.9442 168.019C90.2923 158.956 89.1648 149.806 88.4048 140.631C87.65 131.455 87.2714 122.249 87.2248 113.042C87.2023 108.439 87.3274 103.837 87.4913 99.2374C87.6638 94.6379 87.9166 90.0418 88.2556 85.4518C88.9362 76.2726 89.9533 67.1141 91.4654 58.0307C92.2237 53.4899 93.1087 48.9688 94.1724 44.4866C95.2386 40.007 96.4781 35.5619 98.0162 31.2143C98.7891 29.0422 99.6336 26.8934 100.597 24.7955C101.559 22.6976 102.636 20.6454 103.901 18.7054C105.169 16.774 106.627 14.9297 108.443 13.4546C109.35 12.7231 110.35 12.0865 111.446 11.6552C112.537 11.2187 113.72 10.997 114.899 11.0418C116.077 11.0755 117.239 11.3688 118.31 11.8415C119.383 12.3159 120.37 12.9612 121.275 13.6918C123.086 15.1634 124.585 16.9629 125.915 18.852C128.559 22.6571 130.552 26.8537 132.278 31.1237C133.992 35.4058 135.407 39.7983 136.639 44.2356C137.868 48.6755 138.907 53.1655 139.808 57.6813C143.37 75.7611 144.816 94.2031 144.869 112.61V112.608ZM143.507 112.608C143.524 103.438 143.175 94.2661 142.413 85.1283C141.662 75.9906 140.524 66.8795 138.828 57.8694C137.981 53.3648 136.995 48.886 135.822 44.4564C134.644 40.0295 133.285 35.6473 131.63 31.3782C129.964 27.122 128.03 22.94 125.466 19.1617C124.176 17.2855 122.723 15.5042 120.978 14.055C120.105 13.3347 119.158 12.7015 118.133 12.2357C117.11 11.7751 116.007 11.4731 114.886 11.4438C113.765 11.4084 112.645 11.6336 111.609 12.0606C110.569 12.4833 109.614 13.1044 108.744 13.8221C107.002 15.2696 105.591 17.0897 104.364 19.0038C103.14 20.9266 102.097 22.9659 101.168 25.0526C100.237 27.1401 99.4223 29.2803 98.6787 31.4446C97.1993 35.7776 96.0149 40.2097 95.0031 44.6781C93.9938 49.1483 93.1622 53.6589 92.4557 58.1894C91.0488 67.2513 90.1353 76.3874 89.5573 85.5398C88.9733 94.694 88.7715 103.869 88.7879 113.039C88.7637 122.208 89.0699 131.381 89.7514 140.525C90.4381 149.668 91.4904 158.788 93.0647 167.819C93.854 172.333 94.7753 176.824 95.8795 181.269C96.9854 185.712 98.269 190.113 99.8484 194.405C101.437 198.684 103.294 202.895 105.804 206.688C107.067 208.568 108.505 210.351 110.247 211.765C111.117 212.466 112.064 213.074 113.088 213.489C114.109 213.906 115.204 214.138 116.302 214.101C117.399 214.073 118.48 213.783 119.484 213.323C120.489 212.86 121.417 212.222 122.268 211.495C123.973 210.032 125.379 208.227 126.62 206.33C129.086 202.507 130.917 198.287 132.487 194C134.045 189.701 135.314 185.296 136.409 180.849C137.501 176.402 138.411 171.908 139.193 167.393C140.757 158.361 141.796 149.239 142.486 140.096C143.187 130.953 143.509 121.78 143.506 112.609L143.507 112.608Z" fill="white"/>
</g>
<g style="mix-blend-mode:soft-light">
<path d="M191.294 112.608C191.23 124.459 189.706 136.316 186.534 147.744C183.306 159.146 178.44 170.115 171.834 179.964C168.531 184.882 164.789 189.512 160.607 193.713C156.426 197.912 151.803 201.681 146.786 204.839C141.763 207.985 136.338 210.504 130.66 212.213C124.984 213.926 119.06 214.819 113.129 214.825C107.2 214.825 101.273 213.936 95.5948 212.228C89.9127 210.525 84.4842 208.01 79.456 204.867C74.4329 201.711 69.8032 197.947 65.616 193.748C61.4271 189.55 57.6773 184.92 54.3665 180.002C47.7468 170.152 42.8712 159.178 39.6277 147.77C38.0319 142.056 36.8449 136.229 36.0591 130.35C35.2775 124.469 34.885 118.54 34.8574 112.608C34.8885 106.676 35.2844 100.747 36.0694 94.8683C36.8587 88.9904 38.05 83.1642 39.6502 77.4528C42.9014 66.0497 47.7847 55.0832 54.4088 45.2441C57.7213 40.3297 61.4711 35.706 65.66 31.5128C69.8472 27.3213 74.4735 23.5594 79.4957 20.4143C84.5222 17.2795 89.9498 14.7839 95.6216 13.0803C101.29 11.3697 107.207 10.4777 113.129 10.4717C119.05 10.482 124.966 11.3792 130.631 13.0941C136.3 14.8021 141.724 17.3028 146.744 20.441C151.761 23.5896 156.381 27.355 160.561 31.5473C164.742 35.7423 168.485 40.3668 171.79 45.2812C178.4 55.1194 183.274 66.0808 186.509 77.4786C189.689 88.9024 191.22 100.757 191.292 112.608H191.294ZM189.732 112.608C189.715 100.892 188.255 89.1629 185.165 77.853C182.056 66.5604 177.375 55.6585 170.932 45.8539C167.712 40.9568 164.054 36.3409 159.959 32.1451C155.861 27.9562 151.334 24.1658 146.384 21.0155C141.428 17.8825 136.076 15.361 130.464 13.6556C124.854 11.9485 118.998 11.0514 113.131 11.0324C107.264 11.0565 101.409 11.9588 95.8027 13.6703C90.1939 15.38 84.8457 17.9066 79.8951 21.0431C74.9505 24.1969 70.4303 27.9907 66.3398 32.1813C62.2501 36.3789 58.6003 40.9956 55.3879 45.8928C48.9579 55.6956 44.2868 66.5932 41.1934 77.8797C39.6528 83.5299 38.5365 89.2905 37.7809 95.0951C37.0226 100.9 36.6491 106.754 36.6362 112.609C36.6525 118.465 37.0304 124.317 37.7921 130.121C38.552 135.924 39.6717 141.684 41.2167 147.331C44.3178 158.614 48.9958 169.503 55.431 179.297C58.6452 184.19 62.2958 188.801 66.3846 192.994C70.4752 197.178 74.9919 200.969 79.9356 204.112C84.8853 207.24 90.231 209.747 95.8303 211.457C101.427 213.17 107.272 214.077 113.131 214.106C118.991 214.082 124.838 213.182 130.437 211.473C136.04 209.768 141.39 207.264 146.345 204.14C151.294 200.999 155.817 197.213 159.915 193.029C164.01 188.838 167.668 184.228 170.89 179.336C177.338 169.541 182.026 158.647 185.143 147.359C188.242 136.053 189.709 124.326 189.734 112.61L189.732 112.608Z" fill="white"/>
</g>
<g style="mix-blend-mode:soft-light">
<path d="M21.9189 72.3655C21.862 72.3655 21.8163 72.319 21.8172 72.262C21.8172 72.206 21.8629 72.1602 21.9189 72.1602L45.3927 71.9705L68.8664 71.8626L115.814 71.7764L162.761 71.8721L186.235 71.9894L209.709 72.1939C209.747 72.1939 209.778 72.2249 209.777 72.2638C209.777 72.3017 209.746 72.3319 209.709 72.3319L186.235 72.5363L162.761 72.6537L115.814 72.7494L68.8664 72.6623L45.3927 72.5545L21.9189 72.3647V72.3655Z" fill="white"/>
</g>
<g style="mix-blend-mode:soft-light">
<path d="M49.0493 32.9456C49.0502 32.8904 49.0951 32.8456 49.1503 32.8447C54.7056 32.7567 60.2609 32.7187 65.8162 32.6549L82.4821 32.5471C88.0374 32.5014 93.5927 32.5065 99.148 32.4919L115.814 32.46L149.145 32.5557L165.811 32.673C171.366 32.7429 176.921 32.7834 182.477 32.8775C182.515 32.8775 182.545 32.9094 182.545 32.9473C182.545 32.9844 182.514 33.0146 182.477 33.0155C176.921 33.1095 171.366 33.1509 165.811 33.2199L149.145 33.3372L115.814 33.433L99.148 33.4011C93.5927 33.3873 88.0374 33.3916 82.4821 33.3459L65.8162 33.238C60.2609 33.1742 54.7056 33.1363 49.1503 33.0483C49.0933 33.0474 49.0485 33.0008 49.0493 32.9439V32.9456Z" fill="white"/>
</g>
<g style="mix-blend-mode:soft-light">
<path d="M13.7611 111.683C13.7042 111.683 13.6585 111.636 13.6593 111.579C13.6593 111.523 13.705 111.478 13.7611 111.478L39.2741 111.289L64.7871 111.181L115.813 111.094L166.839 111.19L192.352 111.307L217.865 111.511C217.903 111.511 217.934 111.542 217.933 111.581C217.933 111.619 217.902 111.649 217.865 111.649L192.352 111.854L166.839 111.971L115.813 112.067L64.7871 111.98L39.2741 111.872L13.7611 111.683Z" fill="white"/>
</g>
<g style="mix-blend-mode:soft-light">
<path d="M21.9189 150.793L45.3927 150.603L68.8664 150.495L115.814 150.408L162.761 150.504L186.235 150.621L209.709 150.826C209.747 150.826 209.778 150.858 209.777 150.896C209.777 150.934 209.746 150.964 209.709 150.964L186.235 151.168L162.761 151.286L115.814 151.381L68.8664 151.294L45.3927 151.186L21.9189 150.997C21.862 150.997 21.8163 150.95 21.8172 150.893C21.8172 150.837 21.8629 150.791 21.9189 150.791V150.793Z" fill="white"/>
</g>
<g style="mix-blend-mode:soft-light">
<path d="M186.195 190.212C186.195 190.411 186.033 190.572 185.835 190.572H52.5102C52.311 190.572 52.1505 190.411 52.1505 190.212C52.1505 190.014 52.3118 189.853 52.5102 189.853H185.835C186.034 189.853 186.195 190.014 186.195 190.212Z" fill="white"/>
</g>
</g>
<path d="M214.547 48.2969L101.085 50.205C94.8246 50.3102 89.7463 55.3022 89.5324 61.5597L83.9227 226.201C83.7562 231.097 87.676 235.159 92.5757 235.165L222.659 235.342C227.262 235.348 230.975 231.578 230.898 226.975L228.114 61.4148C227.99 54.0462 221.916 48.1726 214.547 48.2969Z" fill="url(#paint1_linear_2175_220126)"/>
<path d="M203.61 232.925H203.612L218.16 232.492C223.057 232.346 226.974 228.243 226.892 223.344L226.522 201.375C226.519 201.17 226.35 201.007 226.145 201.011C225.937 201.025 225.777 201.183 225.781 201.388L226.151 223.357C226.226 227.852 222.632 231.618 218.138 231.751L203.589 232.184C203.385 232.19 203.224 232.361 203.23 232.566C203.236 232.77 203.406 232.93 203.61 232.925Z" fill="#BDD0FB"/>
<path d="M226.046 194.946C226.249 194.941 226.411 194.773 226.408 194.569L226.348 191.012C226.345 190.807 226.176 190.643 225.971 190.648C225.97 190.648 225.968 190.648 225.968 190.648C225.764 190.653 225.603 190.821 225.606 191.025L225.666 194.582C225.669 194.786 225.837 194.95 226.043 194.946C226.043 194.946 226.045 194.946 226.046 194.946Z" fill="#BDD0FB"/>
<path d="M214.176 46.9691C198.717 49.331 145.545 56.7254 101.436 54.0841C99.4241 53.9633 97.7066 55.5151 97.6333 57.5285L91.6294 222.91C91.5474 225.178 93.3098 227.086 95.5768 227.182C114.122 227.967 190.497 230.922 217.664 227.614C219.318 227.413 220.551 225.996 220.533 224.332L218.636 50.7604C218.61 48.4028 216.506 46.6129 214.176 46.9691H214.176Z" fill="#91B3FA"/>
<path d="M212.588 51.2828C197.712 53.5558 146.541 60.6716 104.093 58.1303C102.158 58.0147 100.504 59.507 100.434 61.4453L94.6572 220.599C94.5779 222.781 96.2738 224.618 98.4562 224.71C116.304 225.466 189.801 228.31 215.947 225.126C217.538 224.932 218.725 223.57 218.708 221.967L216.882 54.9317C216.857 52.663 214.832 50.9403 212.589 51.2828H212.588Z" fill="#BDD0FB"/>
<g opacity="0.6">
<path d="M105.54 72.0809C104.931 72.0912 104.457 71.6013 104.487 70.9931L104.49 70.9163C104.52 70.3073 105.043 69.7975 105.652 69.782L201.951 67.4037C202.56 67.3891 202.755 67.7712 202.384 68.2543L201.347 69.6026C200.975 70.0856 200.173 70.4893 199.564 70.4997L105.54 72.0809Z" fill="white"/>
</g>
<g opacity="0.6">
<path d="M202.058 73.7602C202.667 73.7455 202.862 74.1277 202.49 74.6107L201.454 75.959C201.082 76.4421 200.28 76.8458 199.671 76.8561L105.647 78.4373C105.038 78.4477 104.564 77.9577 104.594 77.3496L104.597 77.2728C104.627 76.6638 105.15 76.154 105.759 76.1384L202.058 73.7602Z" fill="white"/>
</g>
<path d="M183.168 128.805C183.119 123.841 183.132 119.182 183.837 116.729C184.264 115.243 185.737 114.234 187.43 114.26C187.447 114.26 187.464 114.261 187.483 114.262C189.849 114.328 193.872 114.735 197.421 115.093C199.051 115.257 200.532 115.407 201.609 115.496C202.387 115.562 203.102 115.929 203.569 116.502C203.987 117.016 204.175 117.649 204.098 118.285L202.809 128.983C202.609 130.642 201.071 131.885 199.23 131.874L186.459 131.798C186.447 131.798 186.435 131.798 186.423 131.798C184.641 131.771 183.184 130.435 183.168 128.808V128.805ZM201.521 116.534C200.44 116.443 198.953 116.293 197.316 116.128C193.958 115.79 189.781 115.368 187.452 115.302C186.256 115.24 185.134 115.989 184.839 117.016C184.173 119.335 184.161 123.91 184.21 128.794C184.221 129.859 185.218 130.734 186.439 130.753C186.447 130.753 186.456 130.753 186.464 130.753L199.235 130.829C200.545 130.836 201.636 129.988 201.773 128.854L203.062 118.157C203.105 117.804 202.997 117.449 202.76 117.157C202.471 116.802 202.019 116.574 201.52 116.532L201.521 116.534Z" fill="white"/>
<path opacity="0.6" d="M200.133 117.588C197.454 117.363 191.632 116.68 188.867 116.603C187.696 116.57 186.657 117.262 186.366 118.274C185.802 120.239 185.812 124.173 185.848 127.805C185.859 128.892 186.843 129.776 188.063 129.783L198.269 129.844C199.524 129.852 200.579 129.012 200.713 127.9L201.743 119.352C201.85 118.468 201.126 117.671 200.132 117.589L200.133 117.588Z" fill="white"/>
<g opacity="0.6">
<path d="M175.327 120.503C175.936 120.498 176.3 120.974 176.136 121.561L174.952 125.782C174.787 126.369 174.154 126.842 173.545 126.832L109.367 125.833C108.758 125.824 108.277 125.317 108.3 124.708L108.396 122.161C108.419 121.552 108.936 121.05 109.545 121.045L175.327 120.503Z" fill="white"/>
</g>
<path d="M182.428 100.131C182.378 95.1676 182.392 90.5086 183.097 88.0553C183.524 86.569 184.996 85.5597 186.69 85.5865C186.707 85.5865 186.724 85.5873 186.742 85.5882C189.109 85.6546 193.132 86.0609 196.681 86.4189C198.311 86.5837 199.792 86.7329 200.869 86.8235C201.647 86.889 202.361 87.2556 202.829 87.8293C203.247 88.3425 203.435 88.9757 203.358 89.6123L202.069 100.309C201.868 101.969 200.33 103.212 198.49 103.2L185.718 103.124C185.706 103.124 185.695 103.124 185.683 103.124C183.901 103.097 182.445 101.762 182.428 100.134V100.131ZM200.781 87.8603C199.7 87.7689 198.213 87.6197 196.575 87.454C193.218 87.1159 189.04 86.6941 186.712 86.6285C185.516 86.5664 184.393 87.3152 184.098 88.3417C183.432 90.6613 183.42 95.2366 183.47 100.12C183.481 101.186 184.478 102.06 185.699 102.079C185.707 102.079 185.716 102.079 185.724 102.079L198.495 102.155C199.805 102.163 200.896 101.314 201.033 100.18L202.322 89.4829C202.364 89.1301 202.258 88.7747 202.019 88.4832C201.73 88.1278 201.278 87.9 200.78 87.8586L200.781 87.8603Z" fill="white"/>
<path opacity="0.6" d="M199.392 88.913C196.713 88.6879 190.891 88.0055 188.126 87.9279C186.955 87.8951 185.916 88.5869 185.625 89.5988C185.061 91.5638 185.071 95.4983 185.107 99.1299C185.118 100.218 186.102 101.101 187.322 101.109L197.528 101.17C198.783 101.178 199.838 100.338 199.972 99.2257L201.002 90.6779C201.109 89.7937 200.385 88.9984 199.391 88.9147L199.392 88.913Z" fill="white"/>
<g opacity="0.6">
<path d="M174.586 91.8291C175.195 91.824 175.559 92.3001 175.395 92.8867L174.211 97.1084C174.046 97.695 173.413 98.1677 172.804 98.1582L108.627 97.1593C108.018 97.1498 107.537 96.6435 107.56 96.0344L107.656 93.4871C107.679 92.8781 108.196 92.376 108.805 92.3709L174.587 91.8291H174.586Z" fill="white"/>
</g>
<path d="M182.742 156.173C182.693 151.209 182.707 146.55 183.412 144.097C183.839 142.611 185.311 141.601 187.005 141.627C187.022 141.627 187.039 141.628 187.056 141.628C189.423 141.695 193.446 142.101 196.995 142.459C198.625 142.624 200.106 142.773 201.183 142.863C201.961 142.928 202.675 143.295 203.143 143.869C203.561 144.382 203.749 145.015 203.672 145.652L202.383 156.348C202.182 158.008 200.644 159.251 198.804 159.24L186.032 159.164C186.02 159.164 186.009 159.164 185.997 159.164C184.215 159.136 182.758 157.801 182.742 156.173ZM201.096 143.902C200.016 143.811 198.528 143.662 196.89 143.496C193.533 143.158 189.355 142.736 187.027 142.67C185.831 142.621 184.708 143.357 184.413 144.384C183.747 146.703 183.735 151.279 183.784 156.163C183.796 157.229 184.793 158.103 186.013 158.122C186.022 158.122 186.031 158.122 186.038 158.122L198.81 158.198C200.12 158.205 201.211 157.357 201.348 156.223L202.638 145.527C202.68 145.174 202.572 144.818 202.335 144.527C202.045 144.171 201.594 143.944 201.096 143.902Z" fill="white"/>
<path opacity="0.6" d="M199.707 144.956C197.027 144.731 191.206 144.048 188.441 143.971C187.269 143.938 186.231 144.63 185.94 145.642C185.376 147.607 185.385 151.541 185.422 155.173C185.433 156.261 186.417 157.144 187.637 157.152L197.843 157.212C199.098 157.22 200.153 156.381 200.287 155.268L201.317 146.72C201.424 145.836 200.7 145.04 199.706 144.957L199.707 144.956Z" fill="white"/>
<g opacity="0.6">
<path d="M174.901 147.871C175.51 147.866 175.874 148.342 175.71 148.929L174.527 153.15C174.362 153.737 173.729 154.21 173.12 154.2L108.941 153.201C108.332 153.192 107.852 152.685 107.875 152.076L107.971 149.529C107.993 148.92 108.511 148.418 109.12 148.413L174.902 147.871H174.901Z" fill="white"/>
</g>
<path d="M183.528 182.471C183.479 177.507 183.493 172.849 184.198 170.395C184.629 168.893 186.162 167.892 187.842 167.927C190.209 167.993 194.41 168.417 197.786 168.757C199.414 168.921 200.895 169.071 201.969 169.161C202.747 169.227 203.463 169.593 203.929 170.167C204.347 170.68 204.536 171.313 204.459 171.95L203.169 182.646C202.969 184.306 201.43 185.55 199.59 185.538L186.818 185.462C186.807 185.462 186.796 185.462 186.785 185.462C185.002 185.434 183.545 184.098 183.528 182.471ZM201.881 170.201C200.801 170.109 199.316 169.96 197.68 169.795C194.322 169.456 190.142 169.034 187.813 168.97C186.616 168.933 185.494 169.656 185.199 170.683C184.533 173.002 184.521 177.577 184.57 182.461C184.581 183.534 185.621 184.381 186.824 184.421L199.596 184.497C200.907 184.505 201.998 183.656 202.134 182.522L203.424 171.826C203.466 171.473 203.359 171.118 203.121 170.826C202.831 170.471 202.379 170.243 201.881 170.201Z" fill="white"/>
<path opacity="0.6" d="M200.493 171.255C197.813 171.03 191.991 170.347 189.227 170.27C188.055 170.237 187.017 170.929 186.726 171.941C186.162 173.906 186.171 177.84 186.208 181.472C186.219 182.559 187.204 183.443 188.423 183.45L198.628 183.51C199.884 183.518 200.939 182.679 201.073 181.566L202.103 173.018C202.21 172.134 201.485 171.338 200.492 171.255H200.493Z" fill="white"/>
<g opacity="0.6">
<path d="M175.687 174.171C176.296 174.166 176.66 174.642 176.496 175.228L175.313 179.449C175.148 180.036 174.515 180.508 173.906 180.499L109.727 179.5C109.118 179.491 108.638 178.984 108.661 178.375L108.757 175.828C108.779 175.219 109.297 174.717 109.906 174.712L175.688 174.17L175.687 174.171Z" fill="white"/>
</g>
<g opacity="0.6">
<path d="M169.509 201.186C170.118 201.18 170.495 201.657 170.346 202.248L169.284 206.457C169.134 207.048 168.514 207.523 167.904 207.514L110.756 206.624C110.147 206.615 109.665 206.109 109.687 205.5L109.776 202.952C109.798 202.343 110.314 201.839 110.923 201.833L169.509 201.186V201.186Z" fill="white"/>
</g>
<g opacity="0.6">
<path d="M200.881 202.977C201.49 202.95 201.928 203.423 201.855 204.028L201.467 207.229C201.394 207.834 200.836 208.321 200.226 208.312L179.958 207.996C179.349 207.987 178.862 207.48 178.877 206.871L178.921 205.049C178.936 204.44 179.446 203.92 180.054 203.893L200.881 202.977Z" fill="white"/>
</g>
<path d="M150.442 43.1012L163.297 41.7425L164.18 29.9159C164.358 27.536 162.838 25.3518 160.538 24.7152C158.017 24.0173 154.453 24.0208 150.403 26.9408C142.459 32.6677 150.443 43.102 150.443 43.102L150.442 43.1012ZM152.959 33.2155C152.929 31.4428 154.343 29.9815 156.116 29.9513C157.888 29.9211 159.35 31.335 159.38 33.1077C159.409 34.8804 157.997 36.3416 156.224 36.3718C154.451 36.402 152.99 34.989 152.959 33.2155Z" fill="url(#paint2_linear_2175_220126)"/>
<path d="M161.875 37.1216C161.524 37.0957 161.26 36.7895 161.286 36.4384L161.427 34.5544C161.453 34.2025 161.76 33.9394 162.111 33.9661C162.462 33.992 162.725 34.2982 162.699 34.6493L162.559 36.5333C162.54 36.7877 162.374 36.9956 162.152 37.081C162.066 37.1138 161.972 37.1285 161.875 37.1216ZM162.15 33.4313C161.799 33.4054 161.536 33.0992 161.561 32.7481L161.668 31.3178C161.804 29.5003 160.636 27.8311 158.89 27.348C157.498 26.9624 156.068 26.9279 154.641 27.2463C154.296 27.323 153.956 27.1056 153.88 26.7623C153.803 26.4181 154.026 26.0817 154.364 26.0015C155.998 25.6383 157.636 25.678 159.231 26.1197C161.561 26.7649 163.121 28.9913 162.94 31.4136L162.833 32.8438C162.814 33.0983 162.648 33.3062 162.426 33.3916C162.34 33.4244 162.246 33.439 162.149 33.4321L162.15 33.4313Z" fill="#BDD0FB"/>
<path d="M180.996 49.0779L180.895 43.1405C180.861 41.0909 179.135 39.4778 177.088 39.583L136.179 41.674C134.363 41.7663 132.916 43.2259 132.838 45.0417L132.592 50.7523L180.996 49.0788V49.0779Z" fill="url(#paint3_linear_2175_220126)"/>
<path d="M167.374 42.0448C167.577 42.0396 167.739 41.8714 167.734 41.6678C167.731 41.4634 167.563 41.3003 167.358 41.3038L165.597 41.3331C165.384 41.3391 165.229 41.5056 165.233 41.7101C165.236 41.9145 165.405 42.0775 165.61 42.0741L167.37 42.0448C167.37 42.0448 167.373 42.0448 167.374 42.0448Z" fill="#BDD0FB"/>
<path d="M178.973 47.536C179.215 47.4428 179.385 47.2056 179.381 46.9304L179.34 44.5289C179.324 43.5429 178.924 42.6225 178.215 41.9367C177.506 41.2509 176.573 40.8826 175.586 40.899L169.115 41.0085C168.764 41.0154 168.482 41.3044 168.488 41.6572C168.494 42.0092 168.784 42.2895 169.137 42.2843L175.609 42.1748C176.941 42.1524 178.044 43.2186 178.066 44.5513L178.107 46.9529C178.113 47.3048 178.403 47.5852 178.755 47.58C178.832 47.5783 178.905 47.5636 178.974 47.5369L178.973 47.536Z" fill="#BDD0FB"/>
<path d="M193.785 46.6895L122.206 47.8911C119.632 47.9342 117.463 49.8234 117.066 52.3672L117.012 52.7183C116.578 55.5046 118.76 58.0088 121.579 57.9614L195.014 56.727C196.701 56.6985 198.022 55.2657 197.913 53.5818L197.699 50.2978C197.566 48.2439 195.843 46.6558 193.785 46.6903V46.6895Z" fill="url(#paint4_linear_2175_220126)"/>
<path d="M199.901 121.2C199.143 120.601 198.04 120.741 197.457 121.512L194.715 125.138C194.44 125.501 193.869 125.396 193.742 124.959L189.991 112.088C189.804 111.446 188.876 111.525 188.793 112.188C188.331 115.901 188.332 123.081 193.429 129.801C193.429 129.801 196.868 128.989 200.299 123.586C200.795 122.805 200.624 121.774 199.899 121.2H199.901Z" fill="url(#paint5_linear_2175_220126)"/>
<path d="M198.898 90.6844C198.139 90.0849 197.037 90.2255 196.454 90.9967L193.711 94.6223C193.437 94.9855 192.866 94.8803 192.738 94.4438L188.988 81.5725C188.801 80.9308 187.872 81.0092 187.79 81.6726C187.328 85.3853 187.329 92.565 192.425 99.2857C192.425 99.2857 195.865 98.4731 199.296 93.0705C199.792 92.2898 199.62 91.2581 198.896 90.6844H198.898Z" fill="url(#paint6_linear_2175_220126)"/>
<path d="M198.434 147.571C197.676 146.972 196.574 147.112 195.991 147.883L193.248 151.509C192.974 151.872 192.403 151.767 192.275 151.33L188.525 138.459C188.337 137.817 187.409 137.896 187.326 138.559C186.865 142.272 186.866 149.452 191.962 156.172C191.962 156.172 195.401 155.36 198.833 149.957C199.329 149.177 199.157 148.145 198.433 147.571H198.434Z" fill="url(#paint7_linear_2175_220126)"/>
<path d="M199.569 172.663C198.81 172.063 197.708 172.204 197.125 172.975L194.383 176.601C194.108 176.964 193.537 176.859 193.41 176.422L189.659 163.551C189.472 162.909 188.544 162.988 188.461 163.651C187.999 167.364 188 174.543 193.096 181.264C193.096 181.264 196.536 180.452 199.967 175.049C200.463 174.268 200.292 173.237 199.567 172.663H199.569Z" fill="url(#paint8_linear_2175_220126)"/>
<path d="M152.488 237.049C157.926 237.153 162.39 232.773 162.39 227.335V184.102C162.39 178.422 157.825 173.801 152.145 173.739C135.099 173.553 99.9416 173.544 71.1757 175.968C67.2499 176.298 64.1971 179.516 64.0547 183.453L61.3659 225.25C61.1658 230.778 65.5367 235.397 71.0679 235.502L152.488 237.049Z" fill="url(#paint9_linear_2175_220126)"/>
<path d="M152.517 188.78C152.589 192.458 152.48 198.295 152.391 202.066C152.344 204.028 150.622 205.523 148.673 205.295L134.644 203.651C132.776 203.432 131.458 201.709 131.738 199.848L133.46 188.361C133.704 186.729 135.105 185.523 136.754 185.523H149.186C150.998 185.523 152.482 186.968 152.517 188.78Z" fill="white"/>
<path opacity="0.37" d="M115.855 210.549L104.153 211.811C102.516 211.988 101.118 210.637 101.239 208.995L103.798 174.183C108.703 174.028 113.542 173.914 118.211 173.835V207.925C118.211 209.272 117.196 210.403 115.856 210.548L115.855 210.549Z" fill="white"/>
<path d="M111.059 204.517C111.023 205.143 110.504 205.626 109.885 205.626C109.862 205.626 109.839 205.626 109.816 205.623C109.167 205.585 108.671 205.029 108.709 204.38L110.474 173.999C111.265 173.979 112.05 173.962 112.835 173.944L111.06 204.517L111.059 204.517Z" fill="white"/>
<path d="M146.029 199.746C146.234 199.746 146.408 199.587 146.421 199.379L147.028 189.81C147.042 189.593 146.878 189.408 146.66 189.394C146.433 189.377 146.259 189.545 146.245 189.761L145.637 199.33C145.624 199.546 145.788 199.732 146.005 199.746C146.014 199.746 146.022 199.746 146.029 199.746Z" fill="url(#paint10_linear_2175_220126)"/>
<path d="M144.78 199.746C144.99 199.746 145.166 199.579 145.172 199.367L145.491 189.614C145.498 189.398 145.328 189.215 145.111 189.209C144.861 189.197 144.714 189.372 144.706 189.588L144.387 199.341C144.381 199.557 144.551 199.74 144.767 199.746H144.78Z" fill="url(#paint11_linear_2175_220126)"/>
<path d="M143.086 199.746C142.869 199.736 142.702 199.552 142.712 199.336C142.868 196.06 143.164 189.811 143.169 189.598C143.17 189.383 143.345 189.21 143.561 189.21C143.777 189.21 143.954 189.385 143.954 189.602C143.954 189.764 143.572 197.771 143.496 199.373C143.485 199.584 143.313 199.748 143.104 199.748C143.098 199.748 143.092 199.748 143.086 199.748V199.746Z" fill="url(#paint12_linear_2175_220126)"/>
<path d="M140.488 200.139C140.909 200.139 141.257 199.806 141.272 199.382C141.604 189.933 141.545 189.72 141.507 189.579C141.393 189.16 140.959 188.914 140.544 189.028C140.16 189.133 139.92 189.506 139.972 189.89C139.997 190.457 139.822 195.956 139.703 199.328C139.688 199.761 140.027 200.125 140.46 200.139C140.469 200.139 140.479 200.139 140.488 200.139Z" fill="url(#paint13_linear_2175_220126)"/>
<path d="M138.788 199.747C139.005 199.747 139.181 199.572 139.181 199.354V189.785C139.181 189.569 139.006 189.393 138.788 189.393C138.571 189.393 138.396 189.568 138.396 189.785V199.354C138.396 199.571 138.571 199.747 138.788 199.747Z" fill="url(#paint14_linear_2175_220126)"/>
<path d="M137.415 199.746C137.628 199.746 137.803 199.576 137.807 199.363C137.882 196.038 138.058 190.607 138.215 189.954C138.284 189.83 138.284 189.674 138.201 189.546C138.082 189.364 137.839 189.315 137.657 189.433C137.443 189.573 137.241 189.706 137.022 199.344C137.018 199.561 137.19 199.74 137.405 199.746H137.415Z" fill="url(#paint15_linear_2175_220126)"/>
<path d="M148.14 200.618C148.555 200.618 148.901 200.292 148.923 199.873L149.447 189.824C149.469 189.391 149.136 189.023 148.703 189C148.293 188.97 147.902 189.31 147.879 189.743L147.355 199.792C147.333 200.225 147.665 200.593 148.099 200.617C148.112 200.617 148.126 200.617 148.14 200.617V200.618Z" fill="url(#paint16_linear_2175_220126)"/>
<path d="M154.861 167.422V137.062C154.861 133.073 151.655 129.827 147.666 129.784C135.695 129.653 111.005 129.646 90.803 131.349C88.046 131.581 85.9016 133.841 85.8024 136.606L83.9141 165.959C83.7735 169.842 86.8435 173.086 90.7279 173.16L147.908 174.247C151.727 174.319 154.861 171.244 154.861 167.424L154.861 167.422Z" fill="url(#paint17_linear_2175_220126)"/>
<path d="M147.927 140.346C147.978 142.93 147.901 147.029 147.838 149.677C147.805 151.055 146.596 152.105 145.227 151.944L135.375 150.789C134.063 150.636 133.138 149.425 133.334 148.119L134.543 140.051C134.715 138.906 135.699 138.059 136.857 138.059H145.588C146.861 138.059 147.902 139.073 147.927 140.345V140.346Z" fill="white"/>
<path opacity="0.37" d="M122.181 155.636L113.963 156.522C112.813 156.647 111.831 155.698 111.917 154.544L113.713 130.098C117.159 129.988 120.557 129.909 123.835 129.853V153.794C123.835 154.74 123.122 155.535 122.182 155.636L122.181 155.636Z" fill="white"/>
<path d="M118.812 151.399C118.787 151.839 118.423 152.178 117.988 152.178C117.971 152.178 117.955 152.178 117.939 152.176C117.484 152.149 117.135 151.758 117.162 151.303L118.402 129.967C118.957 129.953 119.509 129.941 120.06 129.929L118.812 151.399V151.399Z" fill="white"/>
<path d="M143.37 148.047C143.515 148.047 143.636 147.935 143.646 147.788L144.072 141.068C144.081 140.916 143.967 140.785 143.814 140.775C143.654 140.763 143.531 140.881 143.521 141.033L143.095 147.754C143.086 147.906 143.201 148.037 143.353 148.046C143.359 148.046 143.365 148.046 143.37 148.046V148.047Z" fill="url(#paint18_linear_2175_220126)"/>
<path d="M142.493 148.047C142.641 148.047 142.764 147.93 142.768 147.781L142.992 140.932C142.997 140.779 142.877 140.652 142.725 140.647C142.55 140.638 142.446 140.762 142.441 140.913L142.217 147.763C142.212 147.915 142.332 148.042 142.484 148.047H142.493Z" fill="url(#paint19_linear_2175_220126)"/>
<path d="M141.304 148.046C141.152 148.039 141.034 147.91 141.042 147.758C141.152 145.457 141.36 141.069 141.363 140.919C141.364 140.768 141.487 140.646 141.638 140.646C141.789 140.646 141.913 140.77 141.913 140.922C141.913 141.036 141.645 146.658 141.592 147.784C141.585 147.932 141.463 148.046 141.317 148.046C141.312 148.046 141.308 148.046 141.304 148.046H141.304Z" fill="url(#paint20_linear_2175_220126)"/>
<path d="M139.48 148.323C139.776 148.323 140.02 148.089 140.03 147.792C140.263 141.155 140.223 141.006 140.196 140.907C140.117 140.613 139.81 140.439 139.52 140.52C139.25 140.593 139.081 140.855 139.119 141.124C139.137 141.523 139.013 145.384 138.931 147.752C138.92 148.055 139.157 148.312 139.462 148.322C139.468 148.322 139.476 148.322 139.482 148.322L139.48 148.323Z" fill="url(#paint21_linear_2175_220126)"/>
<path d="M138.286 148.047C138.439 148.047 138.561 147.924 138.561 147.772V141.052C138.561 140.899 138.438 140.776 138.286 140.776C138.134 140.776 138.011 140.9 138.011 141.052V147.772C138.011 147.925 138.134 148.047 138.286 148.047Z" fill="url(#paint22_linear_2175_220126)"/>
<path d="M137.322 148.047C137.471 148.047 137.594 147.928 137.597 147.778C137.65 145.443 137.773 141.629 137.883 141.171C137.932 141.084 137.932 140.974 137.873 140.885C137.789 140.757 137.619 140.723 137.492 140.806C137.342 140.904 137.199 140.997 137.046 147.765C137.042 147.918 137.163 148.044 137.315 148.047H137.321H137.322Z" fill="url(#paint23_linear_2175_220126)"/>
<path d="M144.853 148.659C145.145 148.659 145.388 148.43 145.404 148.136L145.771 141.079C145.787 140.775 145.553 140.516 145.249 140.5C144.961 140.48 144.686 140.719 144.67 141.022L144.303 148.079C144.287 148.384 144.521 148.643 144.825 148.658C144.834 148.658 144.844 148.658 144.854 148.658L144.853 148.659Z" fill="url(#paint24_linear_2175_220126)"/>
<path d="M112.052 230.109V199.748C112.052 195.759 109.281 192.513 105.834 192.47C95.4888 192.34 74.1509 192.333 56.6914 194.036C54.3088 194.268 52.4559 196.528 52.3696 199.293L50.7375 228.646C50.6159 232.529 53.2693 235.772 56.6258 235.846L106.042 236.933C109.343 237.006 112.051 233.93 112.051 230.111L112.052 230.109Z" fill="url(#paint25_linear_2175_220126)"/>
<path d="M106.06 203.033C106.104 205.616 106.038 209.716 105.983 212.364C105.955 213.741 104.909 214.791 103.727 214.631L95.2127 213.476C94.0784 213.322 93.2796 212.112 93.4487 210.805L94.4942 202.738C94.6426 201.592 95.4931 200.745 96.4937 200.745H104.039C105.139 200.745 106.039 201.76 106.06 203.032V203.033Z" fill="white"/>
<path opacity="0.37" d="M83.8088 218.321L76.706 219.208C75.7122 219.332 74.8643 218.383 74.9376 217.23L76.4903 192.783C79.4672 192.674 82.4045 192.594 85.2382 192.538V216.479C85.2382 217.426 84.6223 218.22 83.8088 218.322V218.321Z" fill="white"/>
<path d="M80.8984 214.084C80.8768 214.524 80.5619 214.863 80.1858 214.863C80.172 214.863 80.1582 214.863 80.1436 214.861C79.7493 214.835 79.4491 214.444 79.4716 213.988L80.543 192.652C81.0234 192.638 81.4996 192.626 81.9758 192.614L80.8984 214.085V214.084Z" fill="white"/>
<path d="M102.122 210.735C102.247 210.735 102.352 210.623 102.36 210.477L102.729 203.756C102.737 203.604 102.637 203.473 102.506 203.464C102.368 203.452 102.262 203.57 102.254 203.722L101.885 210.442C101.877 210.594 101.977 210.725 102.108 210.735C102.113 210.735 102.118 210.735 102.122 210.735Z" fill="url(#paint26_linear_2175_220126)"/>
<path d="M101.364 210.735C101.492 210.735 101.598 210.618 101.602 210.468L101.795 203.619C101.8 203.466 101.696 203.34 101.565 203.334C101.413 203.326 101.324 203.449 101.319 203.601L101.126 210.45C101.122 210.603 101.225 210.73 101.356 210.735H101.364Z" fill="url(#paint27_linear_2175_220126)"/>
<path d="M100.336 210.735C100.204 210.728 100.103 210.598 100.109 210.446C100.203 208.146 100.383 203.758 100.386 203.608C100.387 203.457 100.494 203.335 100.624 203.335C100.754 203.335 100.862 203.458 100.862 203.61C100.862 203.724 100.63 209.347 100.584 210.472C100.578 210.621 100.473 210.735 100.346 210.735C100.343 210.735 100.338 210.735 100.335 210.735H100.336Z" fill="url(#paint28_linear_2175_220126)"/>
<path d="M98.7599 211.01C99.0152 211.01 99.2266 210.777 99.2352 210.479C99.4362 203.843 99.4008 203.694 99.3775 203.594C99.3085 203.3 99.0445 203.127 98.7927 203.207C98.5598 203.28 98.414 203.543 98.4459 203.812C98.4614 204.21 98.3544 208.071 98.2828 210.439C98.2734 210.743 98.4795 210.999 98.7418 211.01C98.7469 211.01 98.753 211.01 98.759 211.01L98.7599 211.01Z" fill="url(#paint29_linear_2175_220126)"/>
<path d="M97.7281 210.735C97.8601 210.735 97.9662 210.612 97.9662 210.46V203.739C97.9662 203.586 97.8601 203.464 97.7281 203.464C97.5962 203.464 97.4901 203.587 97.4901 203.739V210.46C97.4901 210.612 97.5962 210.735 97.7281 210.735Z" fill="url(#paint30_linear_2175_220126)"/>
<path d="M96.894 210.735C97.0234 210.735 97.1295 210.616 97.1321 210.466C97.1778 208.131 97.2839 204.316 97.3797 203.858C97.4219 203.772 97.4211 203.661 97.371 203.573C97.2986 203.445 97.1519 203.41 97.0415 203.493C96.9121 203.592 96.7888 203.685 96.6568 210.453C96.6542 210.606 96.7586 210.731 96.8897 210.735H96.8949H96.894Z" fill="url(#paint31_linear_2175_220126)"/>
<path d="M103.403 211.346C103.655 211.346 103.865 211.118 103.879 210.824L104.196 203.767C104.21 203.462 104.008 203.203 103.745 203.188C103.496 203.167 103.258 203.406 103.245 203.71L102.927 210.767C102.913 211.071 103.115 211.33 103.378 211.346C103.387 211.346 103.395 211.346 103.403 211.346V211.346Z" fill="url(#paint32_linear_2175_220126)"/>
<path d="M114.837 100.352L110.564 102.652C105.439 105.772 100.853 107.42 96.7275 108.039C83.8425 109.973 75.444 101.842 69.1865 96.9108C60.9243 90.3997 54.4951 93.5672 54.4951 93.5672L63.306 110.383C76.4644 122.789 89.9559 120.034 98.4614 116.014C103.876 113.455 107.27 110.383 107.27 110.383C116.95 104.611 114.838 100.352 114.838 100.352H114.837Z" fill="url(#paint33_linear_2175_220126)"/>
<path d="M127.425 106.373C127.149 105.456 126.471 104.715 125.582 104.358L116.91 100.87C116.91 100.87 116.779 99.758 118.743 99.0023C120.706 98.2467 120.247 96.0479 120.247 96.0479C120.247 96.0479 117.565 97.2711 113.638 99.212C111.393 100.321 110.133 102.281 109.465 103.756L111.697 106.692C117.042 108.297 122.45 108.604 127.904 107.968L127.425 106.374V106.373Z" fill="url(#paint34_linear_2175_220126)"/>
<path d="M52.5999 228.935C52.5999 228.935 51.94 232.672 51.6165 236.371C51.4897 237.817 52.6042 239.072 54.0543 239.133C58.9808 239.338 69.5177 239.736 73.2995 239.568C73.8679 239.543 74.2397 238.961 74.0292 238.432C73.8533 237.99 73.5134 237.631 73.0795 237.431L55.6735 229.431L52.5999 228.935V228.935Z" fill="url(#paint35_linear_2175_220126)"/>
<path d="M52.0591 226.74L52.5896 231.21C52.5896 231.21 55.639 232.629 57.7205 231.031L56.4576 226.05L52.0591 226.74Z" fill="url(#paint36_linear_2175_220126)"/>
<path d="M51.2077 139.758C50.9782 140.968 51.6183 203.152 57.7205 229.675C57.8197 230.108 58.4511 230.957 58.2337 231.33C57.7041 232.235 53.805 231.981 51.6062 232.058C50.9256 232.082 50.5598 231.282 50.3675 230.604C48.6232 224.45 40.2653 193.618 39.1749 164.166C37.9569 131.255 39.1749 163.045 39.1749 163.045L38.6332 142.195L51.2077 139.757V139.758Z" fill="url(#paint37_linear_2175_220126)"/>
<path d="M32.5776 230.885C32.5776 230.885 31.5269 232.771 30.5099 237.784C30.3261 238.689 30.9584 239.556 31.878 239.646C33.5049 239.806 36.0091 240.012 38.0147 239.998C38.9394 239.992 39.6614 239.187 39.5493 238.269C39.3267 236.439 38.6349 233.437 36.4965 231.097L32.5776 230.885Z" fill="url(#paint38_linear_2175_220126)"/>
<path d="M31.6545 225.135L32.8941 231.895C32.8941 231.895 34.1191 232.807 36.543 232.146L35.9513 224.873L31.6545 225.135Z" fill="url(#paint39_linear_2175_220126)"/>
<path d="M28.6759 142.183C23.6856 173.619 29.3893 222.294 31.4371 231.348C31.5622 231.902 31.9909 232.327 32.5292 232.42C33.4436 232.578 34.9489 232.707 36.4326 232.258C36.9441 232.103 37.303 231.621 37.3237 231.066C37.5989 223.746 37.1037 178.806 41.7541 161.046C41.9896 160.146 42.5167 159.361 43.2447 158.82L50.8971 152.583L51.0394 139.136L28.675 142.183H28.6759Z" fill="url(#paint40_linear_2175_220126)"/>
<path d="M57.2702 91.7485C44.1178 91.5312 29.605 95.2025 29.605 95.2025C26.3736 114.059 27.6709 134.958 28.3438 141.84C28.4818 143.252 27.727 144.745 29.1262 144.971C36.0082 146.083 46.8255 144.951 50.1863 143.974C51.4147 143.617 51.2059 142.31 51.4673 141.057C53.7239 130.233 60.1772 106.361 60.1772 106.361C63.306 110.385 67.7192 116.016 74.2449 117.514C70.9195 113.659 77.2977 105.576 76.6171 102.676C70.7176 96.0479 61.3271 91.815 57.271 91.7485H57.2702Z" fill="url(#paint41_linear_2175_220126)"/>
<path d="M43.947 81.0693L39.7624 93.172C39.6933 93.3721 39.7753 93.5946 39.9608 93.6973C41.1012 94.3279 45.2116 96.1515 50.1647 93.0107C50.6806 92.6837 51.0317 92.1498 51.1102 91.5442L52.4654 81.0693H43.947Z" fill="url(#paint42_linear_2175_220126)"/>
<path d="M53.0528 69.8623C53.0528 69.8623 57.648 78.5127 57.0597 82.0072C56.4706 85.5017 50.7755 85.2507 45.8016 82.4126L42.3261 73.0721L53.0528 69.8623Z" fill="url(#paint43_linear_2175_220126)"/>
<path d="M46.0216 77.8261C46.2234 77.7364 46.2985 77.4888 46.1769 77.3042C45.8085 76.7418 45.1184 75.5945 44.8984 74.5896C44.8984 74.5896 44.072 74.0608 47.0015 73.3595C48.5965 72.9773 51.4233 72.6616 52.6664 71.5152C54.0569 70.2324 51.4932 67.8076 50.4149 67.1572C48.9925 66.298 47.2603 65.7899 45.6558 66.223C44.8812 66.4317 44.1807 66.8458 43.4915 67.2547C42.3166 67.9517 41.1012 68.6866 40.3541 69.8305C39.8702 70.5706 39.6175 71.4341 39.3854 72.2872C39.0524 73.513 38.7471 74.7681 38.8049 76.037C38.9593 79.4177 42.9213 82.4463 46.107 82.8164C46.3675 82.8466 46.5693 82.5895 46.4839 82.3411L45.1814 78.555C45.121 78.3791 45.2047 78.1867 45.3746 78.1108L46.0207 77.8244L46.0216 77.8261Z" fill="url(#paint44_linear_2175_220126)"/>
<path d="M46.5452 78.3635C46.5452 78.3635 43.2733 76.119 43.0343 78.009C42.7954 79.8998 45.9811 80.7469 47.5588 80.0422L46.5452 78.3626V78.3635Z" fill="url(#paint45_linear_2175_220126)"/>
<path d="M54.7271 67.7404C48.0133 55.0589 30.6125 66.5793 38.7108 77.262C44.7319 73.2586 51.5354 67.3073 54.7271 67.7404Z" fill="url(#paint46_linear_2175_220126)"/>
<path d="M44.2411 73.1124L56.2971 72.7398C56.6034 72.7303 56.8829 72.5612 57.0312 72.2929C58.1112 70.3425 59.6916 69.1003 61.6678 68.418C61.918 68.3317 61.8662 67.9634 61.6023 67.9453L54.2113 67.4424C54.2027 67.4424 54.1949 67.4424 54.1863 67.4424C50.5029 67.7253 47.2422 69.9414 44.1315 72.845C44.028 72.9416 44.0996 73.1167 44.242 73.1124H44.2411Z" fill="url(#paint47_linear_2175_220126)"/>
<path d="M31.0938 114.398C38.4555 106.133 37.7093 99.7711 29.4005 95.1914C29.4005 95.1914 15.6279 104.549 13.3635 116.414C15.966 116.605 20.7009 117.282 25.3358 119.623C26.3546 114.021 31.0938 114.399 31.0938 114.399V114.398Z" fill="url(#paint48_linear_2175_220126)"/>
<path d="M47.0921 122.903C47.0921 122.903 31.6295 131.642 26.4115 124.179C25.3281 122.63 25.0693 121.09 25.3358 119.622C20.7009 117.282 15.966 116.605 13.3635 116.413C12.6803 119.99 13.0417 123.794 15.143 127.638C24.2817 144.356 49.1374 126.715 49.1374 126.715L47.0912 122.902L47.0921 122.903Z" fill="url(#paint49_linear_2175_220126)"/>
<path d="M45.234 133.958L53.673 104.487C53.7688 104.153 54.0543 103.909 54.4002 103.869C55.9288 103.69 60.3601 103.19 65.4755 102.757C71.6372 102.236 78.7927 101.813 83.0687 102.173C83.6768 102.224 84.0434 102.867 83.7734 103.414C81.3417 108.334 71.3404 128.344 66.3312 134.899C66.1656 135.117 65.9085 135.243 65.635 135.241L46.0552 135.059C45.4859 135.054 45.077 134.507 45.234 133.959V133.958Z" fill="url(#paint50_linear_2175_220126)"/>
<path d="M66.3502 100.201L72.4687 99.181C72.7948 99.1267 73.0614 99.4381 72.9579 99.7521L72.3523 101.588C72.2997 101.747 72.1599 101.863 71.9934 101.885L66.106 102.672C65.8015 102.713 65.5505 102.436 65.6204 102.136L65.9956 100.534C66.0362 100.361 66.1759 100.23 66.351 100.201H66.3502Z" fill="url(#paint51_linear_2175_220126)"/>
<path d="M61.7687 105.381L62.2725 102.755C62.3234 102.492 62.5408 102.293 62.8073 102.266L75.1653 101.012C75.5811 100.97 75.9141 101.351 75.8166 101.757L75.0307 105.029C74.9678 105.291 74.74 105.48 74.4709 105.493L62.395 106.101C62.0017 106.121 61.6946 105.768 61.7687 105.381Z" fill="url(#paint52_linear_2175_220126)"/>
<path d="M47.2732 126.837C47.2732 126.837 46.0975 122.003 46.5719 120.288C47.0463 118.573 47.965 116.369 51.0274 116.858C54.0897 117.348 57.7023 118.638 57.7023 118.638C57.7023 118.638 57.5195 120.872 55.1921 120.151L56.6353 121.268C56.6353 121.268 56.4291 123.056 54.4632 122.102L55.8054 123.583C55.8054 123.583 54.9609 125.052 53.5143 124.11C52.0677 123.168 51.375 127.42 47.2724 126.837H47.2732Z" fill="url(#paint53_linear_2175_220126)"/>
<path d="M42.3727 108.436C41.4074 108.513 33.2435 108.775 33.2435 108.775L33.5731 116.994L37.8025 119.379L42.3727 116.994V108.436Z" fill="url(#paint54_linear_2175_220126)"/>
<path d="M43.0214 108.436L33.2616 108.775L32.8631 111.928L37.9422 113.247L43.3405 110.841L43.0214 108.436Z" fill="url(#paint55_linear_2175_220126)"/>
<path d="M72.2255 20.7166L64.9571 16.0369C64.8078 15.9403 64.6267 15.9049 64.4516 15.9377L54.8609 17.7328C54.6021 17.7811 54.3933 17.9709 54.32 18.2237C54.2467 18.4764 54.3217 18.7481 54.5141 18.9276L60.1522 24.1732L72.2247 20.7166H72.2255Z" fill="url(#paint56_linear_2175_220126)"/>
<path d="M8.43444 28.0943C8.43444 28.0943 97.7747 13.6669 101.23 14.8392C104.687 16.0107 110.836 19.8045 112.667 19.8433C114.498 19.8821 120.884 21.1157 119.14 25.6591C117.396 30.2026 43.2974 42.9349 34.7523 39.8243C26.2071 36.7137 4.53107 30.7616 4.53107 30.7616C4.53107 30.7616 2.5824 27.6061 8.43444 28.0952V28.0943Z" fill="url(#paint57_linear_2175_220126)"/>
<path d="M34.289 24.2469L21.5998 16.8982C20.8045 16.4376 20.1541 15.763 19.7227 14.9504L14.7049 5.49777C14.3072 4.74901 13.467 4.34616 12.6337 4.50661C9.96819 5.0216 4.43618 6.16371 4.39908 6.78825C4.34991 7.61206 6.67814 28.3461 6.67814 28.3461L34.289 24.2469Z" fill="url(#paint58_linear_2175_220126)"/>
<path d="M9.21422 31.0718L8.07125 35.4151C7.87802 36.1483 8.03243 36.8997 8.48876 37.5044C8.94509 38.1091 9.65416 38.4429 10.4115 38.4584L14.9377 38.5533C15.6529 38.568 16.3386 38.3023 16.8191 37.7735L25.0641 28.7168L9.21336 31.0709L9.21422 31.0718Z" fill="url(#paint59_linear_2175_220126)"/>
<path d="M55.6079 46.475C55.6079 46.475 58.2838 49.8979 62.7478 49.9911C67.2111 50.0851 72.731 48.9646 73.7946 47.4067C74.8582 45.8488 77.3003 34.2275 68.2005 35.7164C59.1007 37.2053 48.4145 42.2706 55.6088 46.475H55.6079Z" fill="url(#paint60_linear_2175_220126)"/>
<path d="M50.7789 34.3188L72.0081 31.0176L53.7886 53.4907C53.5333 53.8055 53.158 53.9996 52.7526 54.0255L40.0591 54.8329C39.5096 54.8674 38.9877 54.5888 38.7108 54.1126C38.4339 53.6365 38.4512 53.0447 38.7539 52.5849L50.7781 34.3188H50.7789Z" fill="url(#paint61_linear_2175_220126)"/>
<path d="M72.6232 47.7038C72.6776 47.7168 72.7302 47.7194 72.7819 47.7142C73.0657 47.6823 73.3547 47.3941 73.6428 46.8585C74.5667 45.1358 75.2042 41.4205 73.7308 38.5557C73.2943 37.7077 72.4671 37.1522 71.5173 37.0668C70.7375 36.9987 69.736 37.2109 69.3927 38.6161C68.8544 40.8175 70.8773 45.9544 72.0539 47.2924C72.2609 47.5279 72.449 47.6642 72.6232 47.7047V47.7038ZM71.8029 37.5016C72.4774 37.6577 73.0675 38.1089 73.3884 38.7317C74.7824 41.442 74.1621 45.0737 73.303 46.6756C73.0545 47.1397 72.844 47.3182 72.7397 47.3303C72.7259 47.332 72.606 47.3355 72.3437 47.037C71.1205 45.6456 69.2926 40.6527 69.7679 38.7075C69.9939 37.7811 70.5555 37.3704 71.4837 37.4515C71.5915 37.461 71.6985 37.4783 71.8029 37.5024V37.5016Z" fill="url(#paint62_linear_2175_220126)"/>
<path d="M4.81226 11.7051L7.01022 11.7508L8.77516 25.8228L6.45383 26.3136L4.81226 11.7051Z" fill="url(#paint63_linear_2175_220126)"/>
<path d="M40.5784 29.335C40.5939 28.6121 41.1917 28.0385 41.9146 28.054L41.9974 28.0557C42.7203 28.0713 43.294 28.6691 43.2784 29.392L43.2603 30.2468C43.2448 30.9697 42.647 31.5433 41.9241 31.5278L41.8413 31.5261C41.1184 31.5106 40.5448 30.9128 40.5603 30.1899L40.5784 29.335Z" fill="url(#paint64_linear_2175_220126)"/>
<path d="M45.6023 29.0538C45.6179 28.3309 46.2157 27.7572 46.9386 27.7728L47.0214 27.7745C47.7442 27.79 48.3179 28.3878 48.3032 29.1107L48.2851 29.9656C48.2696 30.6884 47.6718 31.2621 46.9489 31.2466L46.8652 31.2448C46.1424 31.2293 45.5687 30.6315 45.5842 29.9086L45.6023 29.0538Z" fill="url(#paint65_linear_2175_220126)"/>
<path d="M50.6435 28.002C50.6591 27.2791 51.2569 26.7055 51.9797 26.721L52.0634 26.7227C52.7863 26.7383 53.3599 27.3361 53.3444 28.0589L53.3263 28.9138C53.3108 29.6367 52.713 30.2103 51.9901 30.1948L51.9073 30.1931C51.1844 30.1775 50.6108 29.5797 50.6263 28.8569L50.6444 28.002H50.6435Z" fill="url(#paint66_linear_2175_220126)"/>
<path d="M55.2896 27.3272C55.3051 26.6043 55.9029 26.0307 56.6258 26.0462L56.7086 26.0479C57.4315 26.0635 58.0051 26.6613 57.9896 27.3841L57.9715 28.239C57.956 28.9619 57.3582 29.5355 56.6353 29.52L56.5525 29.5183C55.8296 29.5027 55.256 28.9049 55.2715 28.1821L55.2896 27.3272Z" fill="url(#paint67_linear_2175_220126)"/>
<path d="M60.7077 26.669C60.7233 25.9461 61.3211 25.3725 62.0439 25.388L62.1276 25.3897C62.8505 25.4053 63.4242 26.0031 63.4086 26.7259L63.3905 27.5808C63.375 28.3037 62.7772 28.8773 62.0543 28.8618L61.9715 28.8601C61.2486 28.8445 60.675 28.2467 60.6905 27.5239L60.7086 26.669H60.7077Z" fill="url(#paint68_linear_2175_220126)"/>
<path d="M65.7403 26.003C65.7558 25.2801 66.3536 24.7065 67.0765 24.722L67.1593 24.7237C67.8822 24.7392 68.4558 25.337 68.4403 26.0599L68.4222 26.9148C68.4067 27.6377 67.8089 28.2113 67.086 28.1958L67.0032 28.1941C66.2803 28.1785 65.7066 27.5807 65.7222 26.8578L65.7403 26.003Z" fill="url(#paint69_linear_2175_220126)"/>
<path d="M70.7815 24.9502C70.797 24.2274 71.3948 23.6537 72.1177 23.6693L72.2005 23.671C72.9234 23.6865 73.497 24.2843 73.4815 25.0072L73.4634 25.862C73.4479 26.5849 72.8501 27.1586 72.1272 27.143L72.0444 27.1413C71.3215 27.1258 70.7478 26.528 70.7634 25.8051L70.7815 24.9502Z" fill="url(#paint70_linear_2175_220126)"/>
<path d="M75.4198 24.6622C75.4353 23.9393 76.0331 23.3656 76.756 23.3812L76.8388 23.3829C77.5617 23.3984 78.1353 23.9962 78.1198 24.7191L78.1017 25.574C78.0862 26.2968 77.4884 26.8705 76.7655 26.8558L76.6818 26.8541C75.9589 26.8386 75.3853 26.2408 75.4008 25.5179L75.4189 24.663L75.4198 24.6622Z" fill="#0046CD"/>
<path d="M80.4524 23.9961C80.4679 23.2733 81.0657 22.6996 81.7886 22.7152L81.8714 22.7169C82.5943 22.7324 83.1679 23.3302 83.1524 24.0531L83.1343 24.9079C83.1187 25.6308 82.521 26.2045 81.7981 26.1889L81.7153 26.1872C80.9924 26.1717 80.4187 25.5739 80.4343 24.851L80.4524 23.9961Z" fill="#0046CD"/>
<path d="M85.4764 23.8002L85.4943 22.9455C85.5094 22.2228 86.1082 21.6486 86.8309 21.6638L86.9146 21.6655C87.6373 21.6807 88.2114 22.2794 88.1963 23.0021L88.1784 23.8577C88.1633 24.5795 87.5645 25.1537 86.8427 25.1386L86.759 25.1368C86.0363 25.1217 85.4621 24.5229 85.4773 23.8002L85.4764 23.8002Z" fill="url(#paint71_linear_2175_220126)"/>
<path d="M90.131 22.6553C90.1466 21.9324 90.7444 21.3588 91.4672 21.3743L91.5501 21.3761C92.2729 21.3916 92.8466 21.9894 92.831 22.7123L92.8129 23.5671C92.7974 24.29 92.1996 24.8636 91.4767 24.8481L91.3939 24.8464C90.671 24.8309 90.0974 24.2331 90.1129 23.5102L90.131 22.6553Z" fill="url(#paint72_linear_2175_220126)"/>
<path d="M107.39 17.7216L98.5373 19.9808C97.8722 20.1507 97.4219 20.7718 97.4685 21.4559C97.5237 22.2693 97.6272 23.1906 97.8101 23.1164C98.1336 22.9862 112.005 19.7712 112.005 19.7712L107.39 17.7207V17.7216Z" fill="url(#paint73_linear_2175_220126)"/>
</g>
<defs>
<linearGradient id="paint0_linear_2175_220126" x1="272.096" y1="310.824" x2="59.4432" y2="46.722" gradientUnits="userSpaceOnUse">
<stop stop-color="#DAE3FE"/>
<stop offset="1" stop-color="#E9EFFD"/>
</linearGradient>
<linearGradient id="paint1_linear_2175_220126" x1="83.9175" y1="141.818" x2="230.899" y2="141.818" gradientUnits="userSpaceOnUse">
<stop stop-color="#4F52FF"/>
<stop offset="1" stop-color="#4042E2"/>
</linearGradient>
<linearGradient id="paint2_linear_2175_220126" x1="157.674" y1="3.42414" x2="151.236" y2="88.028" gradientUnits="userSpaceOnUse">
<stop stop-color="#09005D"/>
<stop offset="1" stop-color="#1A0F91"/>
</linearGradient>
<linearGradient id="paint3_linear_2175_220126" x1="131.787" y1="14.6533" x2="185.124" y2="82.4289" gradientUnits="userSpaceOnUse">
<stop stop-color="#09005D"/>
<stop offset="1" stop-color="#1A0F91"/>
</linearGradient>
<linearGradient id="paint4_linear_2175_220126" x1="138.434" y1="18.7428" x2="175.577" y2="84.3042" gradientUnits="userSpaceOnUse">
<stop stop-color="#09005D"/>
<stop offset="1" stop-color="#1A0F91"/>
</linearGradient>
<linearGradient id="paint5_linear_2175_220126" x1="173.693" y1="70.4889" x2="216.957" y2="175.319" gradientUnits="userSpaceOnUse">
<stop stop-color="#FF928E"/>
<stop offset="1" stop-color="#FE7062"/>
</linearGradient>
<linearGradient id="paint6_linear_2175_220126" x1="172.688" y1="39.9767" x2="215.952" y2="144.808" gradientUnits="userSpaceOnUse">
<stop stop-color="#FF928E"/>
<stop offset="1" stop-color="#FE7062"/>
</linearGradient>
<linearGradient id="paint7_linear_2175_220126" x1="172.228" y1="96.8577" x2="215.493" y2="201.689" gradientUnits="userSpaceOnUse">
<stop stop-color="#FF928E"/>
<stop offset="1" stop-color="#FE7062"/>
</linearGradient>
<linearGradient id="paint8_linear_2175_220126" x1="173.363" y1="121.947" x2="216.628" y2="226.778" gradientUnits="userSpaceOnUse">
<stop stop-color="#FF928E"/>
<stop offset="1" stop-color="#FE7062"/>
</linearGradient>
<linearGradient id="paint9_linear_2175_220126" x1="242.044" y1="141.715" x2="193.274" y2="166.099" gradientUnits="userSpaceOnUse">
<stop stop-color="#FF928E"/>
<stop offset="1" stop-color="#FE7062"/>
</linearGradient>
<linearGradient id="paint10_linear_2175_220126" x1="141.588" y1="187.675" x2="166.7" y2="224.166" gradientUnits="userSpaceOnUse">
<stop stop-color="#09005D"/>
<stop offset="1" stop-color="#1A0F91"/>
</linearGradient>
<linearGradient id="paint11_linear_2175_220126" x1="140.686" y1="188.297" x2="165.798" y2="224.788" gradientUnits="userSpaceOnUse">
<stop stop-color="#09005D"/>
<stop offset="1" stop-color="#1A0F91"/>
</linearGradient>
<linearGradient id="paint12_linear_2175_220126" x1="139.597" y1="189.047" x2="164.709" y2="225.538" gradientUnits="userSpaceOnUse">
<stop stop-color="#09005D"/>
<stop offset="1" stop-color="#1A0F91"/>
</linearGradient>
<linearGradient id="paint13_linear_2175_220126" x1="137.712" y1="190.344" x2="162.823" y2="226.835" gradientUnits="userSpaceOnUse">
<stop stop-color="#09005D"/>
<stop offset="1" stop-color="#1A0F91"/>
</linearGradient>
<linearGradient id="paint14_linear_2175_220126" x1="136.469" y1="191.199" x2="161.581" y2="227.69" gradientUnits="userSpaceOnUse">
<stop stop-color="#09005D"/>
<stop offset="1" stop-color="#1A0F91"/>
</linearGradient>
<linearGradient id="paint15_linear_2175_220126" x1="135.697" y1="191.729" x2="160.809" y2="228.219" gradientUnits="userSpaceOnUse">
<stop stop-color="#09005D"/>
<stop offset="1" stop-color="#1A0F91"/>
</linearGradient>
<linearGradient id="paint16_linear_2175_220126" x1="142.881" y1="186.786" x2="167.992" y2="223.277" gradientUnits="userSpaceOnUse">
<stop stop-color="#09005D"/>
<stop offset="1" stop-color="#1A0F91"/>
</linearGradient>
<linearGradient id="paint17_linear_2175_220126" x1="138.531" y1="119.281" x2="105.873" y2="178.5" gradientUnits="userSpaceOnUse">
<stop stop-color="#FF928E"/>
<stop offset="1" stop-color="#FE7062"/>
</linearGradient>
<linearGradient id="paint18_linear_2175_220126" x1="140.253" y1="139.57" x2="157.888" y2="165.197" gradientUnits="userSpaceOnUse">
<stop stop-color="#09005D"/>
<stop offset="1" stop-color="#1A0F91"/>
</linearGradient>
<linearGradient id="paint19_linear_2175_220126" x1="139.619" y1="140.007" x2="157.254" y2="165.634" gradientUnits="userSpaceOnUse">
<stop stop-color="#09005D"/>
<stop offset="1" stop-color="#1A0F91"/>
</linearGradient>
<linearGradient id="paint20_linear_2175_220126" x1="138.854" y1="140.533" x2="156.489" y2="166.16" gradientUnits="userSpaceOnUse">
<stop stop-color="#09005D"/>
<stop offset="1" stop-color="#1A0F91"/>
</linearGradient>
<linearGradient id="paint21_linear_2175_220126" x1="137.53" y1="141.444" x2="155.165" y2="167.071" gradientUnits="userSpaceOnUse">
<stop stop-color="#09005D"/>
<stop offset="1" stop-color="#1A0F91"/>
</linearGradient>
<linearGradient id="paint22_linear_2175_220126" x1="136.657" y1="142.044" x2="154.293" y2="167.671" gradientUnits="userSpaceOnUse">
<stop stop-color="#09005D"/>
<stop offset="1" stop-color="#1A0F91"/>
</linearGradient>
<linearGradient id="paint23_linear_2175_220126" x1="136.116" y1="142.418" x2="153.751" y2="168.044" gradientUnits="userSpaceOnUse">
<stop stop-color="#09005D"/>
<stop offset="1" stop-color="#1A0F91"/>
</linearGradient>
<linearGradient id="paint24_linear_2175_220126" x1="141.16" y1="138.946" x2="158.796" y2="164.573" gradientUnits="userSpaceOnUse">
<stop stop-color="#09005D"/>
<stop offset="1" stop-color="#1A0F91"/>
</linearGradient>
<linearGradient id="paint25_linear_2175_220126" x1="110.435" y1="188.036" x2="56.8768" y2="239.418" gradientUnits="userSpaceOnUse">
<stop stop-color="#FF928E"/>
<stop offset="1" stop-color="#FE7062"/>
</linearGradient>
<linearGradient id="paint26_linear_2175_220126" x1="98.9695" y1="202.25" x2="116.634" y2="227.919" gradientUnits="userSpaceOnUse">
<stop stop-color="#09005D"/>
<stop offset="1" stop-color="#1A0F91"/>
</linearGradient>
<linearGradient id="paint27_linear_2175_220126" x1="98.4769" y1="202.699" x2="116.094" y2="228.299" gradientUnits="userSpaceOnUse">
<stop stop-color="#09005D"/>
<stop offset="1" stop-color="#1A0F91"/>
</linearGradient>
<linearGradient id="paint28_linear_2175_220126" x1="97.861" y1="203.22" x2="115.503" y2="228.855" gradientUnits="userSpaceOnUse">
<stop stop-color="#09005D"/>
<stop offset="1" stop-color="#1A0F91"/>
</linearGradient>
<linearGradient id="paint29_linear_2175_220126" x1="96.8069" y1="204.146" x2="114.358" y2="229.648" gradientUnits="userSpaceOnUse">
<stop stop-color="#09005D"/>
<stop offset="1" stop-color="#1A0F91"/>
</linearGradient>
<linearGradient id="paint30_linear_2175_220126" x1="96.1055" y1="204.741" x2="113.675" y2="230.271" gradientUnits="userSpaceOnUse">
<stop stop-color="#09005D"/>
<stop offset="1" stop-color="#1A0F91"/>
</linearGradient>
<linearGradient id="paint31_linear_2175_220126" x1="95.6665" y1="205.105" x2="113.307" y2="230.738" gradientUnits="userSpaceOnUse">
<stop stop-color="#09005D"/>
<stop offset="1" stop-color="#1A0F91"/>
</linearGradient>
<linearGradient id="paint32_linear_2175_220126" x1="99.6949" y1="201.647" x2="117.286" y2="227.209" gradientUnits="userSpaceOnUse">
<stop stop-color="#09005D"/>
<stop offset="1" stop-color="#1A0F91"/>
</linearGradient>
<linearGradient id="paint33_linear_2175_220126" x1="123.771" y1="48.527" x2="18.7126" y2="182.94" gradientUnits="userSpaceOnUse">
<stop stop-color="#FEBBBA"/>
<stop offset="1" stop-color="#FF928E"/>
</linearGradient>
<linearGradient id="paint34_linear_2175_220126" x1="135.847" y1="83.6511" x2="76.6741" y2="159.357" gradientUnits="userSpaceOnUse">
<stop stop-color="#FEBBBA"/>
<stop offset="1" stop-color="#FF928E"/>
</linearGradient>
<linearGradient id="paint35_linear_2175_220126" x1="65.9939" y1="220.994" x2="62.1104" y2="239.88" gradientUnits="userSpaceOnUse">
<stop stop-color="#4F52FF"/>
<stop offset="1" stop-color="#4042E2"/>
</linearGradient>
<linearGradient id="paint36_linear_2175_220126" x1="52.0591" y1="228.92" x2="57.7205" y2="228.92" gradientUnits="userSpaceOnUse">
<stop stop-color="#FEBBBA"/>
<stop offset="1" stop-color="#FF928E"/>
</linearGradient>
<linearGradient id="paint37_linear_2175_220126" x1="26.0561" y1="78.4475" x2="54.3045" y2="201.229" gradientUnits="userSpaceOnUse">
<stop stop-color="#09005D"/>
<stop offset="1" stop-color="#1A0F91"/>
</linearGradient>
<linearGradient id="paint38_linear_2175_220126" x1="34.8652" y1="221.977" x2="35.0421" y2="240.687" gradientUnits="userSpaceOnUse">
<stop stop-color="#4F52FF"/>
<stop offset="1" stop-color="#4042E2"/>
</linearGradient>
<linearGradient id="paint39_linear_2175_220126" x1="31.6545" y1="228.63" x2="36.543" y2="228.63" gradientUnits="userSpaceOnUse">
<stop stop-color="#FEBBBA"/>
<stop offset="1" stop-color="#FF928E"/>
</linearGradient>
<linearGradient id="paint40_linear_2175_220126" x1="16.663" y1="78.4216" x2="45.2745" y2="202.784" gradientUnits="userSpaceOnUse">
<stop stop-color="#09005D"/>
<stop offset="1" stop-color="#1A0F91"/>
</linearGradient>
<linearGradient id="paint41_linear_2175_220126" x1="117.281" y1="185.427" x2="181.71" y2="246.965" gradientUnits="userSpaceOnUse">
<stop stop-color="#09005D"/>
<stop offset="1" stop-color="#1A0F91"/>
</linearGradient>
<linearGradient id="paint42_linear_2175_220126" x1="39.7373" y1="87.9341" x2="52.4654" y2="87.9341" gradientUnits="userSpaceOnUse">
<stop stop-color="#FEBBBA"/>
<stop offset="1" stop-color="#FF928E"/>
</linearGradient>
<linearGradient id="paint43_linear_2175_220126" x1="55.4774" y1="79.8342" x2="41.4833" y2="71.297" gradientUnits="userSpaceOnUse">
<stop stop-color="#FEBBBA"/>
<stop offset="1" stop-color="#FF928E"/>
</linearGradient>
<linearGradient id="paint44_linear_2175_220126" x1="35.7791" y1="65.8815" x2="50.976" y2="77.8857" gradientUnits="userSpaceOnUse">
<stop stop-color="#09005D"/>
<stop offset="1" stop-color="#1A0F91"/>
</linearGradient>
<linearGradient id="paint45_linear_2175_220126" x1="51.8015" y1="83.0168" x2="39.2103" y2="75.3364" gradientUnits="userSpaceOnUse">
<stop stop-color="#FEBBBA"/>
<stop offset="1" stop-color="#FF928E"/>
</linearGradient>
<linearGradient id="paint46_linear_2175_220126" x1="770.263" y1="696.814" x2="794.493" y2="717.74" gradientUnits="userSpaceOnUse">
<stop stop-color="#09005D"/>
<stop offset="1" stop-color="#1A0F91"/>
</linearGradient>
<linearGradient id="paint47_linear_2175_220126" x1="59.4819" y1="64.9373" x2="35.2517" y2="85.8646" gradientUnits="userSpaceOnUse">
<stop stop-color="#09005D"/>
<stop offset="1" stop-color="#1A0F91"/>
</linearGradient>
<linearGradient id="paint48_linear_2175_220126" x1="111.535" y1="191.442" x2="175.964" y2="252.98" gradientUnits="userSpaceOnUse">
<stop stop-color="#09005D"/>
<stop offset="1" stop-color="#1A0F91"/>
</linearGradient>
<linearGradient id="paint49_linear_2175_220126" x1="13.0503" y1="125.625" x2="49.1382" y2="125.625" gradientUnits="userSpaceOnUse">
<stop stop-color="#FEBBBA"/>
<stop offset="1" stop-color="#FF928E"/>
</linearGradient>
<linearGradient id="paint50_linear_2175_220126" x1="113.618" y1="72.2529" x2="87.4914" y2="95.3307" gradientUnits="userSpaceOnUse">
<stop stop-color="#FF928E"/>
<stop offset="1" stop-color="#FE7062"/>
</linearGradient>
<linearGradient id="paint51_linear_2175_220126" x1="68.5662" y1="104.125" x2="64.3394" y2="122.683" gradientUnits="userSpaceOnUse">
<stop stop-color="#FF928E"/>
<stop offset="1" stop-color="#FE7062"/>
</linearGradient>
<linearGradient id="paint52_linear_2175_220126" x1="67.4914" y1="111.382" x2="65.4703" y2="123.509" gradientUnits="userSpaceOnUse">
<stop stop-color="#FF928E"/>
<stop offset="1" stop-color="#FE7062"/>
</linearGradient>
<linearGradient id="paint53_linear_2175_220126" x1="46.4589" y1="121.84" x2="57.7023" y2="121.84" gradientUnits="userSpaceOnUse">
<stop stop-color="#FEBBBA"/>
<stop offset="1" stop-color="#FF928E"/>
</linearGradient>
<linearGradient id="paint54_linear_2175_220126" x1="36.2144" y1="85.8141" x2="38.9679" y2="127.943" gradientUnits="userSpaceOnUse">
<stop stop-color="#09005D"/>
<stop offset="1" stop-color="#1A0F91"/>
</linearGradient>
<linearGradient id="paint55_linear_2175_220126" x1="18.8825" y1="83.6144" x2="37.0555" y2="108.946" gradientUnits="userSpaceOnUse">
<stop stop-color="#09005D"/>
<stop offset="1" stop-color="#1A0F91"/>
</linearGradient>
<linearGradient id="paint56_linear_2175_220126" x1="84.8845" y1="-26.4646" x2="77.9171" y2="-11.6594" gradientUnits="userSpaceOnUse">
<stop stop-color="#FF928E"/>
<stop offset="1" stop-color="#FE7062"/>
</linearGradient>
<linearGradient id="paint57_linear_2175_220126" x1="67.6433" y1="22.2923" x2="-1.59099" y2="81.9471" gradientUnits="userSpaceOnUse">
<stop stop-color="#FF928E"/>
<stop offset="1" stop-color="#FE7062"/>
</linearGradient>
<linearGradient id="paint58_linear_2175_220126" x1="28.1238" y1="-16.1955" x2="20.286" y2="12.1081" gradientUnits="userSpaceOnUse">
<stop stop-color="#FF928E"/>
<stop offset="1" stop-color="#FE7062"/>
</linearGradient>
<linearGradient id="paint59_linear_2175_220126" x1="19.2325" y1="43.0942" x2="29.1924" y2="82.0289" gradientUnits="userSpaceOnUse">
<stop stop-color="#FF928E"/>
<stop offset="1" stop-color="#FE7062"/>
</linearGradient>
<linearGradient id="paint60_linear_2175_220126" x1="71.4612" y1="97.3768" x2="67.5423" y2="68.202" gradientUnits="userSpaceOnUse">
<stop stop-color="#FF928E"/>
<stop offset="1" stop-color="#FE7062"/>
</linearGradient>
<linearGradient id="paint61_linear_2175_220126" x1="45.0735" y1="52.2701" x2="66.8453" y2="27.0141" gradientUnits="userSpaceOnUse">
<stop stop-color="#FF928E"/>
<stop offset="1" stop-color="#FE7062"/>
</linearGradient>
<linearGradient id="paint62_linear_2175_220126" x1="91.3413" y1="32.9435" x2="143.594" y2="7.68846" gradientUnits="userSpaceOnUse">
<stop stop-color="#FF928E"/>
<stop offset="1" stop-color="#FE7062"/>
</linearGradient>
<linearGradient id="paint63_linear_2175_220126" x1="14.7764" y1="15.0331" x2="61.3685" y2="-6.73872" gradientUnits="userSpaceOnUse">
<stop stop-color="#FF928E"/>
<stop offset="1" stop-color="#FE7062"/>
</linearGradient>
<linearGradient id="paint64_linear_2175_220126" x1="112.725" y1="1.38369" x2="82.5238" y2="13.5" gradientUnits="userSpaceOnUse">
<stop stop-color="#09005D"/>
<stop offset="1" stop-color="#1A0F91"/>
</linearGradient>
<linearGradient id="paint65_linear_2175_220126" x1="113.186" y1="2.93268" x2="82.9845" y2="15.0498" gradientUnits="userSpaceOnUse">
<stop stop-color="#09005D"/>
<stop offset="1" stop-color="#1A0F91"/>
</linearGradient>
<linearGradient id="paint66_linear_2175_220126" x1="113.663" y1="3.71217" x2="83.4625" y2="15.8284" gradientUnits="userSpaceOnUse">
<stop stop-color="#09005D"/>
<stop offset="1" stop-color="#1A0F91"/>
</linearGradient>
<linearGradient id="paint67_linear_2175_220126" x1="113.747" y1="4.86815" x2="83.5459" y2="16.9853" gradientUnits="userSpaceOnUse">
<stop stop-color="#09005D"/>
<stop offset="1" stop-color="#1A0F91"/>
</linearGradient>
<linearGradient id="paint68_linear_2175_220126" x1="114.602" y1="6.04064" x2="84.4012" y2="18.1578" gradientUnits="userSpaceOnUse">
<stop stop-color="#09005D"/>
<stop offset="1" stop-color="#1A0F91"/>
</linearGradient>
<linearGradient id="paint69_linear_2175_220126" x1="115.071" y1="7.20495" x2="84.8701" y2="19.3221" gradientUnits="userSpaceOnUse">
<stop stop-color="#09005D"/>
<stop offset="1" stop-color="#1A0F91"/>
</linearGradient>
<linearGradient id="paint70_linear_2175_220126" x1="115.549" y1="7.98346" x2="85.3472" y2="20.1006" gradientUnits="userSpaceOnUse">
<stop stop-color="#09005D"/>
<stop offset="1" stop-color="#1A0F91"/>
</linearGradient>
<linearGradient id="paint71_linear_2175_220126" x1="116.574" y1="11.4681" x2="86.3725" y2="23.5843" gradientUnits="userSpaceOnUse">
<stop stop-color="#09005D"/>
<stop offset="1" stop-color="#1A0F91"/>
</linearGradient>
<linearGradient id="paint72_linear_2175_220126" x1="116.646" y1="13.0115" x2="86.4455" y2="25.1287" gradientUnits="userSpaceOnUse">
<stop stop-color="#09005D"/>
<stop offset="1" stop-color="#1A0F91"/>
</linearGradient>
<linearGradient id="paint73_linear_2175_220126" x1="117.958" y1="14.7791" x2="87.3243" y2="27.0691" gradientUnits="userSpaceOnUse">
<stop stop-color="#09005D"/>
<stop offset="1" stop-color="#1A0F91"/>
</linearGradient>
<clipPath id="clip0_2175_220126">
<rect width="240" height="240" fill="white"/>
</clipPath>
</defs>
</svg>
