<svg width="624" height="355" viewBox="0 0 624 355" fill="none" xmlns="http://www.w3.org/2000/svg">
<path d="M274.546 151.744C274.377 151.781 274.205 151.808 274.028 151.828C273.385 151.896 272.733 151.931 272.07 151.931C263.285 151.931 255.938 145.692 254.124 137.354L259.318 134.987H259.321C259.321 134.987 259.507 135.909 260.064 137.354C261.482 141.007 265.292 147.988 274.546 151.744Z" fill="#F0F3FB"/>
<path d="M615.321 231.46C601.213 231.46 589.769 220.01 589.769 205.887C589.769 191.946 600.916 180.611 614.779 180.321C590.823 108.215 522.867 56.2142 442.777 56.2142C409.839 56.2142 378.954 65.0109 352.338 80.382C319.061 31.8416 263.233 0 199.974 0C152.929 0 109.993 17.6087 77.3875 46.5991C82.4185 51.7716 85.5187 58.8347 85.5187 66.6235C85.5187 82.481 72.6751 95.3365 56.8301 95.3365C51.01 95.3365 45.5954 93.5996 41.0725 90.6183C24.7152 118.2 15.3226 150.406 15.3226 184.807C15.3226 255.683 55.1866 317.237 113.698 348.242H586.382C609.967 317.621 624 279.247 624 237.592C624 235.05 623.944 232.518 623.844 230.002C621.18 230.945 618.311 231.46 615.32 231.46H615.321Z" fill="#DEE4F6"/>
<path d="M587.717 347.959H586.598C586.934 347.517 587.275 347.07 587.612 346.628C587.677 347.06 587.717 347.505 587.717 347.959Z" fill="#D8DFF4"/>
<path d="M586.598 347.959H571.111C571.111 347.176 571.221 346.42 571.422 345.703L567.267 303.779L567.212 305.604V347.959H542.543C542.543 343.37 546.261 339.648 550.842 339.648C551.404 339.648 551.95 339.704 552.482 339.812V278.931C551.614 277.052 551.127 274.963 551.127 272.758V253.778C551.127 252.81 551.223 251.868 551.398 250.951L535.941 239.091C535.218 238.537 534.651 237.803 534.295 236.961L527.186 220.092C524.356 219.061 522.34 216.342 522.34 213.155C522.34 209.077 525.641 205.772 529.715 205.772C533.789 205.772 537.09 209.077 537.09 213.155C537.09 213.997 536.949 214.805 536.688 215.562L543.441 231.588L552.025 238.173C552.406 237.338 552.938 236.597 553.575 235.971C552.948 234.625 552.722 233.084 553.003 231.512C553.289 229.943 554.052 228.58 555.11 227.543C554.483 226.198 554.252 224.654 554.538 223.084C555.13 219.836 557.749 217.471 560.85 217.052C562.927 214.827 565.872 213.484 569.033 213.484C569.695 213.484 570.372 213.543 571.05 213.665C576.95 214.741 580.928 220.258 580.16 226.144C582.157 227.151 583.341 229.385 582.92 231.698C582.764 232.54 582.418 233.297 581.931 233.93C582.985 235.084 583.512 236.705 583.21 238.365C582.974 239.652 582.287 240.739 581.339 241.493C581.961 242.532 582.222 243.792 581.992 245.078C581.721 246.569 580.833 247.794 579.644 248.54C579.649 248.572 579.654 248.604 579.654 248.638C580.251 250.237 580.577 251.968 580.577 253.778V272.757C580.577 274.356 580.322 275.893 579.85 277.332L585.916 342.798C586.778 343.886 587.381 345.197 587.611 346.628C587.275 347.07 586.934 347.517 586.598 347.959H586.598Z" fill="#BCC7EC"/>
<path d="M524.497 347.841H499.828V305.485L499.773 303.661L495.619 345.585C495.82 346.304 495.93 347.058 495.93 347.841H479.323C479.323 345.889 480.001 344.097 481.125 342.68L486.959 280.028C486.939 279.994 486.924 279.957 486.904 279.92C486.864 279.842 486.823 279.763 486.788 279.682C486.698 279.495 486.613 279.309 486.532 279.119C486.507 279.063 486.487 279.004 486.462 278.948C486.402 278.803 486.347 278.658 486.292 278.511C486.261 278.432 486.237 278.353 486.207 278.273C486.162 278.145 486.117 278.015 486.077 277.882C486.046 277.801 486.026 277.72 486.001 277.639C485.956 277.499 485.916 277.357 485.881 277.215C485.86 277.143 485.84 277.075 485.82 277.001C485.765 276.789 485.715 276.579 485.675 276.363C485.67 276.336 485.665 276.308 485.66 276.281C485.62 276.09 485.59 275.898 485.555 275.705C485.545 275.631 485.535 275.557 485.524 275.484C485.5 275.331 485.484 275.179 485.465 275.027C485.46 274.946 485.449 274.867 485.439 274.786C485.425 274.629 485.414 274.472 485.404 274.315C485.399 274.241 485.394 274.17 485.394 274.098C485.379 273.87 485.374 273.642 485.374 273.411V272.213L484.802 272.085V257.139C485.018 257.405 485.234 257.669 485.444 257.935C486.994 259.86 488.53 261.846 490.245 263.805C490.155 261.203 489.779 258.669 489.247 256.152C488.716 253.633 487.978 251.148 487.04 248.71C486.398 247.04 485.655 245.388 484.802 243.775V224.816V224.679C485.545 224.259 486.403 224.016 487.321 224.016C487.526 224.016 487.732 224.03 487.938 224.055C488.239 224.03 488.54 224.016 488.851 224.016H488.881C489.011 222.157 489.593 220.426 490.521 218.928C490.888 219.044 491.249 219.164 491.61 219.294C493.381 219.942 495.112 220.846 496.722 222.029C498.343 223.213 499.838 224.681 501.148 226.535C501.183 224.259 500.45 221.921 499.246 219.847C498.152 217.968 496.672 216.286 494.941 214.874C496.446 214.11 498.152 213.678 499.959 213.678C502.888 213.678 505.558 214.82 507.544 216.678C508.257 216.421 509.029 216.278 509.837 216.278C513.59 216.278 516.63 219.323 516.63 223.077C516.63 226.066 514.704 228.599 512.03 229.513C512.095 229.989 512.135 230.474 512.135 230.967C512.135 235.376 509.466 239.165 505.663 240.81V241.154C507.369 241.879 508.909 242.922 510.213 244.204C510.524 244.288 510.835 244.396 511.141 244.533L512.686 245.235L512.882 244.766H526.935C528.114 242.299 530.632 240.592 533.547 240.592C537.586 240.592 540.867 243.873 540.867 247.919C540.867 251.941 537.626 255.207 533.613 255.243L531.169 257.255L522.059 279.103H514.558V339.695C515.09 339.589 515.632 339.533 516.194 339.533C520.779 339.533 524.497 343.253 524.497 347.842V347.841Z" fill="#BCC7EC"/>
<path d="M191.197 349.334H176.582H175.786V348.241H200.189C200.236 348.597 200.26 348.963 200.26 349.334H191.197H191.197ZM166.323 349.334H151.708H150.34C150.34 348.963 150.365 348.6 150.412 348.241H166.741C166.789 348.6 166.814 348.963 166.814 349.334H166.323Z" fill="#D8DFF4"/>
<path d="M200.188 348.242H175.785V343.174H176.12L173.087 310.592L171.429 294.336L166.505 347.097C166.609 347.468 166.689 347.851 166.741 348.242H150.412C150.612 346.732 151.222 345.352 152.124 344.215L157.915 280.77C157.898 280.733 157.88 280.699 157.862 280.662C157.823 280.583 157.782 280.504 157.745 280.424C157.657 280.24 157.573 280.055 157.492 279.866C157.469 279.81 157.447 279.753 157.424 279.697C157.365 279.552 157.307 279.409 157.253 279.262C157.224 279.186 157.197 279.108 157.17 279.029C157.124 278.899 157.081 278.769 157.038 278.639C157.012 278.56 156.987 278.479 156.963 278.398C156.92 278.258 156.881 278.118 156.843 277.978C156.824 277.906 156.804 277.836 156.786 277.765C156.733 277.556 156.684 277.345 156.64 277.131C156.634 277.104 156.63 277.077 156.625 277.053C156.587 276.861 156.553 276.67 156.523 276.478C156.511 276.405 156.502 276.331 156.491 276.26C156.47 276.107 156.451 275.958 156.434 275.805C156.425 275.727 156.417 275.646 156.41 275.567C156.395 275.412 156.384 275.255 156.374 275.098C156.37 275.027 156.365 274.956 156.361 274.885C156.351 274.659 156.344 274.43 156.344 274.202V272.852L155.874 272.909C155.669 272.933 155.465 272.945 155.262 272.945C153.651 272.945 152.117 272.189 151.133 270.882C150.027 269.412 149.785 267.46 150.5 265.763L157.688 248.693C158.099 247.716 158.777 246.932 159.6 246.39C159.662 246.314 159.726 246.24 159.79 246.164C159.843 246.101 159.899 246.039 159.953 245.975C160.037 245.879 160.12 245.786 160.206 245.693C160.254 245.641 160.303 245.592 160.352 245.541C160.675 245.201 161.013 244.88 161.368 244.573C161.406 244.541 161.444 244.507 161.482 244.475C161.593 244.381 161.706 244.288 161.821 244.198C161.864 244.163 161.908 244.129 161.952 244.094C162.069 244.003 162.188 243.912 162.309 243.824C162.34 243.802 162.372 243.78 162.403 243.758C162.794 243.478 163.2 243.216 163.619 242.975C163.667 242.7 163.774 242.429 163.949 242.186C164.237 241.788 164.652 241.541 165.098 241.447C163.391 240.462 161.968 239.009 161.022 237.231C159.073 237.079 157.407 235.613 157.086 233.595C156.911 232.504 157.163 231.448 157.713 230.587C156.881 229.735 156.294 228.627 156.093 227.36C155.575 224.112 157.787 221.054 161.036 220.536H161.037L161.029 220.495C160.708 218.478 162.08 216.586 164.093 216.264C164.288 216.232 164.482 216.217 164.675 216.217C164.859 216.217 165.042 216.231 165.221 216.258C165.851 213.636 167.998 211.52 170.825 211.07C171.192 211.011 171.557 210.982 171.917 210.982C171.968 210.982 172.018 210.982 172.069 210.984V298.853C172.069 306.293 178.096 312.325 185.53 312.325H188.152L190.589 341.216C191.055 341.135 191.534 341.088 192.024 341.088C196.203 341.088 199.657 344.204 200.189 348.241L200.188 348.242Z" fill="#BCC7EC"/>
<path d="M75.4598 199.511C79.0121 200.257 82.482 201.428 85.7831 202.961C89.0861 204.491 92.218 206.401 95.0653 208.662C97.7545 210.813 100.208 213.263 102.231 216.024C104.563 216.399 106.881 216.856 109.183 217.386C107.044 214.746 104.758 212.242 102.313 209.91C99.4701 207.201 96.4324 204.709 93.2122 202.475C89.9929 200.24 86.6053 198.251 83.0811 196.528C79.5565 194.804 75.899 193.346 72.1417 192.119L72.2732 191.618C76.1799 192.407 79.9993 193.667 83.6582 195.288C87.3185 196.91 90.8211 198.894 94.102 201.195C97.382 203.499 100.455 206.099 103.234 208.979C105.801 211.634 108.131 214.518 110.135 217.604C112.495 218.172 114.839 218.82 117.158 219.544C114.402 216.131 111.769 212.652 109.065 209.259C105.898 205.261 102.654 201.365 99.1579 197.74C95.6659 194.121 91.9109 190.779 87.8496 187.839C83.7828 184.903 79.3946 182.416 74.6413 180.462L74.7788 179.962C79.9363 180.726 84.9085 182.762 89.4043 185.479C93.9162 188.197 97.971 191.624 101.579 195.42C105.187 199.216 108.365 203.366 111.237 207.675C113.876 211.657 116.279 215.76 118.49 219.974C121.054 220.811 123.589 221.74 126.086 222.766C124.126 218.967 122.218 215.157 120.21 211.412C117.721 206.788 115.108 202.246 112.133 197.961C110.651 195.823 109.097 193.73 107.418 191.746C105.769 189.735 103.99 187.839 102.133 186.02C98.3992 182.406 94.2367 179.225 89.6347 176.671L89.8517 176.2C94.8419 178.082 99.425 181.048 103.452 184.586C105.48 186.346 107.349 188.28 109.125 190.289C110.873 192.323 112.521 194.44 114.035 196.65C117.058 201.068 119.644 205.752 121.904 210.558C123.868 214.717 125.616 218.955 127.221 223.247C127.541 223.382 127.863 223.512 128.182 223.653C130.503 224.664 132.789 225.76 135.038 226.928C132.847 221.472 130.511 216.144 127.797 211.015C124.78 205.168 121.317 199.59 117.542 194.242C113.718 188.93 109.556 183.848 105.048 179.089C102.792 176.729 100.434 174.486 97.846 172.536C96.5552 171.556 95.2019 170.66 93.787 169.852C93.0812 169.442 92.3514 169.077 91.6078 168.731C91.2335 168.566 90.8611 168.387 90.4808 168.228C90.0968 168.082 89.7129 167.929 89.3266 167.771L89.4471 167.267C89.8655 167.326 90.2854 167.39 90.7057 167.46C91.1246 167.537 91.538 167.636 91.9573 167.724C92.7827 167.937 93.6067 168.177 94.4138 168.467C96.0333 169.037 97.5935 169.778 99.0953 170.616C102.101 172.3 104.827 174.421 107.365 176.687C109.903 178.955 112.251 181.393 114.52 183.918C116.77 186.458 118.86 189.137 120.84 191.894C124.736 197.448 128.112 203.381 130.742 209.622C133.203 215.383 135.051 221.399 136.16 227.525C138.905 228.994 141.587 230.581 144.2 232.284C142.981 229.416 141.821 226.531 140.634 223.663L139.553 221.023L138.454 218.397C137.719 216.645 136.977 214.9 136.228 213.161C133.212 206.22 129.969 199.406 126.149 192.946C122.332 186.496 117.894 180.414 112.743 174.973C107.604 169.523 101.691 164.785 95.0552 161.064L95.2732 160.594C98.8723 161.933 102.311 163.737 105.558 165.836C106.361 166.374 107.161 166.919 107.954 167.474L110.273 169.224L112.522 171.069L114.685 173.015C120.353 178.323 125.148 184.522 129.145 191.155C133.142 197.789 136.353 204.845 139.002 212.05L139.973 214.76L140.892 217.485L141.761 220.226L142.598 222.974C143.565 226.291 144.473 229.62 145.267 232.984C146.891 234.069 148.484 235.204 150.048 236.378C147.96 230.386 146.203 224.317 144.559 218.222C143.651 214.823 142.788 211.423 141.916 208.035C141.053 204.646 140.14 201.277 139.152 197.94C137.162 191.274 134.854 184.717 131.779 178.505C128.763 172.266 124.958 166.407 120.295 161.163L120.654 160.79L121.659 161.658L122.16 162.096L122.645 162.551L123.615 163.465L124.547 164.417L125.014 164.894L125.465 165.385L126.365 166.371L127.227 167.391L127.658 167.902L128.075 168.425C130.324 171.195 132.286 174.193 134.075 177.283C134.527 178.055 134.933 178.849 135.363 179.633C135.766 180.428 136.188 181.216 136.572 182.022C137.367 183.622 138.097 185.251 138.79 186.895C139.469 188.544 140.133 190.199 140.727 191.877C141.337 193.552 141.909 195.236 142.44 196.93C144.585 203.707 146.262 210.585 147.704 217.47C149.059 223.997 150.287 230.552 151.134 237.201C153.582 239.087 155.95 241.078 158.226 243.175C157.965 241.81 157.728 240.442 157.495 239.079C157.155 237.245 156.807 235.419 156.498 233.587C156.142 231.762 155.802 229.939 155.475 228.116C155.109 226.297 154.747 224.482 154.408 222.662C152.933 215.406 151.368 208.181 149.489 201.023C147.618 193.866 145.485 186.775 143.109 179.752C140.758 172.718 138.106 165.78 135.352 158.841L135.816 158.614C139.595 165.075 142.832 171.85 145.709 178.777C148.56 185.716 150.994 192.834 153.009 200.07C155.016 207.309 156.658 214.658 157.694 222.1C157.939 223.961 158.162 225.825 158.38 227.688C158.549 229.559 158.706 231.431 158.846 233.299C158.946 235.175 159.004 237.051 159.074 238.922C159.08 240.596 159.077 242.266 159.037 243.938C159.374 244.255 159.713 244.57 160.046 244.891C161.202 246.009 162.331 247.152 163.434 248.321C163.459 246.838 163.527 245.37 163.608 243.911C163.647 241.854 163.752 239.816 163.864 237.79L163.965 234.743L164.111 231.713L164.195 228.683L164.321 225.666C164.338 223.65 164.39 221.641 164.464 219.635C164.465 217.627 164.491 215.618 164.54 213.612C164.513 211.606 164.528 209.6 164.522 207.592C164.44 205.586 164.393 203.579 164.343 201.571C164.002 193.544 163.253 185.526 162.123 177.52C161.811 175.525 161.502 173.526 161.213 171.516L160.678 168.522L160.17 165.512C159.767 163.52 159.38 161.517 159.008 159.502C158.574 157.506 158.156 155.497 157.774 153.465L158.262 153.292C159.177 155.141 160.055 157.015 160.917 158.901C161.701 160.812 162.471 162.736 163.224 164.67L164.24 167.608L165.229 170.561C165.815 172.55 166.381 174.549 166.944 176.552C169.034 184.601 170.378 192.863 170.992 201.184C171.109 203.263 171.231 205.348 171.317 207.433C171.336 209.517 171.377 211.604 171.375 213.691C171.308 215.776 171.216 217.861 171.1 219.942C170.914 222.022 170.706 224.097 170.463 226.167L169.984 229.259L169.462 232.34L168.788 235.395L168.069 238.435C167.49 240.441 166.904 242.44 166.252 244.416C165.648 246.059 165.024 247.692 164.334 249.3C165.609 250.685 166.85 252.102 168.049 253.555C168.148 252.875 168.252 252.2 168.362 251.524C168.707 249.462 169.119 247.42 169.567 245.391C170.481 241.337 171.573 237.335 172.798 233.384C173.414 231.412 174.039 229.45 174.629 227.486C175.218 225.524 175.788 223.563 176.331 221.601C176.597 220.618 176.857 219.636 177.101 218.652L177.794 215.693L177.97 214.951L178.123 214.208L178.429 212.717C178.527 212.218 178.639 211.726 178.728 211.224L178.988 209.724C179.164 208.725 179.354 207.728 179.489 206.721C179.63 205.717 179.807 204.715 179.919 203.703L180.284 200.676L180.569 197.636C180.9 193.58 181.059 189.501 181.041 185.414C181.017 177.234 180.201 169.041 178.828 160.864L179.329 160.735C180.684 164.673 181.759 168.715 182.618 172.811C183.061 174.859 183.387 176.928 183.716 178.999L184.12 182.121C184.24 183.164 184.334 184.209 184.432 185.255C184.786 189.442 184.914 193.656 184.807 197.869C184.712 202.085 184.323 206.296 183.75 210.48C183.151 214.657 182.353 218.829 181.299 222.912C181.037 223.931 180.77 224.948 180.492 225.962C180.208 226.971 179.919 227.978 179.622 228.979C179.029 230.986 178.421 232.98 177.797 234.959C176.533 238.907 175.132 242.804 173.555 246.651C172.759 248.568 171.925 250.479 171.025 252.365C170.539 253.374 170.041 254.378 169.517 255.372C170.759 256.944 171.955 258.553 173.109 260.192C173.493 259.085 173.899 257.993 174.311 256.903C175.011 255.1 175.724 253.31 176.484 251.55C177.976 248.017 179.537 244.537 181.144 241.089C182.75 237.642 184.367 234.207 185.861 230.72L186.979 228.105C187.346 227.231 187.691 226.349 188.049 225.473C188.409 224.597 188.75 223.713 189.09 222.829C189.425 221.945 189.787 221.068 190.099 220.174C192.732 213.07 194.897 205.832 196.589 198.397C198.307 190.973 199.676 183.406 201.288 175.858L201.801 175.921C201.568 183.632 201.082 191.337 200.005 199.031C198.957 206.726 197.149 214.382 194.706 221.785C193.481 225.49 192.118 229.144 190.628 232.741C190.264 233.645 189.861 234.529 189.479 235.425L188.898 236.763L188.295 238.091C187.887 238.973 187.504 239.867 187.075 240.738L185.791 243.351C184.023 246.808 182.076 250.17 179.94 253.408C178.865 255.024 177.758 256.62 176.573 258.164C175.74 259.272 174.872 260.354 173.961 261.413C174.964 262.881 175.93 264.377 176.862 265.891C176.895 265.751 176.931 265.609 176.971 265.472C177.121 264.887 177.34 264.339 177.562 263.787C177.803 263.252 178.054 262.717 178.334 262.214C178.886 261.194 179.502 260.256 180.091 259.345C180.672 258.447 181.245 257.546 181.842 256.666C182.43 255.78 183.063 254.933 183.647 254.046C184.236 253.165 184.83 252.291 185.442 251.431C186.688 249.727 187.846 247.962 189.09 246.258C189.394 245.826 189.709 245.403 190.006 244.966L190.877 243.646L192.622 241.006L193.058 240.345L193.472 239.67L194.304 238.325L195.971 235.632L199.119 230.131L200.606 227.332C201.096 226.396 201.612 225.473 202.068 224.518C205.874 216.965 209.183 209.142 211.967 201.101L212.497 199.596L212.765 198.842L213.002 198.081L213.964 195.031L214.452 193.507C214.609 192.996 214.744 192.481 214.891 191.968L215.772 188.885C216.078 187.859 216.331 186.82 216.593 185.782L217.394 182.666C217.903 180.581 218.348 178.48 218.863 176.381L219.375 176.445C219.327 177.524 219.258 178.604 219.192 179.685C219.115 180.764 219.081 181.853 218.956 182.928L218.6 186.161L218.414 187.78C218.362 188.322 218.254 188.853 218.178 189.39L217.665 192.61C217.575 193.146 217.496 193.687 217.393 194.219L217.072 195.817L216.409 199.014L216.242 199.815L216.047 200.608L215.653 202.194C213.553 210.653 210.666 218.943 207.047 226.913C203.436 234.886 199.084 242.536 194.075 249.731C192.811 251.521 191.564 253.329 190.135 254.995C189.437 255.84 188.724 256.673 188.004 257.5C187.648 257.915 187.266 258.31 186.882 258.703L185.729 259.877C184.954 260.655 184.157 261.411 183.366 262.168L182.166 263.231C181.773 263.579 181.379 263.916 181.007 264.267C179.858 265.323 178.795 266.386 177.956 267.709C179.575 270.464 181.077 273.293 182.454 276.181C188.014 287.844 188.494 268.014 189.629 280.971L185.1 281.307C184.122 265.281 182.342 281.968 174.31 267.945C174.078 268.421 173.842 268.898 173.599 269.369C173.062 270.371 172.505 271.363 171.934 272.348C171.346 273.32 170.741 274.283 170.13 275.243C169.494 276.183 168.856 277.126 168.199 278.054C165.557 281.754 162.602 285.227 159.438 288.492C156.273 291.755 152.9 294.82 149.323 297.621C145.739 300.41 141.977 302.977 137.942 305.093L137.631 304.68C140.769 301.398 143.958 298.269 147.085 295.097C150.219 291.934 153.315 288.762 156.357 285.538C159.401 282.316 162.393 279.051 165.415 275.785C166.156 274.958 166.916 274.145 167.679 273.327C168.431 272.505 169.188 271.682 169.962 270.872C170.718 270.044 171.487 269.227 172.274 268.417C172.743 267.911 173.228 267.415 173.718 266.921C172.533 264.903 171.282 262.927 169.966 260.992C169.197 261.794 168.419 262.585 167.626 263.353C166.499 264.498 165.35 265.605 164.193 266.7C163.053 267.815 161.903 268.915 160.74 269.993C159.599 271.101 158.44 272.183 157.281 273.261C156.129 274.349 154.982 275.442 153.812 276.505C152.675 277.607 151.505 278.67 150.349 279.753L146.902 283.014C145.775 284.124 144.631 285.216 143.496 286.322C138.982 290.759 134.572 295.308 130.247 299.959C125.904 304.599 121.693 309.373 117.396 314.141L116.976 313.839C120.129 308.226 123.778 302.912 127.678 297.788C131.597 292.676 135.813 287.787 140.28 283.136L143.675 279.692L147.161 276.34C148.361 275.262 149.543 274.165 150.761 273.109C151.985 272.061 153.234 271.039 154.478 270.015C155.755 269.028 157.032 268.045 158.328 267.086C159.641 266.148 160.968 265.229 162.303 264.328C163.663 263.457 165.03 262.597 166.417 261.772C167.395 261.214 168.388 260.677 169.388 260.156C168.848 259.378 168.299 258.607 167.738 257.843L167.576 257.792C167.58 257.74 167.585 257.691 167.59 257.64C166.522 256.193 165.415 254.776 164.274 253.389C163.595 253.826 162.915 254.259 162.235 254.688C161.061 255.484 159.887 256.264 158.706 257.026C157.554 257.841 156.397 258.637 155.237 259.426C154.108 260.26 152.97 261.078 151.835 261.895C147.338 265.232 143.02 268.781 138.912 272.566C134.809 276.357 130.938 280.401 127.295 284.669C126.409 285.751 125.511 286.832 124.608 287.91C123.747 289.02 122.886 290.132 122.001 291.233C121.163 292.364 120.338 293.508 119.476 294.633C118.671 295.792 117.853 296.951 117.009 298.1L116.557 297.847C117.147 296.548 117.765 295.256 118.395 293.97C119.06 292.703 119.766 291.458 120.457 290.199C121.194 288.971 121.954 287.753 122.714 286.535C123.521 285.349 124.333 284.163 125.156 282.985C128.526 278.324 132.349 273.983 136.528 270.015C140.701 266.042 145.253 262.46 150.116 259.381C151.351 258.639 152.584 257.898 153.825 257.176C155.093 256.498 156.365 255.83 157.642 255.177C158.945 254.57 160.253 253.981 161.563 253.406C162.253 253.141 162.942 252.876 163.632 252.616C162.41 251.16 161.152 249.734 159.85 248.343C155.296 250.106 150.9 252.063 146.685 254.339C142.108 256.815 137.74 259.623 133.628 262.778C129.517 265.934 125.669 269.433 122.118 273.243C118.552 277.047 115.316 281.174 112.284 285.545L111.828 285.3C113.797 280.31 116.603 275.637 119.925 271.37C123.263 267.11 127.148 263.262 131.434 259.933C135.718 256.601 140.41 253.787 145.38 251.638C149.794 249.73 154.426 248.316 159.149 247.614C158.855 247.307 158.563 246.996 158.266 246.691C156.936 245.338 155.564 244.025 154.161 242.745C149.76 244.486 145.329 246.018 141.18 247.99C140.084 248.506 139.012 249.058 137.962 249.64L137.18 250.082L136.415 250.553C135.908 250.873 135.386 251.165 134.894 251.506L133.408 252.518C132.914 252.857 132.45 253.242 131.963 253.593L131.243 254.134L130.548 254.708L129.852 255.283C129.618 255.472 129.382 255.659 129.16 255.863C127.332 257.434 125.611 259.143 123.921 260.891C122.247 262.659 120.632 264.498 119.044 266.374C117.457 268.25 115.911 270.177 114.348 272.102C112.784 274.028 111.244 275.982 109.615 277.88L109.185 277.59C111.489 273.155 114.049 268.861 116.947 264.748C117.31 264.235 117.69 263.732 118.061 263.223L118.623 262.465L119.21 261.721C119.604 261.227 119.986 260.723 120.392 260.24L121.625 258.794C122.036 258.312 122.473 257.851 122.903 257.384L123.552 256.685L124.226 256.009C124.679 255.562 125.119 255.101 125.591 254.671L127.012 253.387C128.951 251.72 131.001 250.161 133.201 248.825C133.468 248.646 133.754 248.498 134.035 248.341L134.879 247.872L135.724 247.405C136.01 247.259 136.3 247.121 136.588 246.981C137.748 246.428 138.922 245.915 140.118 245.476C144.491 243.835 148.985 242.856 153.502 242.149C151.306 240.182 149.024 238.31 146.667 236.533C144.626 237.55 142.564 238.505 140.509 239.465L137.012 241.095L135.268 241.91L133.535 242.742C128.916 244.95 124.382 247.28 120.079 249.966L118.48 250.99L116.909 252.056L115.362 253.153L113.845 254.292L112.364 255.478L110.919 256.706L109.503 257.968L108.131 259.276C104.523 262.825 101.388 266.869 98.95 271.396L98.4769 271.188C100.2 266.258 103.11 261.747 106.611 257.828L107.955 256.384L109.349 254.987C109.828 254.535 110.315 254.093 110.801 253.651L112.297 252.364C114.313 250.675 116.444 249.128 118.654 247.711C123.071 244.876 127.779 242.56 132.589 240.598L134.403 239.886L136.221 239.196C137.435 238.742 138.665 238.327 139.888 237.905C141.905 237.232 143.93 236.593 145.975 236.012C143.796 234.399 141.552 232.871 139.254 231.428C135.288 232.711 131.419 234.143 127.666 235.813C123.666 237.611 119.794 239.653 116.082 241.959C112.367 244.26 108.823 246.831 105.437 249.62C102.059 252.422 98.8719 255.464 95.7804 258.678L95.3716 258.361C97.7301 254.533 100.645 251.042 103.894 247.896C107.136 244.74 110.743 241.951 114.59 239.555C118.44 237.161 122.539 235.163 126.804 233.654C130.537 232.319 134.399 231.339 138.311 230.838C135.801 229.299 133.225 227.862 130.594 226.531C129.942 226.792 129.291 227.045 128.642 227.293C127.706 227.683 126.774 228.069 125.842 228.444C124.922 228.859 124.003 229.262 123.084 229.657C122.18 230.089 121.276 230.519 120.371 230.934C116.783 232.69 113.307 234.629 109.97 236.798C106.634 238.963 103.447 241.363 100.409 243.965C97.3553 246.555 94.4997 249.387 91.6948 252.352L91.2777 252.045C93.2858 248.448 95.8494 245.163 98.7091 242.165C101.584 239.175 104.806 236.508 108.265 234.203C111.725 231.897 115.436 229.957 119.321 228.496C120.3 228.147 121.281 227.814 122.262 227.485C123.261 227.202 124.259 226.927 125.257 226.664C126.271 226.448 127.285 226.244 128.295 226.045C128.644 225.999 128.992 225.952 129.341 225.906C128.878 225.68 128.414 225.456 127.95 225.238L127.958 225.26L127.485 225.468C127.38 225.272 127.28 225.073 127.176 224.875C125.114 223.921 123.022 223.03 120.903 222.208C118.01 223.465 115.175 224.789 112.421 226.254C109.413 227.868 106.492 229.623 103.68 231.543C100.867 233.461 98.1706 235.548 95.5781 237.77C92.9901 240.002 90.5282 242.383 88.1205 244.866L87.7172 244.544C89.6315 241.629 91.8994 238.943 94.3862 236.48C96.8674 234.008 99.5906 231.773 102.48 229.787C105.37 227.801 108.435 226.065 111.635 224.644C114.264 223.465 116.983 222.487 119.765 221.778C117.205 220.818 114.609 219.951 111.981 219.188C109.723 220.332 107.489 221.483 105.303 222.711C102.868 224.069 100.49 225.52 98.1642 227.05L96.4366 228.221C95.8737 228.631 95.3008 229.029 94.7297 229.427L93.0508 230.672L91.3903 231.946C89.1923 233.668 87.0674 235.487 84.9582 237.353L84.5825 236.997C86.3501 234.778 88.3347 232.73 90.4481 230.824L92.0576 229.423L93.7217 228.084C94.2887 227.652 94.8538 227.217 95.4286 226.798L97.1815 225.577C99.5405 223.978 102.021 222.559 104.587 221.327C106.594 220.372 108.658 219.529 110.771 218.849C108.505 218.221 106.218 217.668 103.913 217.192L103.942 217.411C101.517 217.965 99.1372 218.604 96.8187 219.422C94.4942 220.219 92.2387 221.19 90.0472 222.292L88.4258 223.161L86.832 224.082L85.2759 225.069L83.7516 226.105C81.7416 227.527 79.8393 229.103 78.0179 230.795L77.6399 230.441C79.2199 228.482 81.0445 226.711 83.0172 225.13L84.5273 223.978L86.0958 222.908L87.7107 221.907L89.3763 220.99C91.6175 219.804 93.9866 218.861 96.4163 218.149C98.51 217.558 100.654 217.135 102.814 216.963C100.666 216.541 98.5026 216.193 96.3285 215.907L96.3396 216.013C94.5467 216.462 92.7915 216.927 91.0726 217.491C89.3565 218.056 87.673 218.692 86.0305 219.419C84.3898 220.148 82.7859 220.953 81.205 221.817C80.8123 222.041 80.4201 222.262 80.0205 222.478C79.6333 222.709 79.2342 222.928 78.8401 223.156C78.4552 223.397 78.0561 223.622 77.6611 223.855C77.2697 224.094 76.877 224.334 76.4664 224.558L76.1284 224.164C76.4273 223.801 76.7451 223.452 77.0637 223.104C77.4013 222.776 77.7346 222.441 78.0823 222.121C78.4419 221.819 78.7964 221.505 79.1629 221.205C79.5367 220.918 79.917 220.638 80.2977 220.358C81.8474 219.275 83.5221 218.369 85.2686 217.642C87.0136 216.913 88.8277 216.343 90.679 215.98C91.6097 215.793 92.5496 215.653 93.4923 215.567C92.688 215.486 91.8824 215.41 91.0754 215.346L91.0882 215.157C89.8871 215.035 88.6976 214.949 87.5098 214.938C85.8323 214.912 84.1645 215 82.5146 215.204C80.8638 215.41 79.2355 215.739 77.6119 216.132C75.984 216.523 74.3806 217.018 72.705 217.517L72.4553 217.063C73.8044 215.889 75.3982 215.03 77.0669 214.388C78.7407 213.748 80.5107 213.367 82.2944 213.198C84.0781 213.023 85.8815 213.065 87.6455 213.328C89.4071 213.602 91.1384 214.071 92.7377 214.83L92.7073 214.933C92.9722 214.95 93.2375 214.965 93.5024 214.985C90.0357 212.736 86.2945 210.971 82.3643 209.787L80.6748 209.311L78.9651 208.911L77.2412 208.572C76.6618 208.486 76.0824 208.4 75.5035 208.307C73.1781 208.004 70.8252 207.872 68.4598 207.928L68.4165 207.413C70.7925 207.074 73.2177 207.015 75.6208 207.234C76.2195 207.295 76.82 207.366 77.4187 207.438L79.2052 207.737L80.9732 208.132L82.7202 208.611C85.0299 209.321 87.273 210.251 89.3868 211.418C91.2929 212.457 93.0908 213.691 94.7366 215.094C96.8417 215.278 98.9413 215.526 101.033 215.84C98.7114 213.859 96.3395 211.998 93.85 210.313C90.9572 208.342 87.9338 206.586 84.7867 205.075C81.6391 203.566 78.3651 202.321 75.0018 201.331C71.6386 200.332 68.1811 199.635 64.6551 199.133L64.6776 198.616C68.2749 198.421 71.9058 198.778 75.4571 199.514L75.4598 199.511Z" fill="#BEC9ED"/>
<path d="M415.089 199.577L415.838 200.23L416.554 200.905C417.038 201.357 417.501 201.821 417.955 202.292C419.792 204.17 421.434 206.204 422.955 208.32C425.985 212.561 428.423 217.196 430.312 222.041C431.254 224.465 432.042 226.957 432.667 229.474C433.281 231.976 433.693 234.341 434.135 236.585C434.355 237.704 434.581 238.809 434.841 239.88C435.096 240.953 435.393 242.021 435.756 243.082C435.935 243.617 436.126 244.153 436.352 244.678C436.564 245.213 436.809 245.739 437.071 246.271C437.456 247.045 437.907 247.809 438.43 248.594C440.404 243.836 442.37 239.07 444.445 234.343C442.296 233.157 440.417 231.548 438.736 229.768C436.85 227.747 435.245 225.472 433.913 223.075C431.232 218.274 429.607 213.055 428.592 207.868C427.569 202.685 427.059 197.556 426.732 192.466C426.558 189.919 426.453 187.375 426.343 184.808C426.244 182.237 426.117 179.657 426.09 176.95C427.768 179.079 429.073 181.427 430.228 183.826C431.372 186.23 432.344 188.7 433.172 191.181C434.846 196.146 436.036 201.131 437.221 205.963C438.413 210.78 439.561 215.48 440.869 220.133C441.531 222.459 442.228 224.779 443.028 227.121C443.653 228.993 444.365 230.856 445.123 232.815C445.807 231.276 446.501 229.739 447.218 228.212C448.866 224.691 450.628 221.221 452.522 217.818C452.061 217.003 451.656 216.19 451.275 215.377C450.996 214.837 450.751 214.297 450.488 213.759L449.769 212.148C449.276 211.08 448.815 210.014 448.39 208.949C447.932 207.889 447.505 206.83 447.1 205.772C445.43 201.548 443.924 197.357 442.451 193.139C440.969 188.922 439.497 184.696 438.059 180.363C437.684 179.287 437.331 178.195 436.992 177.087C436.627 175.993 436.276 174.884 435.954 173.745C435.602 172.628 435.263 171.492 434.961 170.319C434.629 169.166 434.313 167.989 434.078 166.742C435.122 167.439 436.087 168.206 437.036 168.996C437.954 169.805 438.835 170.651 439.701 171.516C440.54 172.396 441.347 173.305 442.139 174.23C442.897 175.174 443.639 176.135 444.362 177.111C447.183 181.055 449.472 185.364 451.229 189.878C452.991 194.388 454.199 199.122 454.691 203.954C454.791 205.167 454.871 206.38 454.922 207.593C454.932 208.816 454.911 210.036 454.851 211.254L454.686 213.088C454.63 213.513 454.58 213.938 454.52 214.36C456.346 211.335 458.298 208.389 460.39 205.543C460.631 205.217 460.882 204.897 461.127 204.573C460.952 203.677 460.852 202.803 460.781 201.941C460.706 201.054 460.666 200.185 460.64 199.323C460.6 197.599 460.621 195.915 460.691 194.265C460.826 190.961 461.097 187.79 461.328 184.667C461.564 181.551 461.75 178.474 461.87 175.317C461.925 173.738 461.97 172.135 461.975 170.476L461.98 167.932C461.965 167.503 461.965 167.061 461.97 166.612C461.96 166.165 461.955 165.713 461.975 165.236C462.346 165.524 462.687 165.837 463.028 166.156C463.344 166.485 463.665 166.821 463.966 167.172C464.263 167.523 464.533 167.89 464.819 168.259C465.081 168.633 465.326 169.019 465.582 169.406C466.546 170.974 467.308 172.664 467.86 174.41C468.984 177.908 469.34 181.595 469.129 185.188C468.909 188.778 468.141 192.269 466.917 195.551C466.416 196.9 465.829 198.213 465.166 199.495C468.071 196.045 471.172 192.766 474.442 189.668C473.856 188.348 473.414 186.979 473.073 185.586C472.696 184.067 472.436 182.519 472.3 180.96C472.014 177.841 472.135 174.675 472.661 171.573C472.918 170.031 473.268 168.463 473.72 166.997C474.172 165.531 474.678 164.144 475.191 162.796C475.702 161.448 476.199 160.135 476.645 158.779C477.077 157.42 477.413 156.023 477.659 154.399C478.693 155.677 479.255 157.31 479.525 158.945C479.781 160.586 479.736 162.238 479.581 163.814C479.41 165.39 479.109 166.892 478.793 168.33C478.466 169.763 478.161 171.127 477.875 172.536C477.303 175.336 476.826 178.164 476.41 181.046C476.204 182.488 476.008 183.944 475.818 185.421C475.672 186.531 475.537 187.651 475.366 188.793C476.284 187.943 477.212 187.103 478.15 186.282C482.164 182.773 486.393 179.519 490.788 176.511C490.216 175.694 489.835 174.87 489.509 174.04C489.208 173.141 488.987 172.237 488.856 171.336C488.756 170.44 488.726 169.545 488.766 168.659C488.837 167.779 488.967 166.906 489.153 166.046C489.975 162.628 491.164 159.299 492.69 156.146C494.22 152.995 496.096 150.021 498.284 147.322C498.846 146.656 499.422 146.002 499.99 145.354C500.601 144.731 501.204 144.108 501.826 143.508C502.463 142.922 503.12 142.353 503.778 141.8C504.465 141.265 505.163 140.749 505.885 140.267C505.574 141.088 505.238 141.876 504.891 142.646C504.57 143.436 504.244 144.212 503.908 144.969C503.602 145.75 503.276 146.508 502.955 147.266C502.654 148.033 502.353 148.796 502.042 149.545C500.848 152.575 499.774 155.591 498.826 158.615C497.873 161.638 497.045 164.673 496.353 167.735C496.192 168.503 495.971 169.257 495.69 170.004C495.444 170.757 495.133 171.502 494.742 172.244C494.39 172.992 493.954 173.737 493.423 174.488C493.317 174.65 493.202 174.813 493.081 174.977C495.169 173.61 497.281 172.293 499.428 171.035C501.756 169.67 504.129 168.378 506.527 167.144L506.296 167.075C505.975 166.125 505.839 165.205 505.759 164.292C505.714 163.391 505.729 162.498 505.815 161.621C505.925 160.754 506.101 159.901 506.311 159.062C506.557 158.235 506.848 157.424 507.174 156.631C507.535 155.851 507.932 155.091 508.318 154.324C508.739 153.577 509.155 152.827 509.592 152.088L510.972 149.92L512.472 147.832C514.534 145.102 516.876 142.592 519.47 140.393C520.123 139.848 520.8 139.331 521.457 138.805C522.154 138.315 522.842 137.818 523.544 137.351C524.262 136.898 524.984 136.462 525.717 136.042C526.464 135.643 527.221 135.263 527.994 134.915C527.518 135.626 527.026 136.304 526.524 136.963C526.053 137.648 525.571 138.317 525.079 138.97C524.623 139.652 524.141 140.307 523.675 140.967C523.213 141.633 522.766 142.31 522.3 142.958C520.504 145.617 518.823 148.295 517.263 151.02L516.119 153.073C515.753 153.765 515.387 154.457 515.015 155.141C514.674 155.843 514.313 156.536 513.962 157.23C513.62 157.933 513.304 158.643 512.938 159.333C512.602 160.035 512.231 160.719 511.804 161.389C511.413 162.07 510.977 162.737 510.475 163.389C510.013 164.054 509.477 164.702 508.884 165.344C508.529 165.743 508.147 166.14 507.726 166.528C512.708 164.018 517.83 161.78 523.053 159.812C527.242 158.231 531.496 156.823 535.801 155.584L535.47 155.395C535.365 154.515 535.45 153.709 535.575 152.919C535.746 152.154 535.977 151.414 536.273 150.704C536.594 150.018 536.965 149.357 537.381 148.728C537.823 148.119 538.32 147.553 538.811 146.988C540.828 144.758 543.131 142.801 545.61 141.141C548.088 139.484 550.772 138.15 553.567 137.196C556.361 136.256 559.261 135.661 562.176 135.634C559.572 136.934 557.109 138.261 554.786 139.762C552.463 141.249 550.275 142.876 548.228 144.629C546.176 146.38 544.29 148.284 542.539 150.297C542.122 150.817 541.706 151.336 541.234 151.811C540.793 152.312 540.311 152.781 539.774 153.225C539.273 153.688 538.711 154.121 538.084 154.528C537.703 154.795 537.296 155.053 536.845 155.292C540.226 154.343 543.628 153.498 547.059 152.759C547.265 152.545 547.481 152.338 547.696 152.132C547.977 151.905 548.258 151.667 548.549 151.45C548.845 151.242 549.146 151.032 549.452 150.835C549.763 150.65 550.08 150.467 550.401 150.293C551.695 149.611 553.085 149.135 554.51 148.81C555.93 148.488 557.38 148.324 558.829 148.331C560.274 148.348 561.714 148.52 563.094 148.93C561.664 149.041 560.274 149.18 558.915 149.419C557.55 149.649 556.215 149.961 554.916 150.357C553.607 150.75 552.343 151.235 551.078 151.744C550.768 151.882 550.451 152.012 550.135 152.139C549.824 152.283 549.508 152.413 549.187 152.547C548.88 152.698 548.559 152.829 548.244 152.969L548.268 153.108C548.038 153.16 547.802 153.216 547.566 153.268C547.466 153.309 547.371 153.352 547.271 153.39L547.236 153.342C546.077 153.601 544.918 153.872 543.764 154.154C544.436 154.272 545.048 154.465 545.655 154.679C546.523 155.022 547.401 155.354 548.299 155.641C549.192 155.932 550.111 156.182 551.044 156.417C551.977 156.642 552.93 156.844 553.913 157.049C552.945 157.324 551.942 157.457 550.933 157.482C549.925 157.514 548.906 157.431 547.903 157.258C546.905 157.083 545.911 156.822 544.963 156.449C544.03 156.044 543.141 155.479 542.52 154.567L542.585 154.444C538.165 155.558 533.785 156.847 529.47 158.317C529.545 158.311 529.625 158.303 529.701 158.298C530.393 158.281 531.086 158.288 531.778 158.32C534.537 158.561 537.246 159.184 539.87 160.036C542.489 160.897 545.013 162.035 547.361 163.443C549.709 164.849 551.886 166.521 553.752 168.499C551.239 167.483 548.781 166.536 546.312 165.721C543.839 164.905 541.36 164.217 538.867 163.665C536.373 163.105 533.86 162.73 531.341 162.405C530.714 162.323 530.087 162.216 529.455 162.085C528.823 161.982 528.19 161.852 527.553 161.688C526.916 161.552 526.274 161.39 525.622 161.18C524.969 160.999 524.307 160.784 523.63 160.475V160.434C523.529 160.473 523.429 160.508 523.329 160.546C515.863 163.421 508.609 166.851 501.685 170.846C501.976 170.719 502.273 170.59 502.568 170.472C503.446 170.168 504.339 169.888 505.242 169.642C506.145 169.43 507.064 169.25 507.986 169.088C508.905 168.969 509.833 168.864 510.766 168.79C511.694 168.744 512.628 168.738 513.561 168.729C514.488 168.776 515.422 168.824 516.35 168.897C517.273 169.007 518.201 169.105 519.124 169.227L521.873 169.71C525.521 170.463 529.078 171.616 532.429 173.182C535.776 174.745 538.937 176.697 541.696 179.105C538.274 177.817 534.898 176.668 531.486 175.753C528.08 174.84 524.648 174.133 521.197 173.665L518.608 173.352C517.74 173.289 516.877 173.202 516.009 173.128C515.146 173.097 514.278 173.042 513.41 172.985C512.542 172.954 511.679 172.926 510.806 172.858C509.938 172.845 509.065 172.801 508.192 172.742C507.319 172.723 506.441 172.687 505.553 172.62C504.67 172.602 503.777 172.548 502.869 172.472C501.971 172.437 501.058 172.367 500.115 172.234L500.029 171.805C499.995 171.827 499.954 171.848 499.919 171.871C494.682 174.984 489.644 178.429 484.863 182.192C485.68 181.887 486.503 181.623 487.336 181.399C489.579 180.801 491.861 180.46 494.169 180.366C496.482 180.3 498.81 180.325 501.143 180.478L502.894 180.61L504.645 180.781L506.396 181.017L508.137 181.295C512.798 182.127 517.373 183.588 521.552 185.822C523.635 186.94 525.616 188.248 527.412 189.762C529.203 191.274 530.829 192.973 532.128 194.876C530.171 193.661 528.205 192.596 526.188 191.7C524.176 190.805 522.124 190.061 520.047 189.45C515.893 188.229 511.643 187.516 507.369 187.172L505.758 187.054L504.143 186.975L502.522 186.911L500.897 186.879C498.729 186.861 496.547 186.892 494.355 186.951C492.157 186.982 489.94 186.884 487.687 186.588C486.558 186.439 485.42 186.228 484.27 185.954C483.307 185.715 482.334 185.433 481.356 185.036C480.527 185.73 479.715 186.433 478.907 187.147C475.571 190.1 472.4 193.239 469.415 196.541L471.376 196.704C472.34 196.768 473.283 196.813 474.221 196.848C475.154 196.875 476.088 196.89 477.011 196.9L479.8 196.887C481.666 196.868 483.537 196.831 485.454 196.829C487.366 196.826 489.312 196.857 491.293 196.933C493.28 197.019 495.297 197.179 497.319 197.478C499.341 197.783 501.388 198.24 503.349 198.928C504.338 199.267 505.301 199.679 506.24 200.126C507.173 200.597 508.081 201.11 508.938 201.697C509.796 202.288 510.604 202.944 511.347 203.656C512.074 204.385 512.737 205.164 513.288 206.01C509.696 204.176 506.089 203.331 502.421 202.927C498.764 202.525 495.072 202.612 491.233 202.698C489.317 202.735 487.365 202.787 485.379 202.74C483.397 202.691 481.365 202.526 479.348 202.175C477.321 201.819 475.3 201.264 473.378 200.439C472.415 200.019 471.482 199.533 470.598 198.971C469.896 198.509 469.229 198.011 468.612 197.443C466.088 200.292 463.695 203.253 461.462 206.332C459.185 209.48 457.077 212.748 455.131 216.109C456.019 215.434 456.927 214.876 457.84 214.364C458.843 213.798 459.857 213.308 460.881 212.858C462.932 211.964 464.984 211.265 467.116 210.71C469.249 210.157 471.461 209.777 473.749 209.61C476.032 209.425 478.374 209.386 480.757 209.6C483.136 209.811 485.523 210.268 487.842 211.049C490.16 211.834 492.397 212.934 494.379 214.432C496.356 215.927 498.031 217.766 499.245 219.847C500.45 221.921 501.182 224.259 501.147 226.535C499.838 224.681 498.342 223.212 496.722 222.03C495.111 220.846 493.381 219.942 491.609 219.294C488.058 218.003 484.28 217.607 480.417 217.654C478.485 217.679 476.508 217.82 474.496 218.022C472.489 218.24 470.428 218.449 468.29 218.535C466.153 218.631 463.95 218.601 461.733 218.366C460.624 218.245 459.505 218.084 458.381 217.852C457.252 217.616 456.119 217.342 454.96 216.9L454.899 216.507C454.754 216.757 454.604 217.003 454.463 217.253C452.466 220.816 450.632 224.468 448.909 228.177C449.243 227.841 449.588 227.527 449.952 227.236L450.423 226.9L450.906 226.591C451.233 226.38 451.567 226.196 451.907 226.014C452.246 225.842 452.59 225.699 452.94 225.558C453.288 225.415 453.646 225.27 454.002 225.155C454.714 224.951 455.447 224.767 456.179 224.639C459.119 224.165 462.109 224.529 464.829 225.484C467.533 226.491 470.051 227.875 472.375 229.484C474.702 231.092 476.825 232.955 478.706 235.028C482.429 239.119 485.163 243.838 487.04 248.71C487.978 251.147 488.715 253.633 489.247 256.152C489.779 258.668 490.155 261.203 490.245 263.805C488.529 261.846 486.994 259.86 485.444 257.934C483.894 256.014 482.379 254.134 480.844 252.339C477.773 248.746 474.627 245.495 471.266 242.787C469.61 241.461 467.875 240.26 466.089 239.202C464.298 238.144 462.441 237.26 460.575 236.499C458.724 235.686 456.938 234.782 455.016 233.678C454.53 233.42 454.038 233.132 453.531 232.811C453.278 232.668 453.02 232.516 452.757 232.354C452.495 232.197 452.225 232.039 451.953 231.851C451.68 231.691 451.4 231.536 451.116 231.35L450.681 231.082L450.235 230.785C449.637 230.431 449.001 230.014 448.315 229.521L448.307 229.481C446.273 233.943 444.371 238.471 442.507 243.018C443.557 244.661 444.767 246.073 446.111 247.3C447.485 248.572 448.979 249.665 450.542 250.63C452.106 251.602 453.752 252.469 455.467 253.274C457.188 254.075 458.909 254.946 460.549 256.071C463.795 258.367 466.966 260.79 470.072 263.327C473.172 265.868 476.217 268.503 479.087 271.427C475.149 270.298 471.381 268.879 467.669 267.366C463.961 265.848 460.319 264.221 456.752 262.462C454.99 261.561 453.299 260.407 451.702 259.039C450.105 257.674 448.522 256.218 447.099 254.588C445.674 252.948 444.425 251.143 443.48 249.193C442.745 247.643 442.202 246.001 441.962 244.346C440.799 247.195 439.646 250.05 438.476 252.899L418.746 301.282L416.838 300.494L436.903 252.25C437.23 251.477 437.551 250.701 437.873 249.927C436.768 249.763 435.674 249.405 434.651 248.904C433.994 248.594 433.375 248.214 432.762 247.811C432.171 247.391 431.583 246.949 431.04 246.463C429.943 245.495 428.972 244.403 428.114 243.236C427.255 242.075 426.531 240.861 425.878 239.642C424.588 237.196 423.645 234.746 422.814 232.464C421.972 230.203 421.188 227.949 420.415 225.675C418.842 221.145 417.329 216.583 415.849 211.903C415.118 209.558 414.402 207.184 413.727 204.741C413.386 203.523 413.057 202.285 412.745 201.026C412.441 199.759 412.127 198.486 411.906 197.136C413.043 197.885 414.092 198.708 415.088 199.577H415.089Z" fill="#BEC9ED"/>
<path d="M459.557 61.8036H185.53C178.096 61.8036 172.069 67.8348 172.069 75.2753V298.853C172.069 306.293 178.096 312.326 185.53 312.326H459.557C466.992 312.326 473.018 306.293 473.018 298.853V75.2753C473.018 67.8348 466.992 61.8036 459.557 61.8036Z" fill="#BEC9ED"/>
<path d="M484.803 65.4536C484.803 58.0136 478.777 51.9819 471.342 51.9819H197.316C189.881 51.9819 183.854 58.0136 183.854 65.4536V84.6588H484.803V65.4536Z" fill="#0885F1"/>
<path d="M484.803 84.6575V289.032C484.803 296.474 478.777 302.504 471.342 302.504H197.316C189.879 302.504 183.854 296.474 183.854 289.032V84.6575H484.803Z" fill="white"/>
<path d="M207.489 68.3204C207.489 70.9658 205.348 73.11 202.705 73.11C200.06 73.11 197.919 70.9658 197.919 68.3204C197.919 65.6751 200.06 63.5309 202.705 63.5309C205.348 63.5309 207.489 65.6751 207.489 68.3204Z" fill="white"/>
<path d="M221.191 68.3204C221.191 70.9658 219.046 73.11 216.405 73.11C213.76 73.11 211.619 70.9658 211.619 68.3204C211.619 65.6751 213.76 63.5309 216.405 63.5309C219.046 63.5309 221.191 65.6751 221.191 68.3204Z" fill="white"/>
<path d="M234.89 68.3204C234.89 70.9658 232.748 73.11 230.104 73.11C227.461 73.11 225.317 70.9658 225.317 68.3204C225.317 65.6751 227.461 63.5309 230.104 63.5309C232.749 63.5309 234.89 65.6751 234.89 68.3204Z" fill="white"/>
<path d="M557.79 347.422H572.521V262.126H557.79V347.422Z" fill="#452B99"/>
<path d="M572.576 293.972L572.561 279.91L561.373 277.609L572.38 300.4L572.576 293.972Z" fill="#2A1E68"/>
<path d="M557.79 265.749H575.159V283.136H572.866C564.543 283.136 557.79 276.379 557.79 268.045V265.749V265.749Z" fill="#452B99"/>
<path d="M591.646 347.422H576.916L569.992 262.125H584.722L591.646 347.422Z" fill="#452B99"/>
<path d="M556.155 339.113C551.57 339.113 547.852 342.833 547.852 347.422H564.453C564.453 342.833 560.74 339.113 556.155 339.113H556.155Z" fill="#2A1E68"/>
<path d="M584.722 339.113C580.136 339.113 576.419 342.833 576.419 347.422H593.025C593.025 342.833 589.307 339.113 584.722 339.113H584.722Z" fill="#2A1E68"/>
<path d="M559.206 347.422H572.517V341.212H559.206V347.422Z" fill="#2A1E68"/>
<path d="M562.592 244.294C561.478 244.294 560.354 243.941 559.401 243.207L541.249 229.285C540.527 228.73 539.96 227.994 539.604 227.153L531.642 208.259C530.513 205.583 531.767 202.496 534.442 201.367C537.121 200.237 540.201 201.492 541.329 204.168L548.75 221.781L565.793 234.856C568.1 236.624 568.537 239.926 566.771 242.232C565.732 243.585 564.172 244.294 562.591 244.294L562.592 244.294Z" fill="#0885F1"/>
<path d="M574.457 215.939C573.719 219.976 569.856 222.652 565.823 221.918C561.789 221.181 559.115 217.314 559.848 213.277C560.58 209.241 564.448 206.565 568.482 207.299C572.516 208.033 575.19 211.902 574.457 215.939Z" fill="#211534"/>
<path d="M572.922 224.367C572.184 228.405 568.321 231.082 564.288 230.345C560.254 229.611 557.58 225.742 558.313 221.705C559.05 217.668 562.913 214.992 566.946 215.726C570.98 216.463 573.654 220.33 572.922 224.367Z" fill="#211534"/>
<path d="M571.387 232.796C570.654 236.832 566.786 239.509 562.757 238.774C558.724 238.038 556.05 234.171 556.782 230.134C557.515 226.097 561.383 223.421 565.417 224.155C569.45 224.889 572.124 228.759 571.387 232.795V232.796Z" fill="#211534"/>
<path d="M585.379 216.907C584.27 223.001 578.435 227.043 572.345 225.933C566.254 224.824 562.215 218.982 563.324 212.888C564.434 206.791 570.268 202.749 576.358 203.859C582.449 204.969 586.488 210.811 585.379 216.907V216.907Z" fill="#211534"/>
<path d="M584.948 227.907C584.25 231.75 580.573 234.296 576.73 233.596C572.897 232.896 570.348 229.216 571.045 225.373C571.748 221.533 575.425 218.984 579.263 219.684C583.101 220.384 585.645 224.065 584.948 227.907Z" fill="#211534"/>
<path d="M571.161 277.688C563.028 277.688 556.436 271.09 556.436 262.95V243.971C556.436 235.831 563.028 229.231 571.161 229.231C579.293 229.231 585.886 235.831 585.886 243.971V262.95C585.886 271.09 579.293 277.688 571.161 277.688Z" fill="#0885F1"/>
<path d="M564.062 233.549C564.062 236.133 566.58 238.227 569.681 238.227C572.786 238.227 575.305 236.132 575.305 233.549C575.305 230.964 572.787 228.869 569.681 228.869C566.58 228.869 564.062 230.964 564.062 233.549Z" fill="white"/>
<path d="M574.477 229.876L573.9 233.044C573.604 234.667 572.44 235.904 570.97 236.361C570.438 236.53 569.861 236.594 569.275 236.536C569.154 236.526 569.038 236.511 568.923 236.492C566.59 236.065 565.05 233.837 565.471 231.509L566.048 228.34C566.475 226.01 568.698 224.47 571.035 224.894C573.027 225.258 574.442 226.942 574.542 228.88C574.557 229.206 574.537 229.54 574.477 229.877V229.876Z" fill="#FFACAD"/>
<path d="M574.657 228.902L573.9 233.044C573.604 234.667 572.44 235.904 570.97 236.361C569.886 236.088 569.189 235.016 569.39 233.901L570.443 228.133L574.657 228.901V228.902Z" fill="#FF9099"/>
<path d="M582.414 222.697C581.346 228.575 575.716 232.472 569.846 231.401C563.976 230.331 560.083 224.697 561.147 218.819C562.215 212.941 567.845 209.045 573.719 210.115C579.595 211.186 583.488 216.818 582.414 222.697Z" fill="#FFACAD"/>
<path d="M573.719 210.115C573.168 210.014 572.626 209.973 572.084 209.957C577.05 211.667 580.166 216.781 579.198 222.11C578.229 227.438 573.508 231.126 568.26 230.974C568.772 231.148 569.299 231.3 569.846 231.401C575.716 232.471 581.345 228.575 582.414 222.696C583.487 216.818 579.594 211.185 573.719 210.115L573.719 210.115Z" fill="#FF9099"/>
<path d="M578.044 220.035C577.532 222.849 579.393 225.547 582.208 226.06C585.023 226.573 587.717 224.705 588.229 221.891C588.74 219.075 586.874 216.379 584.064 215.866C581.25 215.352 578.555 217.219 578.044 220.035Z" fill="#211534"/>
<path d="M578.335 226.701C577.823 229.518 579.69 232.214 582.5 232.727C585.314 233.24 588.008 231.374 588.52 228.557C589.031 225.744 587.17 223.045 584.356 222.532C581.541 222.021 578.847 223.887 578.335 226.701Z" fill="#211534"/>
<path d="M582.058 222.299C581.726 224.109 579.996 225.309 578.189 224.977C576.379 224.649 575.179 222.915 575.51 221.105C575.842 219.296 577.573 218.098 579.379 218.426C581.185 218.755 582.389 220.489 582.058 222.299Z" fill="#FFACAD"/>
<path d="M573.418 261.568C573.213 261.568 573.012 261.555 572.801 261.531C570.383 261.249 568.472 259.338 568.191 256.915L565.938 237.591C565.602 234.706 567.668 232.094 570.553 231.755C573.022 231.467 575.29 232.943 576.103 235.185C577.502 233.89 579.554 233.404 581.471 234.102C584.195 235.093 585.61 238.112 584.617 240.842L578.355 258.101C577.593 260.201 575.601 261.568 573.419 261.568H573.418Z" fill="#80C4FF"/>
<path d="M574.638 234.659C572.922 237.636 570.268 239.32 568.717 238.423C567.162 237.525 567.292 234.384 569.013 231.406C570.729 228.43 573.378 226.743 574.934 227.642C576.489 228.541 576.358 231.681 574.638 234.659Z" fill="#FFACAD"/>
<path d="M578.651 218.375C578.651 218.375 577.889 219.227 577.482 221.467C577.076 223.704 577.076 223.704 577.076 223.704C577.076 223.704 567.428 220.457 564.559 212.713L570.439 206.38L582.288 211.676L582.233 216.587L578.651 218.375H578.651Z" fill="#211534"/>
<path d="M577.116 233.415C576.599 236.229 578.466 238.927 581.28 239.44C584.09 239.953 586.789 238.085 587.301 235.271C587.813 232.455 585.946 229.759 583.136 229.245C580.322 228.732 577.628 230.598 577.116 233.415Z" fill="#211534"/>
<path d="M574.713 238.335C574.201 241.151 576.068 243.848 578.877 244.361C581.692 244.874 584.386 243.007 584.898 240.191C585.409 237.378 583.548 234.679 580.733 234.166C577.924 233.655 575.224 235.522 574.713 238.335Z" fill="#211534"/>
<path d="M527.648 203.348C527.648 207.424 530.95 210.729 535.023 210.729C539.097 210.729 542.398 207.424 542.398 203.348C542.398 199.27 539.097 195.964 535.023 195.964C530.95 195.964 527.648 199.27 527.648 203.348Z" fill="#FFACAD"/>
<path d="M176.159 231.939C181.963 233.827 186.16 239.281 186.16 245.718V264.379C186.16 270.817 181.963 276.273 176.159 278.159C170.354 276.273 166.156 270.817 166.156 264.379V245.718C166.156 239.281 170.354 233.827 176.159 231.939Z" fill="#596FFF"/>
<path d="M186.395 347.422H201.01L194.67 262.798H180.055L186.395 347.422Z" fill="#452B99"/>
<path d="M181.153 283.642L180.459 280.44L191.554 278.159L182.9 300.771L181.153 283.642Z" fill="#2A1E68"/>
<path d="M195.11 266.393H177.875V283.642H181.43C188.985 283.642 195.109 277.514 195.109 269.951V266.393L195.11 266.393Z" fill="#452B99"/>
<path d="M200.561 259.371C199.114 259.371 197.69 258.761 196.686 257.622L184.931 244.304C183.042 242.163 183.244 238.894 185.383 237.004C187.523 235.111 190.788 235.315 192.678 237.456L201.847 247.842L203.235 247.174C205.809 245.94 208.895 247.027 210.129 249.601C211.366 252.176 210.279 255.267 207.705 256.502L202.794 258.86C202.08 259.204 201.317 259.371 200.561 259.371Z" fill="#0885F1"/>
<path d="M161.522 347.422H176.137L183.005 262.798H168.39L161.522 347.422Z" fill="#452B99"/>
<path d="M180.633 278.869C188.628 278.869 195.11 272.382 195.11 264.379V245.718C195.11 237.719 188.628 231.232 180.633 231.232C172.638 231.232 166.156 237.719 166.156 245.718V264.379C166.156 272.382 172.638 278.869 180.633 278.869Z" fill="#0885F1"/>
<path d="M201.837 339.179C206.385 339.179 210.072 342.869 210.072 347.422H193.599C193.599 342.869 197.288 339.179 201.837 339.179Z" fill="#2A1E68"/>
<path d="M168.391 339.179C172.94 339.179 176.627 342.869 176.627 347.422H160.154C160.154 342.869 163.841 339.179 168.391 339.179Z" fill="#2A1E68"/>
<path d="M196.873 250.681C196.873 254.695 200.124 257.949 204.135 257.949C208.147 257.949 211.4 254.695 211.4 250.681C211.4 246.666 208.147 243.41 204.135 243.41C200.125 243.41 196.873 246.666 196.873 250.681Z" fill="#FFACAD"/>
<path d="M165.074 263.122C163.463 263.122 161.929 262.366 160.946 261.06C159.839 259.589 159.597 257.638 160.312 255.941L167.5 238.87C168.609 236.238 171.64 235.003 174.27 236.113C176.9 237.223 178.134 240.258 177.025 242.89L173.289 251.761L188.77 249.914C191.604 249.576 194.176 251.601 194.513 254.438C194.851 257.273 192.828 259.847 189.994 260.185L165.686 263.085C165.481 263.11 165.277 263.122 165.074 263.122Z" fill="#80C4FF"/>
<path d="M185.599 347.422H198.807V341.261H185.599V347.422Z" fill="#2A1E68"/>
<path d="M187.236 237.321C186.853 237.321 186.465 237.204 186.131 236.961L181.761 233.791C180.918 233.179 180.73 231.998 181.341 231.156C181.953 230.312 183.131 230.123 183.974 230.734L188.344 233.907C189.188 234.518 189.375 235.696 188.764 236.541C188.395 237.049 187.82 237.322 187.236 237.322V237.321Z" fill="white"/>
<path d="M177.37 231.316L177.868 234.441C178.216 236.626 180.176 238.144 182.341 237.974C182.457 237.967 182.572 237.954 182.686 237.935C184.988 237.57 186.55 235.411 186.183 233.113L185.685 229.987C185.319 227.689 183.164 226.125 180.862 226.493C178.565 226.859 177.003 229.015 177.369 231.316H177.37Z" fill="#FFACAD"/>
<path d="M177.467 231.924L177.868 234.441C178.216 236.626 180.176 238.144 182.341 237.974L181.28 231.315L177.467 231.923V231.924Z" fill="#FF9099"/>
<path d="M169.722 224.086C170.646 229.889 176.093 233.839 181.889 232.914C187.683 231.99 191.633 226.537 190.708 220.738C189.784 214.938 184.336 210.985 178.541 211.91C172.746 212.836 168.797 218.287 169.722 224.086Z" fill="#FFACAD"/>
<path d="M178.541 211.91C179.082 211.825 179.618 211.795 180.151 211.79C175.234 213.361 172.061 218.321 172.899 223.581C173.737 228.838 178.294 232.565 183.456 232.528C182.949 232.691 182.43 232.828 181.889 232.914C176.093 233.839 170.646 229.887 169.722 224.086C168.798 218.287 172.746 212.836 178.541 211.91Z" fill="#FF9099"/>
<path d="M179.657 238.529C179.274 238.529 178.887 238.413 178.553 238.17L174.182 235.001C173.339 234.389 173.151 233.208 173.762 232.363C174.374 231.521 175.552 231.332 176.395 231.944L180.765 235.113C181.608 235.727 181.796 236.906 181.185 237.75C180.817 238.259 180.241 238.529 179.657 238.529H179.657Z" fill="white"/>
<path d="M165.906 217.538C166.423 220.789 169.476 223.006 172.725 222.485C175.973 221.968 178.186 218.912 177.668 215.661C177.15 212.411 174.097 210.196 170.848 210.714C167.6 211.232 165.387 214.289 165.906 217.538Z" fill="#211534"/>
<path d="M175.011 219.603L190.085 217.196C192.387 216.83 193.955 214.665 193.588 212.362L193.433 211.387C193.066 209.082 190.902 207.513 188.6 207.881L173.526 210.287L175.011 219.603Z" fill="#211534"/>
<path d="M174.93 209.128C174.332 205.374 176.887 201.845 180.638 201.249C184.389 200.65 187.914 203.206 188.512 206.96C189.111 210.715 186.555 214.243 182.805 214.843C179.054 215.442 175.529 212.883 174.93 209.129V209.128Z" fill="#211534"/>
<path d="M170.842 210.672C170.521 208.657 171.893 206.764 173.905 206.442C175.919 206.12 177.811 207.493 178.132 209.509C178.454 211.523 177.081 213.418 175.068 213.74C173.055 214.059 171.163 212.686 170.842 210.673V210.672Z" fill="#211534"/>
<path d="M166.898 223.772C167.276 226.139 169.497 227.75 171.861 227.371C174.225 226.996 175.835 224.772 175.458 222.407C175.081 220.04 172.859 218.429 170.496 218.807C168.132 219.183 166.522 221.408 166.898 223.772Z" fill="#211534"/>
<path d="M170.084 223.706C170.368 225.491 172.045 226.706 173.829 226.422C175.613 226.137 176.828 224.46 176.543 222.675C176.258 220.89 174.582 219.672 172.798 219.957C171.014 220.242 169.799 221.921 170.084 223.707V223.706Z" fill="#FFACAD"/>
<path d="M176.942 223.961L177.111 223.934C177.512 223.87 177.784 223.495 177.72 223.092L177.111 219.269L175.491 219.527L176.101 223.352C176.165 223.753 176.542 224.025 176.942 223.961H176.942Z" fill="#211534"/>
<path d="M175.661 220.592C175.856 221.815 177.004 222.648 178.225 222.452C179.446 222.257 180.278 221.108 180.084 219.886C179.889 218.663 178.741 217.83 177.519 218.027C176.298 218.22 175.466 219.37 175.661 220.592H175.661Z" fill="#211534"/>
<path d="M196.454 259.245L191.414 258.312C190.239 258.093 189.9 256.79 190.656 255.397L198.397 241.131C199.152 239.739 200.718 238.786 201.894 239.002L206.934 239.936C208.107 240.154 208.449 241.457 207.693 242.852L199.95 257.116C199.195 258.508 197.63 259.461 196.454 259.244V259.245Z" fill="#1F143F"/>
<path d="M182.119 255.049C182.119 259.064 185.371 262.32 189.382 262.32C193.393 262.32 196.644 259.064 196.644 255.049C196.644 251.035 193.393 247.781 189.382 247.781C185.371 247.781 182.119 251.034 182.119 255.049Z" fill="#FFACAD"/>
<path d="M484.803 272.217L479.821 271.118C477.984 270.712 476.464 269.426 475.767 267.677C475.065 265.931 475.265 263.95 476.314 262.383L483.553 251.543C481.336 250.399 479.81 248.085 479.81 245.414C479.81 244.383 480.041 243.406 480.447 242.527C478.767 240.58 477.743 238.04 477.743 235.263C477.743 230.728 480.458 226.831 484.346 225.103C484.492 224.998 484.647 224.904 484.802 224.816V272.217L484.803 272.217Z" fill="#D8DFF4"/>
<path d="M622.615 347.304C622.615 347.304 598.283 348.133 559.251 349.246C551.022 349.476 542.137 349.722 532.69 349.978C530.423 350.044 528.115 350.103 525.777 350.169C519.335 350.333 512.647 350.51 505.749 350.687C499.633 350.844 493.347 350.996 486.915 351.156C396.204 353.366 275.951 355.57 177.748 354.866C168.681 354.802 159.801 354.713 151.15 354.598C148.746 354.561 146.358 354.529 143.989 354.493C134.838 354.347 125.964 354.176 117.419 353.967C101.608 353.579 86.917 353.074 73.6618 352.43C49.0363 351.234 29.3706 349.565 16.7122 347.304H622.616H622.615Z" fill="#2A1E68"/>
<path d="M483.052 225.324C483.052 231.462 488.029 236.44 494.159 236.44C500.295 236.44 505.267 231.462 505.267 225.324C505.267 219.185 500.295 214.208 494.159 214.208C488.029 214.208 483.052 219.185 483.052 225.324Z" fill="#1F143F"/>
<path d="M485.124 235.475C485.124 239.281 488.205 242.365 492.008 242.365C495.81 242.365 498.891 239.281 498.891 235.475C498.891 231.671 495.81 228.585 492.008 228.585C488.205 228.585 485.124 231.672 485.124 235.475Z" fill="#1F143F"/>
<path d="M500.767 230.905C506.617 232.806 510.846 238.303 510.846 244.793V263.601C510.846 270.091 506.617 275.591 500.767 277.491C494.917 275.591 490.682 270.091 490.682 263.601V244.793C490.682 238.303 494.917 232.806 500.767 230.905Z" fill="#596FFF"/>
<path d="M505.137 347.304H519.869V262.008H505.137V347.304Z" fill="#452B99"/>
<path d="M505.082 293.854L505.101 279.792L516.285 277.491L505.277 300.282L505.082 293.854Z" fill="#2A1E68"/>
<path d="M519.867 265.632H502.498V283.018H504.791C513.119 283.018 519.867 276.264 519.867 267.927V265.632V265.632Z" fill="#452B99"/>
<path d="M528.626 252.228C527.829 252.228 527.026 252.058 526.274 251.717L511.739 245.108C508.874 243.804 507.605 240.425 508.909 237.557C510.208 234.691 513.585 233.424 516.45 234.726L527.753 239.868L535.234 233.707C537.667 231.708 541.254 232.06 543.251 234.491C545.253 236.921 544.901 240.514 542.474 242.515L532.244 250.929C531.21 251.784 529.926 252.229 528.626 252.229V252.228Z" fill="#0885F1"/>
<path d="M486.012 347.304H500.742L507.665 262.008H492.936L486.012 347.304Z" fill="#452B99"/>
<path d="M505.277 278.206C513.334 278.206 519.866 271.667 519.866 263.601V244.793C519.866 236.729 513.334 230.191 505.277 230.191C497.215 230.191 490.682 236.73 490.682 244.793V263.601C490.682 271.668 497.215 278.206 505.277 278.206Z" fill="#0885F1"/>
<path d="M521.502 338.994C526.088 338.994 529.806 342.714 529.806 347.304H513.2C513.2 342.714 516.922 338.994 521.503 338.994H521.502Z" fill="#2A1E68"/>
<path d="M492.936 338.994C497.521 338.994 501.239 342.714 501.239 347.304H484.632C484.632 342.714 488.35 338.994 492.936 338.994H492.936Z" fill="#2A1E68"/>
<path d="M531.536 238.109C531.536 242.156 534.812 245.436 538.856 245.436C542.9 245.436 546.176 242.155 546.176 238.109C546.176 234.065 542.9 230.784 538.856 230.784C534.812 230.784 531.536 234.065 531.536 238.109Z" fill="#FFACAD"/>
<path d="M503.868 269.293H527.367L541.686 234.959H518.191L503.868 269.293Z" fill="white"/>
<path d="M494.16 214.989C494.16 221.127 499.132 226.105 505.267 226.105C511.403 226.105 516.375 221.127 516.375 214.989C516.375 208.848 511.403 203.871 505.267 203.871C499.132 203.871 494.16 208.848 494.16 214.989Z" fill="#1F143F"/>
<path d="M512.301 234.468C512.301 237.029 509.808 239.104 506.732 239.104C503.657 239.104 501.163 237.029 501.163 234.468C501.163 231.907 503.657 229.832 506.732 229.832C509.808 229.832 512.301 231.906 512.301 234.468Z" fill="white"/>
<path d="M502.488 229.567V232.759C502.488 234.394 503.406 235.808 504.756 236.513C505.247 236.774 505.794 236.938 506.376 236.985C506.497 236.997 506.612 237.005 506.727 237.005C509.08 237.005 510.977 235.107 510.977 232.759V229.567C510.977 227.22 509.08 225.324 506.727 225.324C504.721 225.324 503.04 226.714 502.603 228.585C502.528 228.902 502.488 229.231 502.488 229.567V229.567Z" fill="#FFACAD"/>
<path d="M502.488 228.585V232.759C502.488 234.395 503.406 235.809 504.756 236.514C505.859 236.44 506.733 235.519 506.733 234.398V228.585H502.488V228.585Z" fill="#FF9099"/>
<path d="M496.021 221.16C496.021 227.079 500.817 231.877 506.732 231.877C512.647 231.877 517.443 227.079 517.443 221.16C517.443 215.239 512.647 210.439 506.732 210.439C500.817 210.439 496.021 215.239 496.021 221.16Z" fill="#FFACAD"/>
<path d="M506.732 210.44C507.284 210.44 507.821 210.496 508.353 210.575C503.21 211.36 499.262 215.792 499.262 221.16C499.262 226.525 503.211 230.959 508.353 231.743C507.821 231.823 507.284 231.877 506.732 231.877C500.817 231.877 496.021 227.079 496.021 221.16C496.021 215.239 500.818 210.439 506.732 210.439V210.44Z" fill="#FF9099"/>
<path d="M497.757 219.34C497.757 222.176 495.464 224.475 492.63 224.475C489.795 224.475 487.497 222.176 487.497 219.34C487.497 216.507 489.795 214.208 492.63 214.208C495.464 214.208 497.757 216.507 497.757 219.34Z" fill="#1F143F"/>
<path d="M488.32 227.735C488.32 231.17 491.104 233.957 494.541 233.957C497.973 233.957 500.757 231.171 500.757 227.735C500.757 224.298 497.973 221.511 494.541 221.511C491.104 221.511 488.32 224.298 488.32 227.735Z" fill="#1F143F"/>
<path d="M496.442 220.835C496.442 222.658 497.917 224.136 499.738 224.136C501.56 224.136 503.034 222.658 503.034 220.835C503.034 219.014 501.559 217.535 499.738 217.535C497.917 217.535 496.442 219.014 496.442 220.835Z" fill="#FFACAD"/>
<path d="M494.626 213.27C494.626 217.449 498.013 220.835 502.187 220.835C506.361 220.835 509.747 217.45 509.747 213.27C509.747 209.093 506.361 205.705 502.187 205.705C498.013 205.705 494.626 209.093 494.626 213.27Z" fill="#1F143F"/>
<path d="M508.353 213.27C508.353 217.027 511.393 220.069 515.146 220.069C518.898 220.069 521.939 217.027 521.939 213.27C521.939 209.516 518.899 206.471 515.146 206.471C511.393 206.471 508.353 209.516 508.353 213.27Z" fill="#1F143F"/>
<path d="M508.368 266.169C507.961 266.169 507.55 266.125 507.133 266.034L485.134 261.18C483.292 260.772 481.777 259.486 481.075 257.737C480.367 255.992 480.578 254.011 481.622 252.443L492.102 236.748C493.848 234.131 497.39 233.426 500.004 235.177C502.618 236.925 503.326 240.466 501.574 243.083L495.73 251.842L509.586 254.902C512.662 255.579 514.598 258.622 513.926 261.696C513.339 264.358 510.981 266.169 508.368 266.169Z" fill="#80C4FF"/>
<path d="M501.043 260.468C501.043 264.515 504.319 267.795 508.363 267.795C512.407 267.795 515.683 264.515 515.683 260.468C515.683 256.422 512.407 253.142 508.363 253.142C504.319 253.142 501.043 256.422 501.043 260.468Z" fill="#FFACAD"/>
<path d="M505.137 347.304H518.451V341.094H505.137V347.304Z" fill="#2A1E68"/>
<path d="M577.437 187.662V191.934H573.002V187.662H577.437ZM573.389 181.559C573.559 181.039 573.936 180.395 574.523 179.626L576.389 177.218C576.841 176.631 577.157 176.128 577.337 175.709C577.518 175.291 577.609 174.845 577.609 174.37C577.609 173.647 577.413 173.075 577.016 172.658C576.62 172.24 576.018 172.031 575.205 172.031C574.388 172.031 573.8 172.251 573.425 172.692C573.053 173.132 572.853 173.805 572.832 174.709H568.733C568.779 172.584 569.366 170.968 570.495 169.861C571.623 168.753 573.239 168.199 575.341 168.199C576.65 168.199 577.804 168.459 578.813 168.979C579.815 169.499 580.588 170.217 581.13 171.132C581.672 172.047 581.948 173.082 581.948 174.235C581.948 175.048 581.807 175.799 581.537 176.489C581.266 177.179 580.829 177.919 580.217 178.71L578.251 181.355C577.89 181.83 577.649 182.243 577.523 182.593C577.398 182.944 577.337 183.401 577.337 183.967V185.391H573.138V183.661C573.138 182.78 573.223 182.079 573.389 181.559H573.389Z" fill="#FF5B97"/>
<path d="M173.856 191.286L175.196 195.343L170.981 196.736L169.642 192.679L173.856 191.286ZM168.1 186.761C168.098 186.214 168.254 185.484 168.571 184.57L169.586 181.699C169.831 181 169.973 180.422 170.014 179.969C170.054 179.515 170 179.062 169.851 178.612C169.624 177.926 169.258 177.445 168.752 177.172C168.245 176.899 167.606 176.89 166.834 177.146C166.062 177.401 165.568 177.796 165.352 178.332C165.137 178.867 165.159 179.568 165.422 180.434L161.529 181.721C160.906 179.689 160.958 177.97 161.683 176.563C162.408 175.157 163.767 174.124 165.762 173.464C167.006 173.054 168.186 172.937 169.303 173.115C170.421 173.294 171.38 173.731 172.182 174.431C172.983 175.13 173.565 176.027 173.926 177.122C174.181 177.894 174.288 178.651 174.248 179.391C174.206 180.13 174.019 180.971 173.688 181.914L172.652 185.042C172.457 185.606 172.356 186.074 172.348 186.446C172.34 186.818 172.424 187.272 172.601 187.808L173.047 189.161L169.059 190.48L168.517 188.838C168.241 188.001 168.102 187.309 168.1 186.762V186.761Z" fill="#FF5B97"/>
<path d="M590.547 187.242C590.998 186.932 591.686 186.651 592.624 186.398L595.564 185.62C596.281 185.427 596.833 185.221 597.229 184.998C597.631 184.776 597.972 184.477 598.263 184.099C598.699 183.525 598.89 182.952 598.83 182.379C598.77 181.806 598.419 181.273 597.771 180.779C597.124 180.284 596.522 180.098 595.96 180.222C595.393 180.345 594.831 180.759 594.259 181.464L591.008 178.97C592.333 177.31 593.777 176.384 595.348 176.191C596.918 175.998 598.539 176.541 600.21 177.819C601.248 178.615 602.01 179.526 602.487 180.55C602.974 181.574 603.15 182.615 603.024 183.672C602.899 184.729 602.487 185.714 601.79 186.63C601.294 187.276 600.731 187.791 600.095 188.173C599.462 188.556 598.665 188.875 597.697 189.133L594.531 190.038C593.959 190.194 593.512 190.375 593.201 190.577C592.89 190.781 592.564 191.106 592.218 191.555L591.355 192.686L588.019 190.13L589.072 188.757C589.604 188.057 590.096 187.552 590.547 187.242H590.547ZM590.055 194.553L587.461 197.944L583.939 195.245L586.528 191.852L590.055 194.553Z" fill="#FF5B97"/>
<path d="M194.042 186.468C194.492 186.158 195.183 185.877 196.116 185.624L199.057 184.846C199.773 184.654 200.33 184.447 200.728 184.225C201.125 184.003 201.468 183.703 201.755 183.326C202.194 182.752 202.386 182.178 202.325 181.606C202.266 181.033 201.913 180.499 201.267 180.006C200.622 179.511 200.016 179.325 199.452 179.449C198.89 179.572 198.323 179.985 197.757 180.69L194.501 178.196C195.828 176.536 197.276 175.61 198.845 175.418C200.414 175.226 202.033 175.767 203.7 177.045C204.741 177.842 205.501 178.753 205.985 179.777C206.468 180.801 206.645 181.842 206.519 182.898C206.394 183.955 205.982 184.941 205.281 185.856C204.787 186.502 204.223 187.017 203.59 187.4C202.955 187.782 202.158 188.102 201.191 188.36L198.027 189.265C197.45 189.422 197.006 189.601 196.695 189.804C196.384 190.007 196.057 190.332 195.713 190.782L194.849 191.912L191.513 189.357L192.563 187.984C193.098 187.284 193.591 186.779 194.042 186.469V186.468ZM193.55 193.777L190.955 197.171L187.431 194.472L190.026 191.078L193.55 193.777Z" fill="#FF5B97"/>
<path d="M274.43 199.272H308.929V164.744H274.43V199.272Z" fill="#DEE4F6"/>
<path d="M321.306 287.363C320.724 287.363 320.128 287.321 319.525 287.23L252.071 277.229C248.043 276.632 244.976 274.17 243.342 270.99C244.441 271.547 245.663 271.947 246.987 272.143L314.441 282.143C315.045 282.233 315.641 282.275 316.226 282.275C324.218 282.275 330.114 274.19 327.182 266.362L308.383 216.2L311.437 215.873L332.263 271.449C335.197 279.277 329.3 287.363 321.306 287.363H321.306Z" fill="#D8DFF4"/>
<path d="M314.441 282.142L246.987 272.143C238.121 270.828 233.921 260.468 239.367 253.342L282.114 197.408C287.727 190.06 299.226 191.765 302.472 200.426L327.182 266.361C330.329 274.761 323.31 283.458 314.441 282.142H314.441Z" fill="#FF5B97"/>
<path d="M247.78 266.789C244.537 266.307 243.232 263.901 242.822 262.886C242.41 261.875 241.672 259.238 243.661 256.631L286.408 200.696C287.834 198.83 290.068 197.924 292.389 198.268C294.708 198.612 296.585 200.129 297.409 202.327L322.118 268.262C323.269 271.336 321.797 273.644 321.11 274.494C320.425 275.345 318.478 277.271 315.234 276.789L247.78 266.789V266.789Z" fill="white"/>
<path d="M293.378 223.453C292.999 226.004 286.859 253.224 284.31 252.846C281.761 252.468 283.77 224.636 284.148 222.085C284.526 219.534 286.896 217.771 289.445 218.149C291.993 218.527 293.755 220.902 293.377 223.453L293.378 223.453Z" fill="#FF5B97"/>
<path d="M286.741 261.077C286.449 263.052 284.614 264.414 282.642 264.122C280.669 263.83 279.307 261.993 279.599 260.019C279.891 258.044 281.727 256.682 283.699 256.974C285.671 257.266 287.033 259.103 286.741 261.077Z" fill="#FF5B97"/>
<path d="M224.714 162.614C220.156 162.614 216.601 158.163 217.99 153.521L230.094 113.057C231.059 109.833 233.943 108.017 236.883 108.017C238.787 108.017 240.715 108.781 242.155 110.42L270.009 142.153C273.557 146.196 271.467 152.565 266.214 153.714L226.252 162.446C225.732 162.559 225.217 162.614 224.714 162.614Z" fill="#D8DFF4"/>
<path d="M262.284 151.94L222.322 160.673C217.07 161.82 212.516 156.902 214.057 151.748L226.164 111.283C227.754 105.968 234.564 104.48 238.225 108.648L266.08 140.38C269.627 144.422 267.535 150.793 262.284 151.941V151.94Z" fill="#FF5B97"/>
<path d="M221.63 157.501C219.709 157.921 218.466 156.848 218.021 156.366C217.575 155.886 216.601 154.564 217.165 152.679L229.27 112.214C229.675 110.865 230.734 109.88 232.108 109.58C233.484 109.28 234.858 109.732 235.785 110.79L263.64 142.522C264.938 144 264.605 145.609 264.399 146.231C264.195 146.854 263.512 148.348 261.589 148.768L221.629 157.5L221.63 157.501Z" fill="white"/>
<path d="M238.009 123.498C238.34 125.01 240.673 141.584 239.164 141.914C237.653 142.244 232.871 126.204 232.543 124.693C232.211 123.182 233.168 121.689 234.68 121.359C236.188 121.029 237.68 121.986 238.009 123.498V123.498Z" fill="#FF5B97"/>
<path d="M242.272 146.013C242.528 147.183 241.789 148.338 240.619 148.593C239.451 148.849 238.298 148.107 238.043 146.938C237.788 145.768 238.529 144.614 239.697 144.358C240.864 144.103 242.02 144.844 242.272 146.013Z" fill="#FF5B97"/>
<path d="M417.555 302.505H399.506L419.741 298.083C427.614 296.362 430.749 286.815 425.43 280.755L403.635 255.926L407.727 256.533L431.324 283.414C436.643 289.472 433.507 299.021 425.634 300.74L417.556 302.505H417.555Z" fill="#D8DFF4"/>
<path d="M419.741 298.083L359.85 311.17C351.977 312.889 345.152 305.517 347.463 297.793L365.608 237.147C367.99 229.181 378.199 226.949 383.682 233.196L425.43 280.754C430.749 286.814 427.614 296.361 419.741 298.082V298.083Z" fill="#FF5B97"/>
<path d="M358.815 306.416C355.935 307.045 354.073 305.437 353.406 304.715C352.738 303.995 351.276 302.014 352.123 299.188L370.265 238.542C370.868 236.521 372.46 235.046 374.518 234.596C376.579 234.146 378.64 234.824 380.031 236.408L421.78 283.967C423.723 286.184 423.222 288.593 422.916 289.526C422.609 290.461 421.583 292.698 418.706 293.329L358.815 306.416L358.815 306.416Z" fill="white"/>
<path d="M383.363 255.454C383.856 257.718 387.354 282.56 385.09 283.053C382.828 283.549 375.662 259.508 375.166 257.244C374.673 254.981 376.108 252.744 378.37 252.247C380.632 251.754 382.867 253.188 383.362 255.454H383.363Z" fill="#FF5B97"/>
<path d="M389.754 289.199C390.134 290.952 389.025 292.68 387.274 293.063C385.524 293.447 383.795 292.337 383.412 290.584C383.029 288.831 384.138 287.1 385.889 286.717C387.641 286.336 389.371 287.446 389.753 289.199H389.754Z" fill="#FF5B97"/>
<path d="M458.86 263.925C458.027 263.925 457.174 263.863 456.316 263.736L407.727 256.532L402.16 250.192L449.848 257.261C450.709 257.389 451.558 257.451 452.389 257.451C463.801 257.451 472.22 245.91 468.03 234.735L432.76 140.619C432.453 139.803 432.095 139.03 431.693 138.301C434.985 140.12 437.725 143.084 439.227 147.093L474.497 241.211C478.681 252.383 470.268 263.926 458.859 263.926L458.86 263.925ZM361.843 249.731L360.03 249.461C354.502 248.64 350.243 245.356 347.849 241.071C349.549 242.012 351.465 242.677 353.563 242.988L363.423 244.449L361.843 249.731H361.843Z" fill="#D8DFF4"/>
<path d="M407.727 256.532L403.635 255.925L398.069 249.585L402.16 250.192L407.727 256.532Z" fill="#B7C3EA"/>
<path d="M403.635 255.925L396.196 254.823L390.629 248.484L398.068 249.585L403.635 255.925ZM366.702 250.45L361.843 249.731L363.422 244.449L368.282 245.168L366.702 250.45Z" fill="#D85090"/>
<path d="M396.196 254.823L381.13 252.589C380.561 252.306 379.926 252.151 379.268 252.151C379.037 252.151 378.804 252.169 378.569 252.208L366.702 250.45L368.282 245.168L390.629 248.483L396.196 254.823L396.196 254.823Z" fill="#D8DFF4"/>
<path d="M381.13 252.589L378.569 252.208C378.805 252.169 379.038 252.151 379.268 252.151C379.926 252.151 380.561 252.306 381.13 252.589Z" fill="#D85090"/>
<path d="M449.848 257.261L353.562 242.988C340.906 241.112 334.912 226.323 342.685 216.153L403.701 136.311C411.716 125.824 428.126 128.257 432.761 140.619L468.031 234.735C472.521 246.724 462.507 259.137 449.848 257.261V257.261Z" fill="#FF5B97"/>
<path d="M354.693 235.344C350.064 234.66 348.202 231.222 347.616 229.778C347.03 228.332 345.974 224.568 348.816 220.848L409.832 141.005C411.866 138.344 415.058 137.048 418.367 137.539C421.679 138.03 424.358 140.196 425.533 143.332L460.801 237.449C462.447 241.834 460.345 245.129 459.367 246.345C458.389 247.558 455.609 250.305 450.979 249.62L354.694 235.344H354.693Z" fill="white"/>
<path d="M419.778 173.488C419.241 177.129 410.474 215.984 406.836 215.446C403.2 214.906 406.066 175.176 406.603 171.535C407.143 167.894 410.529 165.379 414.167 165.919C417.805 166.458 420.318 169.847 419.778 173.488Z" fill="#FF5B97"/>
<path d="M410.308 227.192C409.891 230.012 407.271 231.956 404.457 231.539C401.64 231.121 399.698 228.499 400.115 225.68C400.532 222.863 403.152 220.917 405.965 221.334C408.782 221.751 410.725 224.374 410.308 227.192Z" fill="#FF5B97"/>
<path d="M344.471 51.9824H328.357C326.907 50.5774 325.438 49.2004 323.941 47.8441C325.98 47.278 328.087 46.9927 330.197 46.9927C335.238 46.9927 340.302 48.6228 344.471 51.9829V51.9824Z" fill="#D8DFF4"/>
<path d="M328.357 51.9825H315.806C318.239 50.0422 321.016 48.6555 323.941 47.8441C325.438 49.2009 326.907 50.5774 328.357 51.9825Z" fill="#BCC7EC"/>
<path d="M368.469 84.6574H299.018L309.013 61.0125C310.595 57.269 312.965 54.2481 315.806 51.9819H344.47C346.116 53.3078 347.622 54.9039 348.933 56.7747L368.468 84.657L368.469 84.6574Z" fill="#0774E7"/>
<path d="M266.916 217.292C256.376 212.32 250.461 199.532 255.54 187.522L299.018 84.658H368.469L404.211 135.673C404.037 135.881 403.868 136.093 403.701 136.311L345.675 212.239L311.436 215.873L307.555 205.514C306.478 202.644 304.498 200.537 302.126 199.272H308.929V164.744H274.43V199.272H280.689L266.915 217.292H266.916Z" fill="#D8DFF4"/>
<path d="M308.929 199.272H302.126C302.054 199.235 301.986 199.199 301.917 199.164C299.803 195.01 295.635 192.784 291.422 192.784C287.98 192.784 284.509 194.271 282.114 197.408L280.689 199.272H274.43V164.744H308.929V199.272Z" fill="#BCC7EC"/>
<path d="M308.382 216.2L302.472 200.426C302.323 200.025 302.156 199.64 301.971 199.272H302.126C304.498 200.536 306.478 202.643 307.555 205.514L311.436 215.873L308.382 216.2Z" fill="#B7C3EA"/>
<path d="M302.125 199.272H301.971C301.952 199.235 301.935 199.199 301.917 199.164C301.986 199.199 302.054 199.235 302.125 199.272Z" fill="#9FAEE2"/>
<path d="M272.377 219.058C270.453 218.699 268.623 218.098 266.916 217.292L280.689 199.272L282.115 197.408C284.509 194.271 287.98 192.784 291.423 192.784C295.635 192.784 299.804 195.01 301.918 199.164C301.935 199.199 301.952 199.235 301.972 199.272C302.156 199.641 302.324 200.026 302.472 200.427L308.383 216.2L302.828 216.789L297.409 202.327C296.585 200.129 294.708 198.612 292.39 198.268C292.066 198.219 291.742 198.197 291.423 198.197C289.461 198.197 287.635 199.091 286.409 200.696L272.378 219.058H272.377Z" fill="#D85090"/>
<path d="M276.572 219.444C275.133 219.444 273.731 219.308 272.377 219.058L286.408 200.697C287.634 199.091 289.46 198.197 291.422 198.197C291.741 198.197 292.065 198.219 292.389 198.269C294.707 198.612 296.584 200.13 297.408 202.327L302.827 216.79L289.658 218.187C289.587 218.172 289.516 218.163 289.445 218.15C289.214 218.116 288.983 218.099 288.756 218.099C288.112 218.099 287.492 218.234 286.925 218.477L279.092 219.309C278.241 219.4 277.399 219.444 276.572 219.444V219.444Z" fill="#D8DFF4"/>
<path d="M286.925 218.476C287.492 218.233 288.113 218.098 288.756 218.098C288.984 218.098 289.214 218.115 289.445 218.15C289.516 218.162 289.587 218.172 289.658 218.187L286.925 218.477L286.925 218.476Z" fill="#D85090"/>
<path d="M345.675 212.239L403.701 136.311C403.867 136.093 404.037 135.88 404.211 135.673L408.848 142.291L356.251 211.117L345.675 212.239Z" fill="#D85090"/>
<path d="M356.251 211.117L408.848 142.291L427.734 169.244C437.682 183.446 428.907 203.076 411.817 205.214C415.497 193.583 419.425 175.888 419.778 173.488C420.318 169.847 417.806 166.459 414.167 165.919C413.836 165.87 413.506 165.846 413.183 165.846C409.938 165.846 407.094 168.225 406.603 171.535C406.233 174.051 404.749 193.794 405.068 205.936L356.251 211.117Z" fill="#D8DFF4"/>
<path d="M405.068 205.936C404.748 193.795 406.233 174.051 406.603 171.535C407.094 168.225 409.938 165.846 413.183 165.846C413.506 165.846 413.836 165.87 414.167 165.919C417.805 166.458 420.317 169.847 419.778 173.488C419.425 175.888 415.497 193.583 411.817 205.214C411.667 205.234 411.518 205.251 411.365 205.266L405.068 205.936V205.936Z" fill="#D85090"/>
<path d="M402.889 196.782L270.616 210.823C253.229 212.669 240.251 195.155 247.061 179.038L300.536 52.5291C307.56 35.9122 330.106 33.5186 340.457 48.2918L419.255 160.76C429.294 175.087 420.276 194.939 402.889 196.783V196.782Z" fill="#FF5B97"/>
<path d="M269.502 200.325C263.143 201.001 259.504 197.089 258.236 195.378C256.968 193.666 254.284 189.046 256.777 183.151L310.251 56.6417C312.032 52.4256 315.814 49.6201 320.362 49.1368C324.911 48.6545 329.194 50.6036 331.821 54.3521L410.62 166.822C414.29 172.062 412.636 177.141 411.756 179.082C410.873 181.023 408.135 185.61 401.776 186.285L269.502 200.325H269.502Z" fill="white"/>
<path d="M334.503 96.2207C335.032 101.223 336.701 155.631 331.703 156.161C326.706 156.692 316.935 103.144 316.405 98.1421C315.875 93.1395 319.496 88.655 324.493 88.1244C329.491 87.5947 333.973 91.2194 334.503 96.2207Z" fill="#FF5B97"/>
<path d="M340.305 170.518C340.717 174.389 337.913 177.86 334.047 178.27C330.178 178.681 326.711 175.876 326.301 172.005C325.889 168.135 328.694 164.663 332.56 164.253C336.428 163.843 339.895 166.648 340.305 170.518Z" fill="#FF5B97"/>
<path d="M141.562 90.2239L97.5811 97.8599L107.297 104.052L109.93 116.304L115.889 111.654L122.894 120.121L141.562 90.2239Z" fill="#BEC9ED"/>
<path d="M105.607 90.5461L115.322 96.7388L149.588 82.9095L105.607 90.5461Z" fill="white"/>
<path d="M119.572 99.0901L130.92 112.807L149.588 82.9095L119.572 99.0901Z" fill="white"/>
<path d="M119.572 99.0901L117.955 108.99L115.322 96.7388L149.588 82.9095L119.572 99.0901Z" fill="#D1D6DE"/>
<path d="M117.955 108.99L123.914 104.339L119.572 99.0901L117.955 108.99Z" fill="#ADB1B8"/>
<path d="M108.783 114.342L107.738 113.173C108.657 112.351 109.586 111.514 110.531 110.659L111.582 111.822C110.635 112.679 109.703 113.519 108.783 114.342H108.783ZM103.125 119.32L102.102 118.131C103 117.358 103.951 116.529 104.93 115.666L105.966 116.844C104.982 117.71 104.026 118.543 103.124 119.32L103.125 119.32ZM97.3406 124.164L96.3547 122.945C97.2845 122.192 98.2575 121.39 99.2462 120.561L100.252 121.763C99.2572 122.598 98.2777 123.406 97.3411 124.164H97.3406ZM44.2586 125.814L43.8991 124.287C45.3025 123.956 46.6884 123.932 47.9759 124.216L47.6384 125.748C46.5804 125.514 45.4344 125.537 44.2586 125.814ZM91.3719 128.796L90.4408 127.535C91.4165 126.813 92.4194 126.052 93.4223 125.274L94.3829 126.512C93.3713 127.299 92.3583 128.067 91.3724 128.796H91.3719ZM38.2275 129.38L37.1211 128.269C38.0734 127.319 39.1154 126.498 40.2181 125.831L41.0297 127.173C40.0337 127.776 39.0906 128.518 38.2275 129.38ZM52.7375 129.975C52.1416 128.858 51.4302 127.941 50.6218 127.25L51.6408 126.058C52.5978 126.876 53.4314 127.945 54.1203 129.235L52.7375 129.975ZM85.1642 133.121L84.3075 131.808C85.3302 131.14 86.3717 130.436 87.4045 129.716L88.3002 131.003C87.2546 131.733 86.1993 132.445 85.1637 133.121L85.1642 133.121ZM34.4734 135.403L32.9853 134.911C33.3863 133.694 33.9542 132.495 34.6725 131.347L36.0009 132.179C35.3489 133.221 34.8348 134.306 34.4729 135.403L34.4734 135.403ZM54.7948 136.906C54.5911 135.571 54.3451 134.397 54.0407 133.318L55.549 132.892C55.8704 134.034 56.1307 135.27 56.3436 136.67L54.7944 136.906H54.7948ZM78.6906 137.047L77.9255 135.678C78.9987 135.077 80.0835 134.444 81.1484 133.798L81.9614 135.139C80.8808 135.794 79.7795 136.436 78.6911 137.046L78.6906 137.047ZM71.955 140.509L71.2896 139.089C72.4107 138.562 73.5373 138.009 74.6381 137.443L75.3541 138.839C74.2362 139.413 73.0926 139.975 71.955 140.509ZM33.1113 142.832C32.5788 141.631 32.3089 140.311 32.3089 138.907L32.3098 138.847L33.8765 138.857V138.908C33.8765 140.091 34.1009 141.197 34.5437 142.197L33.1113 142.833V142.832ZM64.9967 143.489L64.4288 142.028C65.5954 141.574 66.7579 141.099 67.884 140.617L68.5002 142.059C67.358 142.547 66.179 143.029 64.9963 143.489H64.9967ZM55.6064 144.337C55.5034 143.096 55.3843 141.842 55.251 140.609L56.8094 140.44C56.9432 141.687 57.0641 142.955 57.168 144.207L55.606 144.337L55.6064 144.337ZM57.8679 146.017L57.3874 144.524C58.5862 144.138 59.7767 143.735 60.9281 143.328L61.45 144.807C60.2857 145.219 59.081 145.626 57.8679 146.017V146.017ZM39.0266 148.115C37.7051 147.615 36.5376 146.935 35.5577 146.093L36.5789 144.903C37.4204 145.626 38.4298 146.213 39.5807 146.647L39.0271 148.115H39.0266ZM50.597 148.14L50.2204 146.617C51.3585 146.336 52.515 146.003 53.5078 145.714L53.8136 145.624L54.255 147.13L53.9451 147.22C52.9376 147.514 51.7636 147.852 50.597 148.14V148.14ZM44.2623 149.029C43.9004 149.028 43.5523 149.019 43.2084 148.998C43.1058 148.992 43.0038 148.984 42.9008 148.976L43.0277 147.413C43.1192 147.42 43.2102 147.427 43.3013 147.432C43.6135 147.451 43.9354 147.46 44.2591 147.46H44.2614C45.0188 147.46 45.7904 147.411 46.6204 147.307L46.8116 148.864C45.9182 148.974 45.0836 149.029 44.2619 149.029H44.2623ZM56.0396 151.814C55.9982 150.573 55.9408 149.314 55.869 148.072L57.4334 147.982C57.5056 149.236 57.564 150.508 57.6058 151.761L56.0396 151.813V151.814ZM57.6743 159.327L56.1077 159.303C56.1187 158.516 56.1251 157.72 56.1251 156.938C56.1251 156.478 56.1233 156.018 56.1192 155.558L57.6867 155.544C57.6904 156.008 57.6927 156.473 57.6927 156.938C57.6927 157.728 57.6867 158.532 57.6748 159.327H57.6743ZM57.3759 166.887L55.8115 166.787C55.8906 165.546 55.9555 164.287 56.0047 163.047L57.5709 163.109C57.5212 164.362 57.4554 165.633 57.3759 166.887ZM56.7137 174.423L55.1563 174.249C55.2947 173.014 55.4198 171.759 55.5287 170.522L57.0903 170.659C56.9804 171.91 56.8535 173.176 56.7137 174.423ZM55.6929 181.92L54.1456 181.671C54.3424 180.443 54.5272 179.196 54.6951 177.965L56.2479 178.177C56.0782 179.421 55.892 180.68 55.6929 181.92ZM54.3152 189.359L52.7817 189.036C53.0369 187.818 53.2815 186.582 53.5073 185.361L55.0487 185.647C54.8201 186.881 54.5732 188.129 54.3157 189.359H54.3152ZM52.5844 196.723L51.0683 196.328C51.3801 195.127 51.6836 193.905 51.9682 192.692L53.4935 193.052C53.2057 194.276 52.8994 195.51 52.584 196.724L52.5844 196.723ZM50.5041 203.996L49.0083 203.529C49.3775 202.343 49.739 201.138 50.0811 199.939L51.5875 200.371C51.2417 201.58 50.8775 202.8 50.5037 203.996L50.5041 203.996ZM48.078 211.161L46.6066 210.624C47.0333 209.455 47.4517 208.266 47.85 207.09L49.3348 207.594C48.9324 208.782 48.5094 209.983 48.078 211.162V211.161ZM45.3084 218.2L43.8646 217.592C44.3483 216.445 44.8238 215.276 45.2781 214.125L46.7362 214.7C46.2778 215.863 45.7977 217.042 45.3089 218.201L45.3084 218.2ZM42.199 225.098L40.7869 224.418C41.3249 223.298 41.8574 222.157 42.3673 221.025L43.7961 221.671C43.2801 222.815 42.743 223.968 42.199 225.098ZM38.754 231.834L37.3772 231.084C37.9704 229.995 38.5576 228.88 39.1232 227.775L40.5188 228.489C39.9472 229.607 39.3536 230.731 38.7544 231.834L38.754 231.834ZM35.0173 238.397L33.6636 237.606L33.8158 237.346C34.3961 236.349 34.9764 235.354 35.5498 234.355L36.9086 235.136C36.3343 236.138 35.7517 237.137 35.1691 238.137L35.0178 238.397H35.0173ZM31.3235 244.921L29.9412 244.181C30.476 243.179 31.0756 242.097 31.775 240.869L33.1362 241.648C32.4441 242.861 31.8505 243.931 31.323 244.92L31.3235 244.921ZM28.1378 251.644L26.6838 251.057C27.1408 249.92 27.6444 248.778 28.2224 247.568L29.6364 248.245C29.0731 249.426 28.5829 250.537 28.1378 251.644V251.644ZM25.8303 258.703L24.317 258.295C24.6715 256.974 25.0219 255.781 25.3884 254.646L26.8801 255.13C26.5219 256.24 26.1784 257.409 25.8308 258.704L25.8303 258.703ZM24.0783 265.993L22.5494 265.644L22.5788 265.516C22.8428 264.353 23.1159 263.15 23.3959 261.968L24.9208 262.331C24.643 263.505 24.3712 264.704 24.1078 265.863L24.0788 265.993H24.0783ZM22.3011 273.344L20.7887 272.934C21.0807 271.857 21.3805 270.671 21.7051 269.305L23.2299 269.671C22.9016 271.051 22.5981 272.252 22.3015 273.344H22.3011ZM19.8943 280.578L18.4467 279.976C18.8992 278.883 19.3177 277.746 19.7274 276.502L21.2163 276.992C20.7947 278.275 20.3624 279.449 19.8943 280.578ZM16.2653 287.342L14.9759 286.451C15.1672 286.173 15.3557 285.891 15.5364 285.609C16.0055 284.88 16.4579 284.107 16.8801 283.313L18.2633 284.049C17.8209 284.882 17.3468 285.692 16.8548 286.458C16.6649 286.752 16.4667 287.05 16.2648 287.342L16.2653 287.342ZM11.2945 293.174L10.1978 292.055C11.1096 291.158 11.9608 290.252 12.7268 289.36L13.9155 290.382C13.1205 291.308 12.239 292.248 11.2949 293.174H11.2945ZM5.55205 298.161L4.58225 296.928C5.64079 296.095 6.58208 295.32 7.4622 294.561L8.48487 295.75C7.58774 296.523 6.62852 297.311 5.55251 298.161H5.55205ZM0.932085 301.665L0 300.405C0.537087 300.007 1.07417 299.607 1.61034 299.207L2.54978 300.462C2.01132 300.864 1.47147 301.267 0.932545 301.665H0.932085Z" fill="#BEC9ED"/>
</svg>
