<svg width="240" height="240" viewBox="0 0 240 240" fill="none" xmlns="http://www.w3.org/2000/svg">
<path d="M44.603 134.742H44.5931C44.2744 134.737 44.0205 134.473 44.0255 134.149L45.1258 72.4382C45.1308 72.1195 45.3947 71.8755 45.7184 71.8705C46.037 71.8755 46.291 72.1394 46.286 72.4631L45.1856 134.174C45.1806 134.493 44.9217 134.742 44.608 134.742H44.603Z" fill="#B6B9C0" stroke="#22262E" stroke-miterlimit="10"/>
<path d="M50.4442 135.319C50.4442 135.319 50.4292 135.319 50.4193 135.319C50.1006 135.304 49.8517 135.035 49.8616 134.717L52.4059 71.7062C52.4209 71.3875 52.6798 71.1436 53.0084 71.1485C53.3271 71.1635 53.576 71.4324 53.5661 71.751L51.0218 134.762C51.0118 135.075 50.7529 135.319 50.4442 135.319Z" fill="#B6B9C0" stroke="#22262E" stroke-miterlimit="10"/>
<path d="M56.2838 135.897C56.2838 135.897 56.2589 135.897 56.2489 135.897C55.9303 135.877 55.6863 135.603 55.7062 135.285L59.6945 70.9746C59.7144 70.656 59.9932 70.412 60.3069 70.4319C60.6256 70.4518 60.8696 70.7257 60.8496 71.0444L56.8614 135.355C56.8415 135.663 56.5875 135.897 56.2838 135.897Z" fill="#B6B9C0" stroke="#22262E" stroke-miterlimit="10"/>
<path d="M62.1192 136.475C62.1192 136.475 62.0893 136.475 62.0694 136.475C61.7507 136.45 61.5117 136.166 61.5416 135.847L66.9738 70.2376C66.9987 69.9189 67.2725 69.6799 67.6012 69.7098C67.9198 69.7347 68.1588 70.0185 68.1289 70.3371L62.6967 135.947C62.6718 136.251 62.4179 136.48 62.1192 136.48V136.475Z" fill="#B6B9C0" stroke="#22262E" stroke-miterlimit="10"/>
<path d="M67.9599 137.052C67.9599 137.052 67.9201 137.052 67.9002 137.052C67.5815 137.017 67.3475 136.733 67.3823 136.415L74.2585 69.5055C74.2933 69.1868 74.5772 68.9528 74.8958 68.9876C75.2145 69.0225 75.4485 69.3063 75.4137 69.625L68.5375 136.534C68.5076 136.833 68.2537 137.057 67.9599 137.057V137.052Z" fill="#B6B9C0" stroke="#22262E" stroke-miterlimit="10"/>
<path d="M73.7959 137.625C73.7959 137.625 73.7511 137.625 73.7262 137.625C73.4076 137.585 73.1835 137.296 73.2233 136.977L81.5384 68.7736C81.5783 68.4549 81.8671 68.2309 82.1857 68.2657C82.5044 68.3055 82.7285 68.5943 82.6886 68.913L74.3735 137.117C74.3387 137.411 74.0897 137.625 73.8009 137.625H73.7959Z" fill="#B6B9C0" stroke="#22262E" stroke-miterlimit="10"/>
<path d="M79.6351 138.203C79.6102 138.203 79.5803 138.203 79.5554 138.198C79.2367 138.153 79.0176 137.859 79.0625 137.545L88.8215 68.0419C88.8663 67.7232 89.1601 67.4992 89.4788 67.5489C89.7974 67.5938 90.0165 67.8875 89.9717 68.2062L80.2126 137.71C80.1728 137.998 79.9238 138.207 79.64 138.207L79.6351 138.203Z" fill="#B6B9C0" stroke="#22262E" stroke-miterlimit="10"/>
<path d="M85.4724 138.78C85.4425 138.78 85.4126 138.78 85.3827 138.775C85.0641 138.725 84.85 138.427 84.8998 138.113L96.1028 67.3099C96.1526 66.9913 96.4513 66.7821 96.765 66.827C97.0836 66.8767 97.2977 67.1755 97.248 67.4892L86.045 138.292C86.0001 138.576 85.7512 138.78 85.4724 138.78Z" fill="#B6B9C0" stroke="#22262E" stroke-miterlimit="10"/>
<path d="M91.3116 139.357C91.2768 139.357 91.2469 139.357 91.212 139.347C90.8984 139.293 90.6843 138.989 90.739 138.675L103.386 66.5726C103.441 66.259 103.739 66.0449 104.058 66.0996C104.372 66.1544 104.586 66.4531 104.531 66.7718L91.8842 138.874C91.8344 139.158 91.5904 139.352 91.3116 139.352V139.357Z" fill="#B6B9C0" stroke="#22262E" stroke-miterlimit="10"/>
<path d="M97.1477 139.935C97.1129 139.935 97.0731 139.935 97.0382 139.925C96.7245 139.866 96.5154 139.562 96.5801 139.248L110.671 65.8461C110.731 65.5325 111.034 65.3233 111.348 65.3881C111.662 65.4478 111.871 65.7515 111.806 66.0652L97.7154 139.467C97.6606 139.746 97.4216 139.94 97.1477 139.94V139.935Z" fill="#B6B9C0" stroke="#22262E" stroke-miterlimit="10"/>
<path d="M102.988 140.513C102.948 140.513 102.908 140.513 102.869 140.503C102.555 140.438 102.356 140.129 102.42 139.816L117.955 65.1141C118.02 64.8004 118.329 64.6012 118.642 64.6659C118.956 64.7307 119.155 65.0394 119.09 65.3531L103.556 140.055C103.501 140.328 103.257 140.518 102.988 140.518V140.513Z" fill="#B6B9C0" stroke="#22262E" stroke-miterlimit="10"/>
<path d="M108.823 141.09C108.783 141.09 108.738 141.09 108.698 141.075C108.385 141.006 108.191 140.697 108.26 140.383L125.239 64.3821C125.309 64.0684 125.622 63.8742 125.931 63.9439C126.245 64.0136 126.439 64.3223 126.369 64.636L109.395 140.637C109.336 140.906 109.097 141.09 108.828 141.09H108.823Z" fill="#B6B9C0" stroke="#22262E" stroke-miterlimit="10"/>
<path d="M114.665 141.668C114.62 141.668 114.575 141.663 114.53 141.653C114.217 141.578 114.028 141.265 114.102 140.956L132.52 63.6601C132.595 63.3514 132.913 63.1572 133.217 63.2319C133.531 63.3066 133.72 63.6203 133.645 63.929L115.227 141.225C115.163 141.494 114.929 141.673 114.665 141.673V141.668Z" fill="#B6B9C0" stroke="#22262E" stroke-miterlimit="10"/>
<path d="M120.499 142.246C120.454 142.246 120.404 142.241 120.354 142.226C120.046 142.146 119.857 141.832 119.936 141.524L139.798 62.9284C139.878 62.6197 140.191 62.4305 140.5 62.5101C140.809 62.5898 140.998 62.9035 140.918 63.2122L121.056 141.807C120.992 142.071 120.753 142.246 120.494 142.246H120.499Z" fill="#B6B9C0" stroke="#22262E" stroke-miterlimit="10"/>
<path d="M126.34 142.823C126.29 142.823 126.24 142.818 126.191 142.803C125.882 142.723 125.698 142.405 125.782 142.091L147.088 62.1963C147.173 61.8876 147.491 61.7034 147.795 61.783C148.104 61.8677 148.288 62.1814 148.203 62.4951L126.898 142.39C126.828 142.649 126.594 142.818 126.34 142.818V142.823Z" fill="#B6B9C0" stroke="#22262E" stroke-miterlimit="10"/>
<path d="M132.176 143.4C132.126 143.4 132.072 143.395 132.022 143.38C131.713 143.296 131.534 142.972 131.619 142.663L154.368 61.4691C154.458 61.1604 154.776 60.9812 155.085 61.0658C155.394 61.1505 155.573 61.4741 155.488 61.7828L132.739 142.977C132.669 143.231 132.435 143.4 132.181 143.4H132.176Z" fill="#B6B9C0" stroke="#22262E" stroke-miterlimit="10"/>
<path d="M138.011 143.978C137.956 143.978 137.901 143.973 137.847 143.953C137.538 143.863 137.364 143.54 137.453 143.231L161.647 60.7372C161.736 60.4285 162.06 60.2542 162.369 60.3439C162.677 60.4335 162.852 60.7571 162.762 61.0609L138.569 143.555C138.494 143.809 138.265 143.973 138.011 143.973V143.978Z" fill="#B6B9C0" stroke="#22262E" stroke-miterlimit="10"/>
<path d="M143.852 144.556C143.797 144.556 143.737 144.546 143.683 144.531C143.379 144.436 143.205 144.112 143.299 143.809L168.932 60.0152C169.026 59.7115 169.35 59.5373 169.654 59.6319C169.957 59.7265 170.132 60.0501 170.037 60.3538L144.405 144.147C144.33 144.396 144.101 144.556 143.852 144.556Z" fill="#B6B9C0" stroke="#22262E" stroke-miterlimit="10"/>
<path d="M149.686 145.133C149.627 145.133 149.567 145.123 149.512 145.108C149.208 145.009 149.039 144.685 149.134 144.382L176.21 59.2935C176.31 58.9898 176.633 58.8205 176.937 58.9151C177.241 59.0097 177.41 59.3383 177.315 59.6421L150.239 144.73C150.159 144.974 149.93 145.133 149.686 145.133Z" fill="#B6B9C0" stroke="#22262E" stroke-miterlimit="10"/>
<path d="M155.527 145.711C155.467 145.711 155.408 145.701 155.343 145.681C155.039 145.581 154.875 145.253 154.974 144.949L183.495 58.5614C183.594 58.2577 183.918 58.0934 184.227 58.193C184.53 58.2925 184.695 58.6212 184.595 58.9249L156.075 145.312C155.995 145.556 155.766 145.711 155.522 145.711H155.527Z" fill="#B6B9C0" stroke="#22262E" stroke-miterlimit="10"/>
<path d="M161.364 146.283C161.299 146.283 161.239 146.273 161.174 146.254C160.871 146.149 160.711 145.82 160.811 145.517L190.775 57.8295C190.88 57.5258 191.208 57.3665 191.512 57.4661C191.816 57.5706 191.975 57.8992 191.876 58.203L161.911 145.89C161.832 146.129 161.603 146.283 161.364 146.283Z" fill="#B6B9C0" stroke="#22262E" stroke-miterlimit="10"/>
<path d="M167.203 146.861C167.139 146.861 167.074 146.851 167.009 146.826C166.705 146.717 166.551 146.388 166.656 146.084L198.064 57.0976C198.168 56.7939 198.502 56.6396 198.806 56.7441C199.11 56.8487 199.264 57.1823 199.159 57.486L167.751 146.473C167.666 146.712 167.442 146.861 167.203 146.861Z" fill="#B6B9C0" stroke="#22262E" stroke-miterlimit="10"/>
<path d="M188.465 194.844H177.008V196.911H188.465V194.844Z" fill="#B6B9C0" stroke="#22262E" stroke-miterlimit="10"/>
<path d="M192.087 221.764C198.322 220.276 202.17 214.016 200.683 207.781C199.195 201.546 192.935 197.698 186.7 199.185C180.465 200.673 176.616 206.933 178.104 213.168C179.592 219.403 185.852 223.252 192.087 221.764Z" fill="#22262E" stroke="#22262E" stroke-linecap="round" stroke-linejoin="round"/>
<path d="M191.051 217.381C194.874 216.473 197.236 212.637 196.328 208.814C195.419 204.991 191.583 202.628 187.76 203.537C183.937 204.445 181.575 208.281 182.483 212.104C183.392 215.927 187.228 218.29 191.051 217.381Z" fill="white" stroke="#22262E" stroke-linecap="round" stroke-linejoin="round"/>
<path d="M189.944 196.936H177.008V200.257C177.008 200.257 183.371 204.076 184.646 207.417C185.92 210.758 186.553 214.099 189.739 213.78C192.921 213.461 192.443 211.395 191.806 208.527C191.243 205.993 190.183 199.45 189.944 196.936Z" fill="#B6B9C0" stroke="#22262E" stroke-miterlimit="10"/>
<path d="M189.39 212.037C190.251 212.037 190.949 211.339 190.949 210.479C190.949 209.618 190.251 208.92 189.39 208.92C188.53 208.92 187.832 209.618 187.832 210.479C187.832 211.339 188.53 212.037 189.39 212.037Z" fill="#B6B9C0" stroke="#22262E" stroke-miterlimit="10"/>
<path d="M48.2069 194.846H36.75V196.912H48.2069V194.846Z" fill="#B6B9C0" stroke="#22262E" stroke-miterlimit="10"/>
<path d="M56.6431 219.08C61.3954 214.778 61.7608 207.439 57.4592 202.686C53.1577 197.934 45.818 197.569 41.0657 201.87C36.3134 206.172 35.9481 213.511 40.2496 218.264C44.5512 223.016 51.8908 223.381 56.6431 219.08Z" fill="#22262E" stroke="#22262E" stroke-linecap="round" stroke-linejoin="round"/>
<path d="M53.6387 215.746C56.5433 213.1 56.7524 208.6 54.1057 205.695C51.459 202.79 46.9588 202.581 44.0542 205.228C41.1496 207.875 40.9405 212.375 43.5872 215.279C46.2339 218.184 50.7341 218.393 53.6387 215.746Z" fill="white" stroke="#22262E" stroke-linecap="round" stroke-linejoin="round"/>
<path d="M49.6857 196.936H36.75V200.257C36.75 200.257 43.1133 204.076 44.388 207.417C45.6626 210.758 46.295 214.099 49.4816 213.781C52.6632 213.462 52.1852 211.396 51.5479 208.528C50.9853 205.993 49.9247 199.451 49.6857 196.936Z" fill="#B6B9C0" stroke="#22262E" stroke-miterlimit="10"/>
<path d="M49.1327 212.038C49.9934 212.038 50.6911 211.34 50.6911 210.48C50.6911 209.619 49.9934 208.921 49.1327 208.921C48.272 208.921 47.5742 209.619 47.5742 210.48C47.5742 211.34 48.272 212.038 49.1327 212.038Z" fill="#B6B9C0" stroke="#22262E" stroke-miterlimit="10"/>
<path d="M185.89 195.766C185.781 195.766 185.671 195.766 185.556 195.761L26.3096 194.845C25.1893 194.84 24.2831 193.924 24.2931 192.804C24.298 191.688 25.2092 190.787 26.3245 190.787H26.3345L185.631 191.708C187.742 191.778 189.764 190.857 191.068 189.248L192.323 187.705C194.145 185.464 194.32 182.328 192.761 179.898L177.296 155.784C176.43 154.43 175.011 153.563 173.412 153.404L112.179 147.339C111.064 147.23 110.247 146.234 110.362 145.119C110.471 144.003 111.467 143.197 112.583 143.296L173.816 149.361C176.659 149.645 179.173 151.183 180.717 153.588L196.187 177.702C198.691 181.611 198.413 186.654 195.485 190.259L194.23 191.803C192.204 194.297 189.107 195.766 185.895 195.766H185.89Z" fill="#B6B9C0" stroke="#22262E" stroke-miterlimit="10"/>
<path d="M178.938 148.937C178.908 148.937 178.883 148.937 178.854 148.937L39.314 135.195C38.8659 135.15 38.5273 134.772 38.5273 134.319L39.1398 72.0302C39.1398 71.587 39.4833 71.2136 39.9265 71.1737L212.139 54.6879C212.438 54.658 212.726 54.7875 212.911 55.0215C213.095 55.2555 213.145 55.5692 213.04 55.848L179.76 148.365C179.635 148.713 179.307 148.942 178.943 148.942L178.938 148.937ZM40.275 133.542L178.351 147.14L210.939 56.5501L40.8725 72.8318L40.275 133.542Z" fill="#B6B9C0" stroke="#22262E" stroke-miterlimit="10"/>
<path d="M37.5683 90.9257C37.1052 90.9257 36.7169 90.5572 36.7019 90.0892C36.682 89.6112 37.0554 89.2029 37.5334 89.183L204.637 82.3218C205.1 82.2919 205.524 82.6753 205.544 83.1533C205.563 83.6313 205.19 84.0396 204.712 84.0595L37.6081 90.9207C37.6081 90.9207 37.5832 90.9207 37.5733 90.9207L37.5683 90.9257Z" fill="#B6B9C0" stroke="#22262E" stroke-miterlimit="10"/>
<path d="M196.346 108.94H196.341L36.9552 107.72C36.4772 107.72 36.0888 107.322 36.0938 106.844C36.0938 106.366 36.4871 105.983 36.9651 105.983H36.9701L196.356 107.202C196.834 107.202 197.223 107.601 197.218 108.079C197.218 108.557 196.824 108.94 196.346 108.94Z" fill="#B6B9C0" stroke="#22262E" stroke-miterlimit="10"/>
<path d="M187.314 133.378C187.314 133.378 187.279 133.378 187.259 133.378L36.8354 124.012C36.3574 123.982 35.9889 123.569 36.0238 123.091C36.0536 122.613 36.4619 122.244 36.9449 122.274L187.369 131.64C187.847 131.67 188.215 132.083 188.185 132.561C188.155 133.024 187.772 133.378 187.319 133.378H187.314Z" fill="#B6B9C0" stroke="#22262E" stroke-miterlimit="10"/>
<path d="M36.955 73.8278C36.5119 73.8278 36.1335 73.4942 36.0887 73.0461C36.0389 72.5681 36.3924 72.1399 36.8654 72.0951L214.575 54.3844C215.048 54.3445 215.481 54.6881 215.526 55.1611C215.576 55.6391 215.227 56.0673 214.749 56.1121L37.0447 73.8228C37.0148 73.8228 36.9849 73.8228 36.955 73.8228V73.8278Z" fill="#B6B9C0" stroke="#22262E" stroke-miterlimit="10"/>
<path d="M45.3153 68.5595H36.4276C35.7621 68.5595 35.2227 69.099 35.2227 69.7645V75.9037C35.2227 76.5692 35.7621 77.1087 36.4276 77.1087H45.3153C45.9808 77.1087 46.5203 76.5692 46.5203 75.9037V69.7645C46.5203 69.099 45.9808 68.5595 45.3153 68.5595Z" fill="#22262E" stroke="#22262E" stroke-linecap="round" stroke-linejoin="round"/>
<path d="M131.229 151.148C130.945 151.148 130.656 151.063 130.402 150.889C129.745 150.431 129.586 149.529 130.039 148.872C130.781 147.807 204.317 42.3241 207.583 40.1483C210.735 38.0471 225.279 38.2761 228.162 38.3409C228.964 38.3608 229.596 39.023 229.576 39.8246C229.556 40.6263 228.904 41.2586 228.092 41.2387C220.131 41.0545 210.964 41.4877 209.236 42.5283C205.866 45.7249 153.7 119.968 132.419 150.53C132.135 150.933 131.687 151.153 131.229 151.153V151.148Z" fill="#B6B9C0" stroke="#22262E" stroke-miterlimit="10"/>
<path d="M171.082 155.723C170.918 155.723 170.749 155.694 170.585 155.634C169.833 155.36 169.444 154.529 169.723 153.777C172.427 146.388 177.904 131.251 183.705 115.223C196.884 78.7963 206.265 52.9099 206.897 51.6452C207.067 51.3066 207.241 50.9332 207.425 50.5348C208.6 47.9855 210.208 44.4952 213.798 43.2952C217.443 42.0803 230.229 42.2247 231.673 42.2446C232.475 42.2546 233.112 42.9118 233.102 43.7135C233.092 44.5151 232.405 45.1624 231.633 45.1425C227.844 45.0877 217.408 45.1474 214.714 46.0437C212.319 46.8403 211.065 49.5589 210.059 51.7448C209.86 52.173 209.676 52.5763 209.496 52.9397C208.774 54.4733 196.386 88.6997 186.438 116.204C180.637 132.232 175.16 147.374 172.452 154.763C172.238 155.35 171.68 155.714 171.092 155.714L171.082 155.723Z" fill="#B6B9C0" stroke="#22262E" stroke-miterlimit="10"/>
<path d="M217.895 37.1859H229.496C231.911 37.1859 233.872 39.1476 233.872 41.5625V43.0015C233.872 45.4163 231.911 47.3781 229.496 47.3781H217.895V37.1859Z" fill="#22262E" stroke="#22262E" stroke-linecap="round" stroke-linejoin="round"/>
<path d="M226.346 222.081H234.999" stroke="#22262E" stroke-miterlimit="10"/>
<path d="M33.8145 222.081H221.96" stroke="#22262E" stroke-miterlimit="10"/>
<path d="M5 222.081H28.4168" stroke="#22262E" stroke-miterlimit="10"/>
</svg>
