<svg width="402" height="356" viewBox="0 0 402 356" fill="none" xmlns="http://www.w3.org/2000/svg">
<path d="M100.251 99.3768C72.1708 120.505 48.6491 146.103 39.9682 177.161C29.0262 216.307 41.9089 258.83 67.2514 290.569C114.089 349.226 204.28 371.536 276.379 342.297C349.145 312.787 391.023 234.026 400.465 162.205C404.358 132.588 400.117 101.269 383.252 76.5651C362.835 46.658 325.641 29.6826 288.167 27.3207C250.693 24.9587 213.086 35.8706 179.438 52.5834C154.323 65.0582 125.452 80.417 100.252 99.3768H100.251Z" fill="#C8DBFF"/>
<path d="M158.399 217.48C159.59 217.326 384.393 217.964 384.393 217.964V223.489L158.215 221.276L158.399 217.472V217.48Z" fill="#2D3B53"/>
<path d="M158.399 166.189C159.59 166.036 384.393 166.673 384.393 166.673V172.198L158.215 169.985L158.399 166.182V166.189Z" fill="#2D3B53"/>
<path d="M158.399 126.64C159.59 126.486 384.393 127.124 384.393 127.124V132.649L158.215 130.436L158.399 126.632V126.64Z" fill="#2D3B53"/>
<path d="M158.399 289.64C159.59 289.486 384.393 290.124 384.393 290.124V295.649L158.215 293.436L158.399 289.632V289.64Z" fill="#2D3B53"/>
<path d="M257.767 131.565C257.767 131.565 257.767 121.883 254.702 118.94C251.636 115.998 240.648 114.976 238.719 117.319C236.798 119.663 236.137 125.487 236.137 125.487C236.137 125.487 236.26 128.177 236.352 129.629C235.93 132.81 234.984 138.465 236.429 138.473C236.713 138.473 236.975 138.473 237.213 138.473C237.835 138.473 238.404 138.827 238.688 139.388C238.834 139.672 238.988 139.941 239.149 140.202C242.899 146.126 242.3 146.426 245.427 145.765C246.718 145.496 249.576 143.122 250.452 142.369C250.614 142.231 250.837 142.215 251.013 142.323C252.435 143.183 258.513 146.718 259.573 145.181C260.772 143.437 262.155 134.186 262.155 134.186L257.767 131.55V131.565Z" fill="#FBADA0"/>
<path d="M143.124 51.2445C140.535 49.2697 44.3697 50.1841 18.9434 50.3532C16.8688 50.3685 15.1629 51.9668 15.1245 54.0338L10.6908 301.312C10.6063 306.007 14.3868 309.849 19.0818 309.849H137.761C142.379 309.849 146.136 306.115 146.152 301.489C146.321 257.698 145.691 53.1885 143.117 51.2291L143.124 51.2445ZM130.062 255.539C130.046 256.468 129.285 257.206 128.356 257.206C115.362 257.214 25.713 257.636 25.4287 255.5C24.8294 251.013 26.42 201.382 26.42 201.382C27.903 200.744 128.978 196.733 130.031 201.382C130.976 205.531 130.238 246.687 130.062 255.539ZM130.062 193.16C130.046 194.09 129.285 194.827 128.356 194.827C115.362 194.835 30.8459 195.442 28.3102 192.123C25.5594 188.527 26.4123 139.003 26.4123 139.003C27.8953 138.365 128.97 134.354 130.023 139.003C130.968 143.153 130.231 184.308 130.054 193.16H130.062ZM130.062 130.781C130.046 131.711 129.285 132.449 128.356 132.449C115.362 132.457 30.8536 132.38 28.3179 129.06C25.567 125.464 26.4123 76.617 26.4123 76.617C27.8953 75.9792 128.97 71.9682 130.023 76.617C130.968 80.7664 130.231 121.922 130.054 130.774L130.062 130.781Z" fill="#2D3B53"/>
<path d="M122.969 58.2677C122.969 58.2677 122.969 58.2677 122.954 58.2677L37.8766 57.1305C37.4079 57.1305 37.0237 56.7386 37.0314 56.2622C37.0314 55.7935 37.4232 55.417 37.8843 55.417C37.8843 55.417 37.892 55.417 37.8997 55.417L122.977 56.5542C123.445 56.5542 123.83 56.9461 123.822 57.4225C123.822 57.8912 123.43 58.2677 122.969 58.2677Z" fill="#FAE8E6"/>
<path d="M122.969 64.6453C122.969 64.6453 122.969 64.6453 122.954 64.6453L37.8766 63.5081C37.4079 63.5081 37.0237 63.1162 37.0314 62.6398C37.0314 62.1711 37.4232 61.7946 37.8843 61.7946C37.8843 61.7946 37.892 61.7946 37.8997 61.7946L122.977 62.9318C123.445 62.9318 123.83 63.3237 123.822 63.8001C123.822 64.2688 123.43 64.6453 122.969 64.6453Z" fill="#FAE8E6"/>
<path d="M122.969 71.023C122.969 71.023 122.969 71.023 122.954 71.023L37.8766 69.8858C37.4079 69.8858 37.0237 69.4939 37.0314 69.0175C37.0314 68.5488 37.4232 68.1722 37.8843 68.1722C37.8843 68.1722 37.892 68.1722 37.8997 68.1722L122.977 69.3095C123.445 69.3095 123.83 69.7014 123.822 70.1778C123.822 70.6465 123.43 71.023 122.969 71.023Z" fill="#FAE8E6"/>
<path d="M294.367 312.753C291.755 313.03 286.875 313.552 286.76 319.999C286.637 326.446 291.924 328.091 294.613 328.006C297.295 327.929 302.059 325.847 301.859 319.999C301.659 314.152 297.41 312.431 294.367 312.753Z" fill="#1D1D15"/>
<path d="M294.352 315.666C292.739 315.835 289.727 316.157 289.65 320.145C289.573 324.126 292.839 325.14 294.498 325.094C296.158 325.048 299.101 323.757 298.978 320.145C298.855 316.534 296.235 315.466 294.352 315.666Z" fill="#666666"/>
<path d="M294.338 317.141C293.231 317.256 291.164 317.479 291.11 320.215C291.057 322.95 293.3 323.642 294.437 323.611C295.575 323.58 297.596 322.697 297.511 320.215C297.427 317.733 295.628 317.003 294.338 317.141Z" fill="#1D1D15"/>
<path d="M188.521 312.753C191.134 313.03 196.013 313.552 196.129 319.999C196.252 326.446 190.965 328.091 188.276 328.006C185.594 327.929 180.83 325.847 181.03 319.999C181.229 314.152 185.479 312.431 188.521 312.753Z" fill="#1D1D15"/>
<path d="M188.544 315.666C190.157 315.835 193.169 316.157 193.246 320.145C193.323 324.126 190.057 325.14 188.398 325.094C186.738 325.048 183.795 323.757 183.918 320.145C184.041 316.534 186.661 315.466 188.544 315.666Z" fill="#666666"/>
<path d="M188.551 317.141C189.658 317.256 191.725 317.479 191.778 320.215C191.832 322.95 189.588 323.642 188.451 323.611C187.314 323.58 185.293 322.697 185.378 320.215C185.462 317.733 187.26 317.003 188.551 317.141Z" fill="#1D1D15"/>
<path d="M217.221 160.388C217.221 160.388 214.723 159.427 211.542 158.136C210.997 157.722 206.348 155.024 205.833 154.594C204.388 153.365 202.498 152.881 200.277 152.105C198.057 151.321 197.396 151.597 197.757 152.105C198.118 152.612 200.162 153.457 201.422 154.571C202.406 155.439 204.457 160.203 204.519 160.572C204.588 160.949 203.85 161.471 203.474 161.54C202.629 161.702 201.376 162.04 201.422 162.624C201.499 163.508 203.382 163.946 205.871 164.145C208.361 164.345 209.844 163.792 210.766 163.992C211.688 164.191 214.731 165.997 214.731 165.997L217.082 163.984L217.221 160.403V160.388Z" fill="#FBADA0"/>
<path d="M277.233 310.633C277.233 310.633 277.717 317.925 277.233 320.368L276.749 322.812C276.749 322.812 254.642 324.495 251.038 323.611C247.434 322.727 247.473 320.806 249.955 319.37C252.437 317.933 255.841 316.534 258.807 316.165C266.199 315.243 270.179 309.35 270.179 309.35L277.225 310.641L277.233 310.633Z" fill="#2A2931"/>
<path d="M335.171 297.923C335.171 297.923 341.603 301.389 343.416 303.087L345.229 304.793C345.229 304.793 338.813 318.132 336.155 320.722C335.563 321.298 332.728 323.611 327.848 323.864C322.808 324.126 321.017 324.241 322.285 321.137C323.369 318.478 328.778 316.25 330.415 313.752C332.259 310.948 330.338 303.202 330.338 303.202L335.171 297.916V297.923Z" fill="#2A2931"/>
<path d="M281.675 212.355C281.675 212.355 269.542 294.412 268.458 300.544C267.375 306.668 265.323 312.331 269.296 312.2C272.9 312.077 277.825 312.8 279.27 308.235C280.714 303.671 299.571 231.465 299.571 231.465L296.927 206.714L283.527 207.798L281.675 212.362V212.355Z" fill="#3C4F6E"/>
<path d="M313.755 193.014C313.755 193.014 315.314 209.957 314.953 229.421C314.592 248.884 313.993 253.21 316.636 256.937C319.279 260.664 338.021 295.026 336.584 298.384C335.139 301.75 332.019 306.552 329.138 304.032C326.256 301.512 300.3 267.149 296.458 259.457C292.616 251.766 289.973 210.195 289.973 210.195L313.762 193.014H313.755Z" fill="#3C4F6E"/>
<path d="M312.956 187.366C307.185 178.399 306.547 176.801 306.547 176.801C306.547 176.801 315.115 164.783 311.035 159.012C306.947 153.242 286.208 142.515 280.675 138.189C275.151 133.863 264.255 132.902 264.255 132.902L263.256 131.919C262.641 131.319 261.611 131.527 261.281 132.318L254.45 148.662C254.319 148.977 254.327 149.338 254.473 149.646C254.619 149.961 254.834 150.414 255.111 150.99C251.238 156.607 243.7 167.15 241.725 167.203C236.216 167.342 216.522 159.489 215.876 159.412C215.239 159.335 212.273 164.86 213.31 166.22C214.347 167.58 240.104 182.133 243.108 182.402C249.378 182.956 257.769 172.959 262.487 166.543C268.435 179.052 275.519 193.867 276.111 194.735C277.156 196.257 277.394 196.656 277.394 196.656C277.394 196.656 280.114 202.02 280.199 207.713C280.276 213.4 278.355 220.369 282.12 219.57C285.885 218.771 290.534 208.513 300.861 209.481C311.196 210.441 318.726 196.341 312.956 187.374V187.366Z" fill="#D34231"/>
<path d="M308.914 194.051H314.946C314.93 193.452 314.877 192.86 314.792 192.276H308.914V182.94H310.143C309.736 182.28 309.367 181.696 309.044 181.165H308.914V180.95C308.046 179.521 307.492 178.568 307.139 177.93V181.165H297.803V171.829H307.139V175.925C307.584 175.241 308.23 174.196 308.914 172.928V171.822H309.49C309.774 171.253 310.059 170.661 310.328 170.047H308.914V160.711H311.841C311.665 160.104 311.396 159.535 311.035 159.012C311.019 158.989 310.996 158.959 310.973 158.936H308.914V156.761C308.384 156.285 307.784 155.793 307.139 155.286V158.936H297.803V149.6H298.855C298.51 149.377 298.156 149.162 297.803 148.939C297.749 148.908 297.695 148.87 297.641 148.839C297.119 148.516 296.604 148.193 296.074 147.871C296.059 147.863 296.035 147.848 296.02 147.84C296.02 147.84 296.005 147.832 295.997 147.825H286.684V142.161C286.062 141.777 285.47 141.408 284.909 141.055V147.825H275.573V138.488H281.067C280.929 138.389 280.798 138.289 280.683 138.197C279.984 137.651 279.2 137.159 278.362 136.713H275.581V135.469C274.989 135.246 274.397 135.038 273.806 134.854V136.713H264.47V132.933C264.339 132.918 264.27 132.91 264.27 132.91L263.271 131.926C263.102 131.765 262.902 131.657 262.695 131.611V136.713H259.46L258.714 138.488H262.687V147.825H254.811L254.457 148.67C254.334 148.969 254.334 149.308 254.457 149.607H262.679V158.943H253.343V153.541C252.782 154.341 252.183 155.186 251.568 156.039V158.951H249.432C248.979 159.558 248.525 160.15 248.08 160.726H251.568V170.062H242.232V167.05C242.04 167.157 241.863 167.211 241.725 167.219C241.364 167.227 240.934 167.204 240.457 167.142V170.054H231.121V164.775C230.53 164.591 229.938 164.391 229.346 164.199V170.062H220.01V160.918C219.687 160.803 219.38 160.688 219.088 160.58C217.252 159.904 216.038 159.45 215.884 159.427C215.684 159.404 215.246 159.934 214.777 160.726H218.227V169.447C218.566 169.647 218.911 169.855 219.272 170.062C219.488 170.185 219.703 170.316 219.918 170.446C219.949 170.462 219.972 170.477 220.002 170.5C220.74 170.93 221.524 171.384 222.331 171.845H229.338V175.763C229.938 176.086 230.529 176.409 231.113 176.732V171.845H240.45V181.181H239.835C241.425 181.918 242.601 182.379 243.108 182.418C244.614 182.548 246.251 182.072 247.926 181.181H242.232V171.845H251.568V178.691C252.168 178.207 252.759 177.684 253.343 177.139V171.845H258.33C258.837 171.245 259.321 170.654 259.798 170.07H253.343V160.734H262.679V166.973C263.163 167.995 263.655 169.025 264.155 170.07C264.155 170.07 264.185 170.139 264.201 170.177C264.285 170.354 264.37 170.538 264.454 170.715C264.631 171.092 264.815 171.468 264.992 171.852H273.79V181.188H269.457C269.749 181.795 270.033 182.387 270.309 182.963H273.79V190.171C274.182 190.97 274.528 191.685 274.835 192.299C274.897 192.422 274.958 192.545 275.02 192.661C275.027 192.676 275.035 192.691 275.043 192.707C275.166 192.96 275.281 193.191 275.389 193.398C275.396 193.421 275.412 193.444 275.419 193.46C275.465 193.552 275.512 193.644 275.558 193.729C275.558 193.729 275.565 193.744 275.565 193.752C275.619 193.867 275.681 193.967 275.727 194.067H284.901V203.403H279.676C279.799 203.979 279.907 204.571 279.991 205.178H284.909V214.514H279.83C279.792 215.144 279.776 215.743 279.784 216.289H284.917V217.772C285.409 217.318 285.931 216.804 286.484 216.266C287.061 215.705 287.668 215.105 288.313 214.506H286.692V205.17H296.028V209.865C296.596 209.711 297.188 209.596 297.803 209.519V205.17H307.139V208.151C307.761 207.813 308.353 207.421 308.914 206.984V205.17H310.835C311.327 204.617 311.78 204.018 312.195 203.395H308.914V194.059V194.051ZM307.139 182.933V192.269H297.803V182.933H307.139ZM296.02 192.269H286.684V182.933H296.02V192.269ZM296.02 181.158H286.684V171.822H296.02V181.158ZM286.684 160.711H296.02V170.047H286.684V160.711ZM284.909 170.047H275.573V160.711H284.909V170.047ZM307.139 160.711V170.047H297.803V160.711H307.139ZM296.02 149.592V158.928H286.684V149.592H296.02ZM284.909 149.592V158.928H275.573V149.592H284.909ZM264.454 138.481H273.79V147.817H264.454V138.481ZM264.454 149.592H273.79V158.928H264.454V149.592ZM264.454 170.047V160.711H273.79V170.047H264.454ZM275.573 171.822H284.909V181.158H275.573V171.822ZM275.573 192.269V182.933H284.909V192.269H275.573ZM286.684 203.387V194.051H296.02V203.387H286.684ZM297.803 203.387V194.051H307.139V203.387H297.803Z" fill="#E5616B"/>
<path d="M286.683 181.158H284.908V182.933H286.683V181.158Z" fill="#ED7785"/>
<path d="M286.683 203.387H284.908V205.162H286.683V203.387Z" fill="#ED7785"/>
<path d="M286.683 170.046H284.908V171.821H286.683V170.046Z" fill="#ED7785"/>
<path d="M286.683 192.269H284.908V194.044H286.683V192.269Z" fill="#ED7785"/>
<path d="M297.795 158.928H296.02V160.703H297.795V158.928Z" fill="#ED7785"/>
<path d="M308.914 170.046H307.139V171.821H308.914V170.046Z" fill="#ED7785"/>
<path d="M286.683 158.928H284.908V160.703H286.683V158.928Z" fill="#ED7785"/>
<path d="M286.683 147.817H284.908V149.592H286.683V147.817Z" fill="#ED7785"/>
<path d="M296.02 147.824V149.592H297.795V148.931C297.203 148.562 296.611 148.193 296.02 147.824Z" fill="#ED7785"/>
<path d="M308.914 181.158H307.139V182.933H308.914V181.158Z" fill="#ED7785"/>
<path d="M308.914 192.269H307.139V194.044H308.914V192.269Z" fill="#ED7785"/>
<path d="M297.795 170.046H296.02V171.821H297.795V170.046Z" fill="#ED7785"/>
<path d="M308.914 203.387H307.139V205.162H308.914V203.387Z" fill="#ED7785"/>
<path d="M286.683 214.498H284.908V216.273H286.453C286.53 216.196 286.606 216.12 286.683 216.043V214.498Z" fill="#ED7785"/>
<path d="M297.795 181.158H296.02V182.933H297.795V181.158Z" fill="#ED7785"/>
<path d="M297.795 192.269H296.02V194.044H297.795V192.269Z" fill="#ED7785"/>
<path d="M297.795 203.387H296.02V205.162H297.795V203.387Z" fill="#ED7785"/>
<path d="M220.001 170.046H219.264C219.502 170.185 219.748 170.331 220.001 170.477V170.046Z" fill="#ED7785"/>
<path d="M253.343 170.046H251.568V171.821H253.343V170.046Z" fill="#ED7785"/>
<path d="M218.219 160.242V160.703H219.479C219.026 160.534 218.603 160.38 218.219 160.242Z" fill="#ED7785"/>
<path d="M253.343 158.928H251.568V160.703H253.343V158.928Z" fill="#ED7785"/>
<path d="M275.566 136.698H273.791V138.473H275.566V136.698Z" fill="#ED7785"/>
<path d="M242.224 170.046H240.449V171.821H242.224V170.046Z" fill="#ED7785"/>
<path d="M231.115 170.046H229.34V171.821H231.115V170.046Z" fill="#ED7785"/>
<path d="M275.574 192.269H274.836C275.128 192.853 275.374 193.344 275.574 193.736V192.269Z" fill="#ED7785"/>
<path d="M242.232 181.158H240.457V181.434C241.164 181.749 241.763 181.995 242.232 182.164V181.158Z" fill="#ED7785"/>
<path d="M264.453 158.928H262.678V160.703H264.453V158.928Z" fill="#ED7785"/>
<path d="M308.914 158.928H307.139V160.703H308.914V158.928Z" fill="#ED7785"/>
<path d="M264.454 170.046H264.146C264.246 170.262 264.354 170.477 264.454 170.692V170.046Z" fill="#ED7785"/>
<path d="M264.453 147.817H262.678V149.592H264.453V147.817Z" fill="#ED7785"/>
<path d="M264.453 136.698H262.678V138.473H264.453V136.698Z" fill="#ED7785"/>
<path d="M275.566 147.817H273.791V149.592H275.566V147.817Z" fill="#ED7785"/>
<path d="M275.566 170.046H273.791V171.821H275.566V170.046Z" fill="#ED7785"/>
<path d="M275.566 158.928H273.791V160.703H275.566V158.928Z" fill="#ED7785"/>
<path d="M275.566 181.158H273.791V182.933H275.566V181.158Z" fill="#ED7785"/>
<path d="M287.482 191.692L286.16 193.475C285.707 194.09 285.13 194.604 284.47 194.996L281.304 196.871C280.766 196.871 278.299 200.49 279.529 203.418C280.758 206.346 283.471 208.428 284.431 205.27C285.384 202.112 285.461 203.187 285.461 203.187C285.461 203.187 286.537 205.116 287.774 203.341C289.003 201.566 290.471 200.798 290.624 198.408C290.778 196.018 291.623 194.405 291.623 194.405L287.474 191.692H287.482Z" fill="#FBADA0"/>
<path d="M282.673 200.183C282.673 200.183 267.052 202.342 266.091 204.832C265.131 207.314 252.399 265.628 252.875 270.353C253.359 275.079 253.997 280.043 262.403 283.009C270.817 285.975 281.944 288.933 281.383 295.826C280.822 302.711 278.178 303.433 269.849 304.155C261.519 304.877 193.355 303.033 187.431 303.195C181.506 303.356 182.943 305.438 182.866 306.637C182.789 307.836 274.26 312.561 281.705 305.753C289.151 298.945 285.148 290.616 282.105 287.25C279.062 283.885 261.681 279.159 259.514 275.478C257.355 271.79 266.084 227.338 267.767 218.686C269.449 210.034 269.211 208.036 273.614 206.83C278.017 205.631 282.743 205.385 284.641 203.948C285.862 203.026 287.391 200.106 282.666 200.183H282.673Z" fill="#63728B"/>
<path d="M190.242 311.155C190.449 311.155 196.812 311.078 196.927 311.878C197.05 312.677 188.72 322.412 187.637 321.89C186.553 321.367 187.276 318.885 187.913 316.242C188.551 313.599 189.558 311.171 190.234 311.155H190.242Z" fill="#63728B"/>
<path d="M191.647 306.952L190.641 312.715L194.967 312.039L195.889 305.991L191.647 306.952Z" fill="#63728B"/>
<path d="M292.647 311.155C292.44 311.155 286.077 311.078 285.962 311.878C285.847 312.677 294.169 322.412 295.252 321.89C296.335 321.367 295.613 318.885 294.975 316.242C294.338 313.599 293.331 311.171 292.655 311.155H292.647Z" fill="#63728B"/>
<path d="M284.202 299.944C284.202 299.944 291.41 304.032 292.009 307.09C292.609 310.156 292.647 311.155 292.647 311.155L287.606 311.347C287.606 311.347 286.6 307.213 280.652 305.108L284.195 299.944H284.202Z" fill="#63728B"/>
<path d="M265.215 212.355C265.215 212.355 163.732 223.166 163.732 225.809C163.732 228.453 169.096 265.935 170.863 266.496C172.623 267.057 173.668 266.496 173.668 266.496L173.184 228.529L264.093 217.956L265.215 212.347V212.355Z" fill="#63728B"/>
<path d="M254.642 270.184L171.34 264.098C171.34 264.098 172.208 266.765 172.462 266.749C172.715 266.734 254.481 274.349 254.642 274.111C254.803 273.872 254.642 270.184 254.642 270.184Z" fill="#63728B"/>
<path d="M180.152 225.571C180.152 225.571 179.591 267.003 180.152 266.75C180.713 266.504 182.073 267.318 182.311 266.75C182.549 266.181 182.772 224.849 182.772 224.849L180.152 225.571Z" fill="#63728B"/>
<path d="M193.132 224.242C193.132 224.242 192.571 267.587 193.132 267.326C193.693 267.065 195.053 267.925 195.291 267.326C195.53 266.727 195.752 223.489 195.752 223.489L193.132 224.242Z" fill="#63728B"/>
<path d="M209.868 268.317C209.868 268.317 210.552 222.659 209.991 222.928C209.43 223.197 208.07 222.298 207.832 222.928C207.594 223.558 207.248 269.109 207.248 269.109L209.876 268.325L209.868 268.317Z" fill="#63728B"/>
<path d="M223.607 269.662C223.607 269.662 224.298 220.961 223.737 221.253C223.176 221.545 221.816 220.576 221.578 221.253C221.332 221.921 220.986 270.507 220.986 270.507L223.614 269.669L223.607 269.662Z" fill="#63728B"/>
<path d="M237.353 270.253C237.353 270.253 238.052 218.717 237.491 219.024C236.93 219.332 235.57 218.31 235.332 219.024C235.086 219.731 234.732 271.152 234.732 271.152L237.36 270.261L237.353 270.253Z" fill="#63728B"/>
<path d="M251.091 271.652C251.091 271.652 251.798 217.91 251.237 218.225C250.676 218.548 249.316 217.48 249.078 218.225C248.832 218.963 248.471 272.582 248.471 272.582L251.099 271.652H251.091Z" fill="#63728B"/>
<path d="M256.163 150.591C255.887 150.591 255.648 150.383 255.618 150.107C255.579 149.807 255.794 149.53 256.094 149.484C258.515 149.177 261.204 148.762 261.995 148.539C262.211 147.056 263.202 139.387 263.87 134.185C263.909 133.878 264.193 133.663 264.493 133.709C264.792 133.747 265.008 134.024 264.969 134.331C264.539 137.705 263.117 148.723 263.033 149.054C262.933 149.469 262.864 149.738 256.24 150.591C256.217 150.591 256.194 150.591 256.171 150.591H256.163Z" fill="#C0272D"/>
<path d="M292.609 195.381C292.509 195.381 292.416 195.357 292.324 195.319C292.048 195.196 291.925 194.866 292.048 194.589C292.148 194.374 292.37 194.251 292.593 194.266C292.732 194.213 293.385 193.844 294.791 191.692C296.819 188.588 304.711 177.992 305.041 177.538C305.226 177.292 305.571 177.239 305.817 177.423C306.063 177.607 306.109 177.953 305.933 178.199C305.848 178.307 297.726 189.218 295.721 192.292C294.384 194.343 293.339 195.373 292.609 195.373V195.381Z" fill="#C0272D"/>
<path d="M287.006 191.039C286.86 191.039 286.714 190.978 286.606 190.862C286.399 190.632 284.708 188.45 288.581 181.803C291.847 176.209 295.919 167.872 296.918 165.797C293.614 164.03 274.927 154.018 272.329 151.474C269.448 148.662 269.056 144.167 269.041 143.975C269.018 143.667 269.24 143.406 269.548 143.383C269.863 143.352 270.116 143.583 270.147 143.89C270.147 143.936 270.531 148.17 273.106 150.691C275.78 153.311 297.687 164.96 297.909 165.075L298.378 165.321L298.148 165.797C298.102 165.897 293.291 175.925 289.534 182.356C286.084 188.273 287.421 190.117 287.436 190.132C287.621 190.371 287.59 190.709 287.359 190.901C287.252 190.993 287.129 191.031 286.998 191.031L287.006 191.039Z" fill="#C0272D"/>
<path d="M261.312 164.491C261.097 164.491 260.897 164.368 260.805 164.161L256.302 153.71C256.179 153.434 256.31 153.103 256.594 152.98C256.871 152.857 257.201 152.988 257.324 153.272L261.827 163.723C261.95 163.999 261.819 164.33 261.535 164.453C261.466 164.483 261.389 164.499 261.32 164.499L261.312 164.491Z" fill="#C0272D"/>
<path d="M290.264 214.498C290.264 214.498 292.246 240.209 293.729 247.97" stroke="#223249" stroke-width="2.30519" stroke-miterlimit="10" stroke-linecap="round"/>
<path d="M237.33 120.078C237.33 120.078 233.495 117.373 235.532 115.536C237.568 113.7 239.458 114.092 239.458 114.092C239.458 114.092 245.567 111.31 251.783 113.946C257.992 116.581 257.946 116.881 257.992 121.199C258.038 125.525 257.761 131.565 257.761 131.565C257.761 131.565 255.156 135.161 254.211 134.769C253.266 134.37 252.175 133.425 252.175 133.425C252.175 133.425 255.256 129.798 253.166 127.861C251.076 125.925 249.44 125.925 248.395 128.161C247.35 130.397 247.403 131.342 247.403 131.342L246.466 131.242C246.466 131.242 247.011 126.816 246.166 125.925C245.321 125.034 243.385 123.889 243.231 122.344C243.085 120.808 243.976 119.063 243.976 119.063C243.976 119.063 238.974 120.446 237.33 120.078Z" fill="#362B2F"/>
<path d="M240.296 141.67C240.35 141.708 243.293 140.794 244.007 138.558C244.169 138.043 244.176 137.113 243.692 138.258C242.578 140.901 239.758 141.331 240.304 141.67H240.296Z" fill="#F16A44"/>
<path d="M238.789 128.999C238.873 128.753 239.496 128.33 239.834 128.999C240.172 129.667 239.657 130.489 239.396 130.605C239.019 130.766 238.451 129.936 238.789 128.999Z" fill="#362B2F"/>
<path d="M237.375 126.54C237.375 126.54 238.121 124.703 239.811 124.849C241.502 124.995 242.193 126.194 242.07 126.54C241.947 126.886 240.503 125.618 239.489 125.672C238.467 125.718 237.529 127.262 237.375 127.162C237.229 127.062 237.375 126.54 237.375 126.54Z" fill="#362B2F"/>
<path d="M158.393 126.64H153.744V310.94H158.393V126.64Z" fill="#2D3B53"/>
</svg>
