<svg width="499" height="358" viewBox="0 0 499 358" fill="none" xmlns="http://www.w3.org/2000/svg">
<path d="M86.9613 268.847C86.9613 268.847 55.0607 255.254 41.9248 220.851C28.7888 186.448 40.0497 163.26 64.443 160.779C88.8363 158.301 90.7681 138.285 90.4278 106.385C90.0875 74.4843 132.622 41.96 189.543 31.3264C246.464 20.6929 258.973 55.0959 290.873 60.7246C322.774 66.3532 383.445 59.4734 400.962 75.1117C418.475 90.7501 425.983 118.372 410.972 157.103C395.961 195.834 406.094 207.091 420.106 230.237C434.117 253.379 433.49 283.405 414.098 304.044H119.489C119.489 304.044 114.573 289.207 86.9648 268.851L86.9613 268.847Z" fill="#E1EBFF"/>
<path d="M384.508 304.044C384.508 304.044 381.63 300.206 386.429 295.406C386.429 295.406 383.654 279.151 400.228 276.961C400.228 276.961 403.354 266.015 412.737 264.764C422.119 263.513 429.626 269.457 431.813 277.588C431.813 277.588 439.005 275.086 445.573 279.463C452.141 283.841 451.514 292.911 451.514 292.911C451.514 292.911 458.705 295.477 455.891 304.044H384.501H384.508Z" fill="#3278FF"/>
<path d="M408.412 297.125C403.443 296.572 402.341 290.685 405.283 286.269C408.228 281.852 415.615 284.319 415.615 284.319C415.615 284.319 409.33 280.009 412.46 273.374C414.58 268.872 418.135 266.444 420.209 265.345C417.922 264.651 415.409 264.406 412.737 264.764C403.354 266.015 400.228 276.961 400.228 276.961C383.654 279.151 386.429 295.406 386.429 295.406C381.63 300.206 384.508 304.044 384.508 304.044H407.424C406.335 300.78 408.412 297.125 408.412 297.125Z" fill="#6499FF"/>
<path d="M416.139 304.044V278.988" stroke="#2A284F" stroke-width="1.33307" stroke-miterlimit="10"/>
<path d="M403.836 284.319L416.139 294.368" stroke="#2A284F" stroke-width="1.33307" stroke-miterlimit="10"/>
<path d="M416.139 299.791L433.234 289.345" stroke="#2A284F" stroke-width="1.33307" stroke-miterlimit="10"/>
<path d="M354.465 302.591C354.465 302.591 349.46 294.042 348.209 285.078C346.958 276.114 348.627 267.355 351.335 267.564C354.047 267.773 355.794 275.277 360.133 272.569C364.471 269.858 361.419 253.805 365.095 240.878C368.771 227.951 376.352 224.938 380.315 226.966C384.278 228.993 380.524 248.8 385.735 246.925C390.949 245.05 387.195 226.7 401.373 213.982C415.551 201.264 419.514 208.353 417.844 213.982C416.175 219.611 399.08 242.129 401.997 248.8C404.917 255.47 412.719 248.591 418.199 251.72C423.679 254.847 416.589 264.023 405.75 268.192C394.908 272.36 397.828 275.072 402.624 279.034C407.42 282.997 413.467 294.045 398.247 299.05C383.027 304.055 359.466 306.972 354.461 302.595L354.465 302.591Z" fill="#3278FF"/>
<path d="M355.44 303.233C358.491 299.11 364.287 291.039 371.33 280.101C381.818 263.814 392.582 245.563 398.654 232.466C402.631 223.892 410.589 213.372 415.611 207.123C413.07 206.191 408.522 207.563 401.373 213.978C387.195 226.696 390.948 245.046 385.734 246.921C380.521 248.796 384.274 228.989 380.315 226.962C376.352 224.934 368.77 227.947 365.095 240.874C361.419 253.801 364.471 269.854 360.133 272.565C355.794 275.277 354.047 267.77 351.335 267.561C348.624 267.352 346.958 276.11 348.209 285.074C349.46 294.038 354.465 302.587 354.465 302.587C354.734 302.825 355.067 303.034 355.44 303.229V303.233Z" fill="#0057FF"/>
<path d="M355.439 303.233L388.198 253.595" stroke="#2A284F" stroke-width="1.33307" stroke-miterlimit="10"/>
<path d="M371.333 248.8L375.278 273.374" stroke="#2A284F" stroke-width="1.33307" stroke-miterlimit="10"/>
<path d="M365.899 287.385L396.123 287.144" stroke="#2A284F" stroke-width="1.33307" stroke-miterlimit="10"/>
<path d="M37.547 72.9424H130.955C130.955 72.9424 131.374 69.1888 124.699 63.9784C118.029 58.7644 120.113 52.721 111.149 51.2607C102.185 49.8004 100.306 56.0564 93.6353 52.5119C86.9645 48.9674 86.5462 42.9205 77.1639 41.8784C67.7816 40.8363 64.2371 56.0564 59.8597 57.4104C55.4822 58.7644 42.5554 58.7644 39.4256 64.6022C36.2993 70.44 37.5505 72.9424 37.5505 72.9424H37.547Z" fill="#6499FF"/>
<path d="M323.241 50.3746H421.445C421.445 50.3746 420.662 44.9019 410.029 42.8673C399.395 40.8328 401.114 35.8315 395.018 32.2338C388.917 28.6362 390.64 21.1324 380.474 20.661C370.309 20.1931 366.715 35.516 362.022 35.516C357.329 35.516 354.67 27.8422 346.539 35.5125C338.408 43.1793 331.996 42.3995 327.307 43.4912C322.614 44.5864 323.241 50.3711 323.241 50.3711V50.3746Z" fill="#6499FF"/>
<path d="M70.745 59.5442C71.5035 51.7959 75.8597 45.8766 79.3971 42.2577C78.7095 42.0982 77.9722 41.967 77.1605 41.8784C67.7782 40.8363 64.2337 56.0564 59.8562 57.4104C55.4788 58.7644 42.552 58.7644 39.4222 64.6022C36.2959 70.44 37.5471 72.9424 37.5471 72.9424H79.7622C74.4596 69.3802 70.2275 64.8397 70.7485 59.5442H70.745Z" fill="#6991E2"/>
<path d="M367.19 41.8784C366.12 35.6685 369.66 28.5865 372.808 23.7518C368.023 28.108 365.287 35.5196 362.026 35.5196C357.333 35.5196 354.674 27.8457 346.543 35.516C338.412 43.1828 332 42.403 327.311 43.4947C322.618 44.59 323.245 50.3746 323.245 50.3746H375.296C370.958 47.8474 367.725 44.9728 367.194 41.8784H367.19Z" fill="#6991E2"/>
<path d="M82.2717 188.763C82.2717 188.763 87.5601 201.271 76.3027 206.588C65.0454 211.905 65.9811 222.964 68.7955 229.163C71.6098 235.362 74.4242 244.745 64.1025 254.439C53.7809 264.133 48.7761 274.143 51.594 288.215C54.4083 302.29 63.7906 304.041 63.7906 304.041H120.396C120.396 304.041 137.91 288.197 125.713 264.594C113.517 240.991 113.828 239.541 116.643 229.163C119.457 218.785 119.769 215.659 110.075 203.146C100.381 190.638 108.313 171.558 106.222 164.678C104.131 157.798 94.4364 153.105 87.2446 159.673C80.0528 166.241 77.6036 174.999 82.2681 188.759L82.2717 188.763Z" fill="#3278FF"/>
<path d="M94.7661 156.536C92.2282 156.589 89.6053 157.529 87.2482 159.68C80.0564 166.248 77.6071 175.007 82.2717 188.766C82.2717 188.766 87.5601 201.275 76.3027 206.592C65.0454 211.909 65.9811 222.967 68.7955 229.167C71.6098 235.366 74.4242 244.748 64.1025 254.443C53.7809 264.137 48.7761 274.147 51.594 288.218C54.4083 302.293 63.7906 304.044 63.7906 304.044H94.7661V156.536Z" fill="#6499FF"/>
<path d="M95.0107 304.044V229.167" stroke="#2A284F" stroke-width="1.33307" stroke-miterlimit="10"/>
<path d="M85.8481 251.628L95.0107 264.594" stroke="#2A284F" stroke-width="1.33307" stroke-miterlimit="10"/>
<path d="M95.0107 286.028L114.413 266.604" stroke="#2A284F" stroke-width="1.33307" stroke-miterlimit="10"/>
<path d="M18.3857 304.044C18.3857 304.044 15.5076 300.206 20.3068 295.406C20.3068 295.406 17.5315 279.151 34.1056 276.961C34.1056 276.961 37.2318 266.015 46.6142 264.764C55.9965 263.513 63.5037 269.457 65.6907 277.588C65.6907 277.588 72.8825 275.086 79.4505 279.463C86.0184 283.841 85.391 292.911 85.391 292.911C85.391 292.911 92.5828 295.477 89.7685 304.044H18.3786H18.3857Z" fill="#AFCAFF"/>
<path d="M37.3167 295.403C38.9719 284.479 51.2218 286.027 51.2218 286.027C51.2218 286.027 42.2861 284.241 43.1155 275.848C43.6684 270.23 47.6808 266.501 50.2789 264.643C49.0986 264.566 47.8757 264.594 46.621 264.76C37.2387 266.012 34.1124 276.957 34.1124 276.957C17.5383 279.148 20.3137 295.403 20.3137 295.403C15.5144 300.202 18.3925 304.041 18.3925 304.041H39.6809C37.7881 302.027 36.7425 299.238 37.3238 295.403H37.3167Z" fill="#6499FF"/>
<path d="M51.0586 304.044V278.988" stroke="#2A284F" stroke-width="1.33307" stroke-miterlimit="10"/>
<path d="M38.7559 284.319L51.0588 294.368" stroke="#2A284F" stroke-width="1.33307" stroke-miterlimit="10"/>
<path d="M51.0586 299.791L68.1537 289.345" stroke="#2A284F" stroke-width="1.33307" stroke-miterlimit="10"/>
<path d="M11.0273 304.044H462.633" stroke="#2A284F" stroke-width="3.99922" stroke-miterlimit="10" stroke-linecap="round"/>
<path d="M114.381 323.557H187.037" stroke="#D1D8FF" stroke-width="3.99922" stroke-miterlimit="10" stroke-linecap="round"/>
<path d="M94.0039 336.484H141.688" stroke="#D1D8FF" stroke-width="3.99922" stroke-miterlimit="10" stroke-linecap="round"/>
<path d="M314.6 340.656H401.334" stroke="#D1D8FF" stroke-width="3.99922" stroke-miterlimit="10" stroke-linecap="round"/>
<path d="M292.436 355.667H331.433" stroke="#D1D8FF" stroke-width="3.99922" stroke-miterlimit="10" stroke-linecap="round"/>
<path d="M356.623 272.364H117.89C111.18 272.364 105.743 266.926 105.743 260.217V80.0423C105.743 73.3325 111.18 67.8953 117.89 67.8953H356.623C363.333 67.8953 368.77 73.3325 368.77 80.0423V260.217C368.77 266.926 363.333 272.364 356.623 272.364Z" fill="#BEC9ED"/>
<path d="M368.774 237.805V81.6549C368.774 74.0519 362.614 67.8916 355.011 67.8916H119.506C111.907 67.8916 105.743 74.0519 105.743 81.6549V237.805H368.774Z" fill="#9C9C9C"/>
<path d="M355.351 229.167H119.163C116.522 229.167 114.381 227.026 114.381 224.385V81.3111C114.381 78.6704 116.522 76.5295 119.163 76.5295H355.351C357.992 76.5295 360.133 78.6704 360.133 81.3111V224.385C360.133 227.026 357.992 229.167 355.351 229.167Z" fill="white"/>
<path d="M281.32 78.1403C282.233 77.4985 283.493 77.7193 284.135 78.6324C284.777 79.5456 284.557 80.8061 283.644 81.4479L174.601 158.086L203.24 196.978L286.834 133.354L273.064 114.934C272.739 114.499 272.602 113.952 272.685 113.416C272.768 112.879 273.063 112.398 273.504 112.082L320.798 78.152C321.705 77.5015 322.968 77.709 323.619 78.6158C324.269 79.5227 324.061 80.7855 323.155 81.4362L317.411 85.5563L348.413 124.268L353.13 120.714C354.022 120.043 355.289 120.222 355.96 121.113C356.632 122.004 356.454 123.271 355.563 123.943L349.328 128.639C349.327 128.64 349.327 128.642 349.326 128.642C349.323 128.645 349.319 128.647 349.316 128.649L310.325 158.023L355.965 219.072C356.634 219.966 356.45 221.233 355.556 221.901C354.662 222.569 353.396 222.387 352.728 221.493L305.907 158.865C305.9 158.856 305.891 158.847 305.884 158.838C305.876 158.827 305.87 158.815 305.862 158.804L289.255 136.591L249.542 166.817L292.849 224.234C293.521 225.125 293.344 226.392 292.454 227.064C291.563 227.736 290.295 227.559 289.623 226.668L246.325 169.265L205.636 200.234L223.323 224.253C223.984 225.151 223.792 226.416 222.894 227.078C221.995 227.74 220.73 227.548 220.068 226.649L202.419 202.682L170.392 227.059C169.504 227.735 168.236 227.562 167.56 226.674C166.884 225.786 167.056 224.518 167.944 223.842L200.022 199.426L171.292 160.411L120.99 195.765C120.077 196.407 118.816 196.187 118.174 195.274C117.533 194.361 117.753 193.1 118.667 192.459L160.641 162.957L118.21 106.33C117.541 105.436 117.724 104.17 118.617 103.501C119.51 102.832 120.777 103.014 121.446 103.907L136.103 123.468L186.338 89.1295L180.641 80.9498C180.003 80.034 180.228 78.7734 181.144 78.1354C182.06 77.4977 183.319 77.7229 183.958 78.6383L215.722 124.243L281.32 78.1403ZM153.842 147.143L163.949 160.631L212.416 126.567L203.353 113.556L153.842 147.143ZM277.535 114.164L290.873 132.005C291.051 132.125 291.214 132.276 291.352 132.457C291.496 132.646 291.6 132.854 291.668 133.069L307.904 154.786L345.182 126.702L314.122 87.9156L277.535 114.164ZM138.529 126.707L151.416 143.906L201.042 110.239L188.649 92.4459L138.529 126.707Z" fill="#BEC9ED"/>
<path d="M216.856 272.363L205.578 318.442H266.058L257.721 272.363H216.856Z" fill="#BEC9ED"/>
<path d="M216.857 272.363L215.233 278.988H258.919L257.721 272.363H216.857Z" fill="#6499FF"/>
<path d="M202.122 185.488C202.122 181.185 198.521 177.725 194.165 177.959C191.017 178.129 188.295 180.32 187.366 183.329C186.905 184.821 186.962 186.239 187.324 187.529H187.317C188.139 190.911 191.999 194.53 193.732 196.015C194.218 196.433 194.934 196.433 195.423 196.015C197.156 194.53 201.016 190.911 201.839 187.529H201.831C202.012 186.881 202.119 186.197 202.119 185.491L202.122 185.488Z" fill="#E1625D"/>
<path d="M315.486 114.357C315.486 110.054 311.885 106.594 307.528 106.824C304.381 106.995 301.659 109.185 300.73 112.194C300.269 113.687 300.326 115.104 300.688 116.395H300.68C301.503 119.776 305.363 123.395 307.096 124.88C307.582 125.298 308.298 125.298 308.787 124.88C310.52 123.395 314.38 119.776 315.202 116.395H315.195C315.376 115.746 315.482 115.062 315.482 114.357H315.486Z" fill="#E1625D"/>
<path d="M262.612 191.978C262.612 187.675 259.011 184.215 254.655 184.449C251.507 184.616 248.785 186.81 247.857 189.819C247.396 191.311 247.452 192.729 247.814 194.019H247.807C248.629 197.401 252.489 201.02 254.222 202.505C254.708 202.923 255.424 202.923 255.913 202.505C257.646 201.02 261.506 197.401 262.329 194.019H262.322C262.502 193.371 262.609 192.687 262.609 191.978H262.612Z" fill="#E1625D"/>
<path d="M156.773 151.202C156.773 146.899 153.172 143.439 148.816 143.67C145.668 143.84 142.946 146.03 142.018 149.039C141.557 150.532 141.614 151.95 141.975 153.24H141.968C142.79 156.621 146.65 160.24 148.384 161.725C148.869 162.144 149.585 162.144 150.074 161.725C151.808 160.24 155.668 156.621 156.49 153.24H156.483C156.664 152.591 156.77 151.907 156.77 151.202H156.773Z" fill="#E1625D"/>
<path d="M277.22 20.6504V24.7939" stroke="#3278FF" stroke-width="1.33307" stroke-miterlimit="10" stroke-linecap="round" stroke-linejoin="round"/>
<path d="M277.22 26.8676V31.0111" stroke="#3278FF" stroke-width="1.33307" stroke-miterlimit="10" stroke-linecap="round" stroke-linejoin="round"/>
<path d="M282.398 25.8325H278.255" stroke="#3278FF" stroke-width="1.33307" stroke-miterlimit="10" stroke-linecap="round" stroke-linejoin="round"/>
<path d="M276.181 25.8325H272.041" stroke="#3278FF" stroke-width="1.33307" stroke-miterlimit="10" stroke-linecap="round" stroke-linejoin="round"/>
<path d="M204.709 3.25754C204.709 4.68952 203.55 5.84857 202.118 5.84857C200.686 5.84857 199.527 4.68952 199.527 3.25754C199.527 1.8291 200.686 0.666504 202.118 0.666504C203.547 0.666504 204.709 1.82556 204.709 3.25754Z" stroke="#3278FF" stroke-width="1.33307" stroke-miterlimit="10" stroke-linecap="round" stroke-linejoin="round"/>
<path d="M433.234 147.671V151.811" stroke="#3278FF" stroke-width="1.33307" stroke-miterlimit="10" stroke-linecap="round" stroke-linejoin="round"/>
<path d="M433.234 153.885V158.029" stroke="#3278FF" stroke-width="1.33307" stroke-miterlimit="10" stroke-linecap="round" stroke-linejoin="round"/>
<path d="M438.413 152.85H434.273" stroke="#3278FF" stroke-width="1.33307" stroke-miterlimit="10" stroke-linecap="round" stroke-linejoin="round"/>
<path d="M432.2 152.85H428.056" stroke="#3278FF" stroke-width="1.33307" stroke-miterlimit="10" stroke-linecap="round" stroke-linejoin="round"/>
<path d="M456.55 232.626V236.77" stroke="#3278FF" stroke-width="1.33307" stroke-miterlimit="10" stroke-linecap="round" stroke-linejoin="round"/>
<path d="M456.55 238.843V242.983" stroke="#3278FF" stroke-width="1.33307" stroke-miterlimit="10" stroke-linecap="round" stroke-linejoin="round"/>
<path d="M461.728 237.805H457.585" stroke="#3278FF" stroke-width="1.33307" stroke-miterlimit="10" stroke-linecap="round" stroke-linejoin="round"/>
<path d="M455.512 237.805H451.372" stroke="#3278FF" stroke-width="1.33307" stroke-miterlimit="10" stroke-linecap="round" stroke-linejoin="round"/>
<path d="M492.169 197.638V201.778" stroke="#3278FF" stroke-width="1.33307" stroke-miterlimit="10" stroke-linecap="round" stroke-linejoin="round"/>
<path d="M492.169 203.855V207.995" stroke="#3278FF" stroke-width="1.33307" stroke-miterlimit="10" stroke-linecap="round" stroke-linejoin="round"/>
<path d="M497.351 202.817H493.208" stroke="#3278FF" stroke-width="1.33307" stroke-miterlimit="10" stroke-linecap="round" stroke-linejoin="round"/>
<path d="M491.134 202.817H486.99" stroke="#3278FF" stroke-width="1.33307" stroke-miterlimit="10" stroke-linecap="round" stroke-linejoin="round"/>
<path d="M477.158 175.63C477.158 177.062 475.999 178.221 474.567 178.221C473.139 178.221 471.976 177.062 471.976 175.63C471.976 174.198 473.135 173.039 474.567 173.039C475.996 173.039 477.158 174.198 477.158 175.63Z" stroke="#3278FF" stroke-width="1.33307" stroke-miterlimit="10" stroke-linecap="round" stroke-linejoin="round"/>
<path d="M462.247 108.799C462.247 110.227 461.087 111.39 459.655 111.39C458.227 111.39 457.064 110.231 457.064 108.799C457.064 107.367 458.223 106.208 459.655 106.208C461.087 106.208 462.247 107.367 462.247 108.799Z" stroke="#3278FF" stroke-width="1.33307" stroke-miterlimit="10" stroke-linecap="round" stroke-linejoin="round"/>
<path d="M38.7559 121.155V125.295" stroke="#3278FF" stroke-width="1.33307" stroke-miterlimit="10" stroke-linecap="round" stroke-linejoin="round"/>
<path d="M38.7559 127.372V131.512" stroke="#3278FF" stroke-width="1.33307" stroke-miterlimit="10" stroke-linecap="round" stroke-linejoin="round"/>
<path d="M43.9344 126.333H39.7944" stroke="#3278FF" stroke-width="1.33307" stroke-miterlimit="10" stroke-linecap="round" stroke-linejoin="round"/>
<path d="M37.7207 126.333H33.5771" stroke="#3278FF" stroke-width="1.33307" stroke-miterlimit="10" stroke-linecap="round" stroke-linejoin="round"/>
<path d="M5.84863 172.766V176.91" stroke="#3278FF" stroke-width="1.33307" stroke-miterlimit="10" stroke-linecap="round" stroke-linejoin="round"/>
<path d="M5.84863 178.984V183.124" stroke="#3278FF" stroke-width="1.33307" stroke-miterlimit="10" stroke-linecap="round" stroke-linejoin="round"/>
<path d="M11.0268 177.945H6.8833" stroke="#3278FF" stroke-width="1.33307" stroke-miterlimit="10" stroke-linecap="round" stroke-linejoin="round"/>
<path d="M4.80991 177.945H0.669922" stroke="#3278FF" stroke-width="1.33307" stroke-miterlimit="10" stroke-linecap="round" stroke-linejoin="round"/>
<path d="M5.84857 214.436C5.84857 215.868 4.68952 217.027 3.25754 217.027C1.82556 217.027 0.666504 215.868 0.666504 214.436C0.666504 213.007 1.82556 211.845 3.25754 211.845C4.68597 211.845 5.84857 213.004 5.84857 214.436Z" stroke="#3278FF" stroke-width="1.33307" stroke-miterlimit="10" stroke-linecap="round" stroke-linejoin="round"/>
<path d="M7.40082 100.483C7.40082 101.912 6.24176 103.074 4.80978 103.074C3.38135 103.074 2.21875 101.915 2.21875 100.483C2.21875 99.0514 3.3778 97.8923 4.80978 97.8923C6.24176 97.8923 7.40082 99.0514 7.40082 100.483Z" stroke="#3278FF" stroke-width="1.33307" stroke-miterlimit="10" stroke-linecap="round" stroke-linejoin="round"/>
<path d="M73.3325 103.071C73.3325 104.503 72.1734 105.662 70.7414 105.662C69.313 105.662 68.1504 104.503 68.1504 103.071C68.1504 101.642 69.3094 100.48 70.7414 100.48C72.1734 100.48 73.3325 101.639 73.3325 103.071Z" stroke="#3278FF" stroke-width="1.33307" stroke-miterlimit="10" stroke-linecap="round" stroke-linejoin="round"/>
<path d="M340.702 154.675C340.702 154.675 337.678 159.368 335.906 164.579C335.906 164.579 334.265 164.214 333.403 165.465C332.542 166.716 334.027 168.201 334.027 168.201C334.027 168.201 332.152 171.093 332.776 174.379C333.4 177.661 339.812 179.852 339.812 179.852L338.093 183.684C338.093 183.684 341.219 184.467 342.47 185.952L345.912 178.367C345.912 178.367 350.289 178.211 351.229 175.318C352.168 172.426 350.601 168.595 346.929 171.331C346.929 171.331 338.068 163.902 340.702 154.679V154.675Z" fill="#FFB892"/>
<path d="M361.944 160.931C361.944 160.931 363.897 155.771 361.16 150.298C358.424 144.825 351.466 143.652 344.586 146.778C344.586 146.778 342.552 142.323 336.611 144.432C330.713 146.526 329.986 156.093 336.473 163.04C338.256 158.479 340.701 154.675 340.701 154.675C338.068 163.902 346.929 171.327 346.929 171.327C350.605 168.591 352.168 172.423 351.229 175.315C350.289 178.207 345.912 178.363 345.912 178.363L344.232 182.064C344.232 182.064 346.536 187.122 352.948 184.619C359.36 182.117 363.113 172.345 363.425 168.045C363.737 163.746 361.94 160.931 361.94 160.931H361.944Z" fill="#1F143F"/>
<path d="M338.096 183.684C338.096 183.684 334.559 183.606 332.652 186.342C330.748 189.078 321.051 218.866 319.488 225.2C317.924 231.534 318.47 232.002 318.47 232.002C318.47 232.002 335.42 236.38 342.073 233.098C342.073 233.098 343.409 213.55 343.725 207.297C344.037 201.041 345.837 190.482 342.474 185.952C342.474 185.952 340.677 184.077 338.096 183.684Z" fill="#0885F1"/>
<path d="M318.471 232.002C318.471 232.002 318.265 231.818 318.471 230.216L318.378 230.205C318.378 230.205 310.783 272.661 309.701 275.6C308.624 278.538 300.964 306.983 297.48 315.989C297.48 315.989 301.971 319.814 305.157 319.247C305.157 319.247 315.607 297.303 318.148 288.643C320.693 279.984 319.523 278.467 319.587 277.248C319.651 276.029 342.07 233.098 342.07 233.098C335.417 236.38 318.467 232.002 318.467 232.002H318.471Z" fill="#211C34"/>
<path d="M297.484 315.986C297.484 315.986 288.683 323.504 287.329 325.276H305.416C305.416 325.276 305.76 322.21 304.984 319.261C301.811 319.662 297.487 315.986 297.487 315.986H297.484Z" fill="#0057FF"/>
<path d="M342.371 318.442C339.66 320.207 334.031 318.442 334.031 318.442C334.031 318.442 326.318 323.507 324.96 325.28H343.048C343.048 325.28 343.466 321.614 342.371 318.442Z" fill="#0057FF"/>
<path d="M338.096 183.684C338.096 183.684 332.468 182.408 321.937 185.952C311.406 189.497 311.406 189.497 311.406 189.497C311.406 189.497 312.136 195.646 316.932 198.776C321.728 201.902 331.44 202.632 333.045 200.548C334.655 198.464 338.093 183.687 338.093 183.687L338.096 183.684Z" fill="#4F98D8"/>
<path d="M349.825 173.596C349.655 173.096 349.347 172.731 349.021 172.713C348.85 172.696 348.645 172.717 348.567 172.784C348.446 172.841 348.308 173 348.184 173.16C347.925 173.497 347.702 173.918 347.464 174.333C347.231 174.755 346.993 175.191 346.702 175.623C346.656 175.099 346.72 174.588 346.851 174.088C346.982 173.589 347.181 173.103 347.514 172.642C347.705 172.43 347.893 172.189 348.237 172.05C348.609 171.919 348.932 171.951 349.23 172.082C349.538 172.21 349.779 172.493 349.853 172.777C349.931 173.061 349.921 173.341 349.829 173.589L349.825 173.596Z" fill="#873448"/>
<path d="M334.031 170.314L338.671 171.877C338.671 171.877 337.731 175.109 334.605 174.847C331.479 174.585 334.031 170.314 334.031 170.314Z" fill="#873448"/>
<path d="M339.932 165.39C339.542 166.287 338.766 166.815 338.199 166.571C337.632 166.322 337.487 165.397 337.877 164.497C338.266 163.6 339.043 163.072 339.61 163.317C340.177 163.565 340.322 164.49 339.932 165.39Z" fill="#0046CD"/>
<path d="M324.546 189.181L278.205 149.826L272.041 156.972L318.378 196.327L324.546 189.181Z" fill="#0046CD"/>
<path d="M338.096 183.683C338.096 183.683 333.442 182.464 329.235 194.827C329.235 194.827 327.931 198.85 327.073 199.244C326.212 199.634 322.38 196.352 316.439 193.693C310.499 191.035 305.494 187.359 305.494 187.359C305.494 187.359 302.758 190.723 302.602 193.615C302.602 193.615 320.271 207.846 327.073 211.051C333.875 214.255 338.646 207.141 340.365 201.668C342.084 196.196 344.533 190.492 343.728 188.568C342.924 186.643 342.009 184.467 338.1 183.683H338.096Z" fill="#80C4FF"/>
<path d="M287.144 169.8C287.144 169.8 286.57 172.267 287.509 173.986C288.448 175.708 288.448 175.708 288.448 175.708C288.448 175.708 288.916 179.462 290.951 180.713C292.985 181.964 295.63 182.088 297.902 178.937L295.491 176.889C295.491 176.889 297.363 170.937 296.501 169.062C295.64 167.187 291.025 168.297 289.739 172.001L287.148 169.8H287.144Z" fill="#FFB892"/>
<path d="M302.599 193.612C302.599 193.612 296.658 189.39 295.797 187.749C294.935 186.108 295.488 176.889 295.488 176.889L299.749 180.504C299.749 180.504 298.845 178.679 300.174 178.051C301.503 177.424 303.616 179.38 304.318 180.866C305.023 182.351 304.318 184.385 304.318 184.385L305.491 187.356C305.491 187.356 303.772 188.529 302.599 193.612Z" fill="#FFB892"/>
<path d="M339.245 274.143C338.826 272.994 342.077 233.094 342.077 233.094C336.817 235.689 325.134 233.498 320.462 232.467C320.462 232.467 329.341 273.36 329.497 276.486C329.653 279.612 333.719 308.787 334.031 318.439C334.031 318.439 339.659 320.204 342.371 318.439C342.371 318.439 343.413 294.155 342.371 285.191C341.329 276.227 339.659 275.288 339.245 274.139V274.143Z" fill="#2A284F"/>
<path d="M284.826 133.001C284.826 150.783 270.41 165.199 252.627 165.199C234.845 165.199 220.429 150.783 220.429 133.001C220.429 115.218 234.845 100.802 252.627 100.802C270.41 100.802 284.826 115.218 284.826 133.001Z" fill="#0046CD"/>
<path d="M279.396 133.001C279.396 147.785 267.412 159.769 252.628 159.769C237.844 159.769 225.86 147.785 225.86 133.001C225.86 118.217 237.844 106.233 252.628 106.233C267.412 106.233 279.396 118.217 279.396 133.001Z" fill="white"/>
<path fill-rule="evenodd" clip-rule="evenodd" d="M267.22 118.368C269.662 120.81 269.662 124.808 267.22 127.249L261.41 133.059L267.22 138.869C269.662 141.311 269.662 145.309 267.22 147.75C264.778 150.192 260.78 150.192 258.339 147.75L252.529 141.941L246.719 147.75C244.277 150.192 240.279 150.192 237.838 147.75C235.396 145.309 235.396 141.311 237.838 138.869L243.647 133.059L237.838 127.249C235.396 124.808 235.396 120.81 237.838 118.368C240.279 115.926 244.277 115.926 246.723 118.368L252.533 124.178L258.343 118.368C260.784 115.926 264.782 115.926 267.228 118.368H267.22Z" fill="#FF3232"/>
</svg>
