<svg width="160" height="161" viewBox="0 0 160 161" fill="none" xmlns="http://www.w3.org/2000/svg">
<path d="M80.0006 0.5C124.183 0.5 160.001 36.3173 160.001 80.5C160.001 124.683 124.183 160.5 80.0006 160.5C35.8179 160.5 0.000610352 124.683 0.000610352 80.5C0.000610352 36.3173 35.8179 0.5 80.0006 0.5Z" fill="#F1F2F4"/>
<path d="M20.8318 91.5282L22.0133 94.9781L25.208 96.2548L22.0133 97.5315L20.8318 100.981L19.6498 97.5315L16.4551 96.2548L19.6498 94.9781L20.8318 91.5282Z" fill="#3278FF"/>
<path d="M48.3839 110.064L56.8091 118.489L31.2697 144.029C28.9434 146.355 25.1713 146.355 22.8445 144.029C20.5178 141.702 20.5178 137.93 22.8445 135.604L48.3835 110.065L48.3839 110.064Z" fill="#3278FF"/>
<path d="M46.3172 112.287L24.9605 133.644C24.8235 133.78 24.8235 134.002 24.9605 134.139C25.0971 134.276 25.3191 134.276 25.4557 134.139L46.8124 112.782C46.9494 112.646 46.9494 112.424 46.8124 112.287C46.6758 112.15 46.4538 112.15 46.3172 112.287Z" fill="#22262E"/>
<path fill-rule="evenodd" clip-rule="evenodd" d="M57.3352 98.4798L68.3933 109.538L56.2769 121.654C54.9092 123.021 52.6928 123.021 51.3255 121.654L45.2188 115.547C43.8515 114.179 43.8515 111.963 45.2188 110.595L57.3352 98.4789V98.4798Z" fill="#0046CD"/>
<path d="M115.391 49.7194C131.967 66.2962 131.967 93.173 115.391 109.75C98.8138 126.327 71.937 126.327 55.3602 109.75C38.7834 93.173 38.7834 66.2962 55.3602 49.7194C71.937 33.1422 98.8138 33.1422 115.391 49.7194Z" fill="#002469"/>
<path fill-rule="evenodd" clip-rule="evenodd" d="M117.987 79.831C117.987 97.9272 103.317 112.597 85.22 112.597C67.1233 112.597 52.4535 97.9272 52.4535 79.831C52.4535 61.7343 67.1237 47.0641 85.22 47.0641C103.317 47.0641 117.987 61.7343 117.987 79.831Z" fill="#AFCAFF"/>
<path d="M104.901 101.31C110.858 95.3527 113.838 87.5418 113.837 79.7345C113.838 71.9272 110.858 64.1163 104.901 58.1599C104.764 58.0229 104.542 58.0229 104.406 58.1599C104.269 58.2964 104.269 58.5185 104.406 58.655C110.228 64.4771 113.137 72.1047 113.137 79.7349C113.137 87.3657 110.228 94.9932 104.406 100.815C104.269 100.951 104.269 101.173 104.406 101.31C104.542 101.447 104.764 101.447 104.901 101.31V101.31Z" fill="#22262E"/>
<path fill-rule="evenodd" clip-rule="evenodd" d="M84.0256 101.681C86.3459 101.681 88.2266 99.8006 88.2266 97.4803C88.2266 95.16 86.3459 93.2792 84.0256 93.2792C81.7053 93.2792 79.8245 95.1605 79.8245 97.4803C79.8245 99.8006 81.7057 101.681 84.0256 101.681ZM82.2763 60.0186C80.2801 60.0186 78.6875 61.6856 78.779 63.6795L79.9164 88.537C80.0024 90.4068 81.5425 91.878 83.4141 91.878H84.9878C86.8589 91.878 88.3995 90.4063 88.485 88.537L89.6229 63.6795C89.7139 61.6851 88.1214 60.0186 86.1252 60.0186H82.2763Z" fill="white"/>
<path d="M69.3051 11.3419L71.2525 17.027L76.5165 19.1303L71.2525 21.2341L69.3051 26.9192L67.3571 21.2341L62.0931 19.1303L67.3571 17.027L69.3051 11.3419Z" fill="#3278FF"/>
<path d="M141.547 76.4652C143.287 76.4652 144.698 75.0544 144.698 73.3141C144.698 71.5739 143.287 70.1631 141.547 70.1631C139.806 70.1631 138.396 71.5739 138.396 73.3141C138.396 75.0544 139.806 76.4652 141.547 76.4652Z" fill="#3278FF"/>
<path d="M142.105 147.713C140.444 146.95 138.328 145.659 136.65 144.019C135.81 143.199 135.079 142.294 134.563 141.33C134.045 140.365 133.742 139.345 133.742 138.283C133.743 136.912 134.242 135.452 135.511 133.905C137.133 131.932 138.545 130.632 139.724 129.833C140.903 129.032 141.846 128.74 142.522 128.741C143.082 128.743 143.46 128.929 143.719 129.203C143.977 129.479 144.118 129.867 144.118 130.299C144.118 130.534 144.076 130.781 143.989 131.023C143.849 131.421 143.496 132.031 142.99 132.692C142.231 133.687 141.125 134.815 139.866 135.682C138.606 136.552 137.196 137.154 135.833 137.153C135.118 137.152 134.412 136.991 133.721 136.614C133.031 136.236 132.353 135.638 131.711 134.749C130.309 132.808 129.783 130.564 129.782 128.352C129.781 125.867 130.453 123.429 131.276 121.581C131.688 120.657 132.138 119.88 132.551 119.322C132.758 119.044 132.955 118.821 133.128 118.664C133.299 118.506 133.448 118.42 133.525 118.399C133.71 118.344 133.815 118.149 133.76 117.964C133.704 117.778 133.509 117.673 133.324 117.729C133.086 117.802 132.875 117.949 132.656 118.146C132.276 118.494 131.877 119.014 131.476 119.676C130.279 121.659 129.085 124.923 129.082 128.351C129.081 130.673 129.638 133.075 131.143 135.159C131.834 136.117 132.59 136.793 133.385 137.228C134.18 137.663 135.011 137.853 135.833 137.852C136.879 137.852 137.908 137.55 138.87 137.079C140.315 136.372 141.62 135.283 142.635 134.194C143.142 133.648 143.576 133.103 143.918 132.602C144.26 132.099 144.51 131.644 144.649 131.257C144.762 130.941 144.819 130.616 144.819 130.298C144.819 129.715 144.627 129.149 144.232 128.725C143.838 128.299 143.243 128.037 142.522 128.04C141.647 128.042 140.586 128.403 139.332 129.252C138.076 130.104 136.623 131.45 134.97 133.46C133.619 135.101 133.041 136.736 133.042 138.282C133.041 139.481 133.385 140.616 133.945 141.66C134.787 143.227 136.111 144.597 137.542 145.729C138.975 146.861 140.518 147.753 141.812 148.349C141.988 148.429 142.196 148.352 142.277 148.177C142.358 148.001 142.281 147.793 142.105 147.712V147.713Z" fill="#22262E"/>
<path d="M0.0148429 45.0927C0.402402 46.3813 1.17798 48.07 2.37192 49.4643C2.96912 50.1608 3.67298 50.7833 4.48948 51.2343C5.30551 51.6853 6.2374 51.9616 7.26768 51.9616C8.15083 51.9616 9.10387 51.7589 10.1167 51.3056C12.1892 50.3778 13.7872 49.3402 15.1949 48.5513C15.8988 48.1564 16.5539 47.8235 17.1939 47.5923C17.8352 47.3606 18.4586 47.2286 19.1133 47.2286C20.0125 47.2295 20.9817 47.476 22.1425 48.103C23.302 48.7297 24.6453 49.7379 26.2586 51.2417C28.5471 53.3776 30.815 54.2065 32.8774 54.2042C34.7876 54.2038 36.5015 53.5031 37.9065 52.5538C39.3128 51.6035 40.418 50.405 41.1302 49.3673C41.2396 49.2078 41.1991 48.9899 41.0396 48.8805C40.8801 48.7715 40.6626 48.812 40.5527 48.971C39.8898 49.9388 38.8352 51.0831 37.5143 51.9736C36.1926 52.8655 34.612 53.5045 32.8769 53.5041C31.0044 53.5018 28.9283 52.7699 26.7358 50.7295C25.095 49.2009 23.7121 48.1559 22.4758 47.4875C21.2405 46.8185 20.1454 46.528 19.1133 46.5289C18.3635 46.5284 17.6536 46.6815 16.9557 46.9339C15.9089 47.3132 14.8865 47.9123 13.7449 48.5803C12.6034 49.2492 11.3437 49.9894 9.83026 50.6666C8.89423 51.0849 8.04325 51.2615 7.26722 51.2619C6.36199 51.2615 5.55469 51.0224 4.82784 50.622C3.73826 50.0215 2.83442 49.0483 2.13883 47.9904C1.44279 46.9339 0.955468 45.7952 0.685142 44.8927C0.629513 44.7074 0.434584 44.6026 0.249309 44.6578C0.0640349 44.7134 -0.0412452 44.9083 0.0143832 45.0936L0.0148429 45.0927Z" fill="#22262E"/>
<path d="M126.806 20.5073C126.256 19.2826 125.638 17.7208 125.161 16.1766C124.684 14.6337 124.349 13.1014 124.35 11.9681C124.348 11.3447 124.455 10.8514 124.643 10.5563C124.737 10.4073 124.846 10.3034 124.983 10.2299C125.12 10.1572 125.292 10.1117 125.522 10.1117C125.752 10.1117 126.037 10.1591 126.379 10.2694C126.921 10.4441 127.288 10.6804 127.513 10.9305C127.737 11.182 127.831 11.4413 127.832 11.7268C127.833 12.021 127.723 12.352 127.489 12.6899C127.14 13.1961 126.513 13.7046 125.655 14.0788C124.799 14.4539 123.714 14.6981 122.455 14.6981C119.614 14.6976 115.875 13.4581 111.836 9.68048C111.695 9.54853 111.473 9.55589 111.342 9.69703C111.21 9.83817 111.217 10.0598 111.358 10.1917C115.496 14.065 119.408 15.3987 122.455 15.3982C124.255 15.3978 125.75 14.9348 126.812 14.254C127.343 13.9128 127.768 13.517 128.065 13.0885C128.361 12.6605 128.532 12.1952 128.533 11.7268C128.534 11.2739 128.365 10.8266 128.033 10.462C127.702 10.0956 127.221 9.80598 126.594 9.60324C126.2 9.47635 125.846 9.41245 125.522 9.41199C125.199 9.41153 124.905 9.47819 124.653 9.6129C124.272 9.81518 124.013 10.1632 123.862 10.5682C123.71 10.9751 123.65 11.4473 123.65 11.9691C123.651 13.231 124.004 14.8029 124.491 16.3839C124.98 17.9636 125.605 19.546 126.167 20.7951C126.246 20.9717 126.453 21.0503 126.63 20.9707C126.806 20.8917 126.884 20.6843 126.805 20.5078L126.806 20.5073Z" fill="#22262E"/>
</svg>
