<svg width="388" height="355" viewBox="0 0 388 355" fill="none" xmlns="http://www.w3.org/2000/svg">
<path d="M139.868 177.24L382.512 177.24V1.52588e-05L139.868 1.52588e-05L139.868 177.24Z" fill="#F1F2F4"/>
<path d="M129.145 177.24L380.025 177.24V1.52588e-05L129.145 1.52588e-05L129.145 177.24Z" fill="#F1F2F4"/>
<path d="M365.001 162.225V15.0155L144.152 15.0155V162.225H365.001Z" fill="#FAFAFA"/>
<path d="M311.319 162.215L261.041 15.0055H213.029L263.307 162.215H311.319Z" fill="white"/>
<path d="M252.994 162.215L202.716 15.0055H184.007L234.275 162.215H252.994Z" fill="white"/>
<path d="M146.068 162.225V15.0154H144.161V162.225H146.068Z" fill="#F1F2F4"/>
<path d="M13.8639 129.029H99.5439L99.5439 7.5576L13.8639 7.5576L13.8639 129.029Z" fill="#E2E5E9"/>
<path d="M7.80341 129.029H96.1191L96.1191 7.5576L7.80341 7.5576L7.80341 129.029Z" fill="white"/>
<path d="M87.4043 119.445V17.1219L16.5201 17.1219V119.445H87.4043Z" fill="white"/>
<path d="M47.1697 214.07C53.5293 198.376 68.6546 192.535 73.886 182.632C80.7348 169.653 80.6949 150.175 74.8644 143.146C69.8027 137.036 53.0301 178.329 51.1332 182.941C44.6338 198.805 42.7469 210.586 41.5289 221.987C41.6686 212.293 41.7984 203.388 41.9083 196.519C42.2677 174.116 42.707 166.907 42.9066 164.691C43.6055 163.613 44.4341 162.345 44.9133 161.666C48.9767 155.945 57.982 149.126 62.4747 140.81C69.0439 128.66 67.9857 114.124 63.3732 108.712C58.5511 103.052 50.035 116.43 45.5124 129.688C40.9897 142.946 42.9266 155.626 41.6487 166.638C41.3791 168.794 41.1096 177.001 40.85 188.372C39.4822 176.132 36.7467 167.936 31.675 160.288C25.4451 150.893 20.0639 139.442 14.9323 140.92C9.8007 142.397 12.5662 157.543 16.6196 168.175C20.2337 177.64 38.0845 187.084 40.7102 194.702C40.4007 210.117 40.1212 229.655 39.9315 247.845C38.5238 238.45 39.4922 237.662 33.7316 223.275C30.3072 214.719 16.2502 204.176 14.5829 210.057C12.9356 215.817 15.4515 227.039 20.7628 234.816C25.0458 241.086 34.5403 241.086 36.7367 244.98C37.2459 245.888 38.9431 249.373 39.9115 251.369C39.6819 273.573 39.5821 293.171 39.6919 299.86L40.6104 299.93C40.5704 298.203 40.6803 286.911 40.86 271.966C43.1662 264.009 58.6808 259.366 63.483 251.1C68.5048 242.444 72.1089 232.34 69.9524 225.581C68.1554 219.941 54.0185 227.608 48.2778 236.953C44.4541 243.173 42.1179 249.822 41.0297 258.747C41.1595 248.564 41.3092 237.622 41.459 227.299C42.6171 224.723 45.2728 218.793 47.1796 214.09L47.1697 214.07Z" fill="#F1F2F4"/>
<path d="M56.2849 309.914H23.6582C21.8711 309.914 20.3436 308.656 19.9842 306.909L17.668 295.487H62.2651L59.9489 306.909C59.5995 308.656 58.062 309.914 56.2749 309.914H56.2849Z" fill="#F1F2F4"/>
<path d="M63.2032 299.92H16.7391C15.621 299.92 14.6925 299.081 14.5627 297.973L13.6142 289.537C13.4645 288.239 14.4828 287.101 15.7907 287.101H64.1517C65.4596 287.101 66.4679 288.239 66.3281 289.537L65.3797 297.973C65.2599 299.081 64.3214 299.92 63.2032 299.92Z" fill="#F1F2F4"/>
<path d="M354.367 302.636H364.341V195.321H354.367V302.636Z" fill="#F1F2F4"/>
<path d="M151.13 309.784H360.518V302.636H151.13V309.784Z" fill="#F1F2F4"/>
<path d="M354.377 195.321H147.306V302.636H354.377V195.321Z" fill="white"/>
<path d="M356.723 195.321H367.026V188.552H356.723V195.321Z" fill="#E2E5E9"/>
<path d="M356.724 188.552H144.62V195.321H356.724V188.552Z" fill="#EBEBEB"/>
<path d="M339.512 241.665H162.161C157.739 241.665 154.145 238.071 154.145 233.648V210.666C154.145 206.243 157.739 202.649 162.161 202.649H339.512C343.934 202.649 347.529 206.243 347.529 210.666V233.648C347.529 238.071 343.934 241.665 339.512 241.665ZM162.161 204.646C158.837 204.646 156.141 207.351 156.141 210.666V233.648C156.141 236.973 158.847 239.669 162.161 239.669H339.512C342.836 239.669 345.532 236.963 345.532 233.648V210.666C345.532 207.341 342.826 204.646 339.512 204.646H162.161Z" fill="white"/>
<path d="M339.512 289.737H162.161C157.739 289.737 154.145 286.143 154.145 281.72V258.738C154.145 254.315 157.739 250.721 162.161 250.721H339.512C343.934 250.721 347.529 254.315 347.529 258.738V281.72C347.529 286.143 343.934 289.737 339.512 289.737ZM162.161 252.717C158.837 252.717 156.141 255.423 156.141 258.738V281.72C156.141 285.045 158.847 287.74 162.161 287.74H339.512C342.836 287.74 345.532 285.035 345.532 281.72V258.738C345.532 255.413 342.826 252.717 339.512 252.717H162.161Z" fill="white"/>
<path d="M299.207 225.692H202.465C201.037 225.692 199.869 224.533 199.869 223.096V221.209C199.869 219.781 201.037 218.613 202.465 218.613H299.207C300.635 218.613 301.803 219.781 301.803 221.209V223.096C301.803 224.523 300.645 225.692 299.207 225.692ZM202.465 220.62C202.145 220.62 201.866 220.889 201.866 221.219V223.106C201.866 223.425 202.135 223.705 202.465 223.705H299.207C299.526 223.705 299.806 223.435 299.806 223.106V221.219C299.806 220.899 299.536 220.62 299.207 220.62H202.465Z" fill="white"/>
<path d="M299.207 273.763H202.465C201.037 273.763 199.869 272.595 199.869 271.167V269.28C199.869 267.853 201.037 266.685 202.465 266.685H299.207C300.635 266.685 301.803 267.853 301.803 269.28V271.167C301.803 272.595 300.645 273.763 299.207 273.763ZM202.465 268.691C202.145 268.691 201.866 268.961 201.866 269.29V271.177C201.866 271.497 202.135 271.776 202.465 271.776H299.207C299.526 271.776 299.806 271.507 299.806 271.177V269.29C299.806 268.971 299.536 268.691 299.207 268.691H202.465Z" fill="white"/>
<path d="M194 355C300.907 355 387.573 349.94 387.573 343.698C387.573 337.457 300.907 332.397 194 332.397C87.0917 332.397 0.425781 337.457 0.425781 343.698C0.425781 349.94 87.0917 355 194 355Z" fill="white"/>
<path d="M323.578 95.6165L323.198 101.495L324.195 101.559L324.575 95.681L323.578 95.6165Z" fill="#3278FF"/>
<path d="M325.093 71.7427L323.847 91.0609L324.843 91.1252L326.089 71.8069L325.093 71.7427Z" fill="#3278FF"/>
<path d="M313.244 43.6886H195.886C189.736 43.6886 184.385 48.7204 183.986 54.8703L168.83 288.988C168.431 295.138 173.133 300.17 179.283 300.17H296.642C302.791 300.17 308.143 295.138 308.542 288.988L323.697 54.8703C324.097 48.7204 319.394 43.6886 313.244 43.6886Z" fill="#3278FF"/>
<path opacity="0.7" d="M309.52 43.6886H195.886C189.736 43.6886 184.385 48.7204 183.986 54.8703L168.83 288.988C168.431 295.138 173.133 300.17 179.283 300.17H292.918C299.068 300.17 304.419 295.138 304.818 288.988L319.973 54.8703C320.373 48.7204 315.67 43.6886 309.52 43.6886Z" fill="white"/>
<path d="M299.935 282.858H174.93C172.953 282.858 171.395 281.191 171.515 279.224L185.233 67.38C185.353 65.5829 186.84 64.1852 188.647 64.1852H313.653C315.63 64.1852 317.187 65.8525 317.067 67.8192L303.35 279.663C303.23 281.46 301.743 282.858 299.935 282.858Z" fill="white"/>
<path d="M272.162 57.2464H226.726C225.728 57.2464 224.969 56.4377 225.029 55.4394C225.089 54.441 225.957 53.6323 226.956 53.6323H272.391C273.39 53.6323 274.148 54.441 274.089 55.4394C274.029 56.4377 273.16 57.2464 272.162 57.2464Z" fill="white"/>
<path d="M236.699 291.753C236.569 294.209 234.473 296.206 232.017 296.206C229.561 296.206 227.674 294.209 227.793 291.753C227.923 289.297 230.02 287.301 232.476 287.301C234.932 287.301 236.819 289.297 236.699 291.753Z" fill="white"/>
<path opacity="0.2" d="M286.318 122.859H179.583L172.804 227.598H286.328C292.478 227.598 297.51 222.566 297.51 216.417V134.031C297.51 127.881 292.478 122.849 286.328 122.849L286.318 122.859Z" fill="#3278FF"/>
<path d="M276.375 113.544H145.568C139.393 113.544 134.387 118.551 134.387 124.726V207.102C134.387 213.277 139.393 218.283 145.568 218.283H276.375C282.55 218.283 287.557 213.277 287.557 207.102V124.726C287.557 118.551 282.55 113.544 276.375 113.544Z" fill="#3278FF"/>
<path d="M130.813 112.336C130.554 112.336 130.304 112.237 130.104 112.047L128.317 110.26C127.928 109.87 127.928 109.241 128.317 108.852C128.707 108.463 129.336 108.463 129.725 108.852L131.512 110.639C131.902 111.029 131.902 111.658 131.512 112.047C131.313 112.247 131.063 112.336 130.803 112.336H130.813Z" fill="#3278FF"/>
<path d="M128.117 118.606H125.581C125.032 118.606 124.583 118.157 124.583 117.608C124.583 117.059 125.032 116.609 125.581 116.609H128.117C128.666 116.609 129.116 117.059 129.116 117.608C129.116 118.157 128.666 118.606 128.117 118.606Z" fill="#3278FF"/>
<path d="M137.172 109.641C136.653 109.641 136.213 109.241 136.174 108.712L135.994 106.186C135.954 105.637 136.373 105.158 136.922 105.118C137.481 105.078 137.951 105.497 137.991 106.047L138.17 108.572C138.21 109.122 137.791 109.601 137.242 109.641C137.222 109.641 137.192 109.641 137.172 109.641Z" fill="#3278FF"/>
<path d="M222.144 207.511L262.308 247.665V207.511H222.144Z" fill="#3278FF"/>
<path d="M233.156 189.92L231.209 181.443C230.7 179.217 230.69 176.911 231.189 174.685L233.895 162.604C236.311 151.832 230.84 141.079 221.375 136.347C221.455 136.128 221.545 135.908 221.605 135.668C222.294 132.593 220.357 129.528 217.282 128.839C214.207 128.151 211.142 130.087 210.453 133.162C210.403 133.402 210.393 133.642 210.363 133.871C199.78 134.111 190.246 141.509 187.83 152.281L185.124 164.361C184.625 166.588 183.637 168.674 182.219 170.471L176.838 177.31C174.542 180.225 176.079 184.538 179.703 185.347L227.126 195.97C230.75 196.778 233.975 193.534 233.146 189.92H233.156Z" fill="white"/>
<path d="M197.345 192.535C195.788 192.186 194.38 193.544 194.65 195.121C195.189 198.306 197.595 201.001 200.939 201.75C204.284 202.499 207.608 201.091 209.455 198.446C210.374 197.138 209.685 195.311 208.118 194.961L197.335 192.545L197.345 192.535Z" fill="white"/>
<path d="M160.924 175.713C160.445 175.713 159.965 175.483 159.676 175.044C154.924 167.925 153.226 159.389 154.904 151.003C156.581 142.617 161.413 135.379 168.531 130.626C169.22 130.167 170.149 130.357 170.608 131.036C171.067 131.725 170.878 132.653 170.199 133.112C163.749 137.415 159.366 143.975 157.849 151.582C156.331 159.19 157.869 166.927 162.172 173.376C162.631 174.065 162.441 174.994 161.762 175.453C161.503 175.623 161.213 175.703 160.934 175.703L160.924 175.713Z" fill="white"/>
<path d="M167.264 171.479C166.785 171.479 166.305 171.25 166.016 170.81C162.402 165.389 161.104 158.89 162.382 152.5C163.66 146.111 167.344 140.6 172.765 136.986C173.454 136.526 174.382 136.716 174.842 137.395C175.301 138.084 175.111 139.012 174.432 139.472C169.68 142.646 166.445 147.479 165.327 153.089C164.209 158.69 165.347 164.401 168.512 169.153C168.971 169.842 168.781 170.771 168.103 171.23C167.843 171.4 167.553 171.479 167.274 171.479H167.264Z" fill="white"/>
<path d="M173.613 167.236C173.134 167.236 172.655 167.007 172.365 166.567C169.879 162.844 168.991 158.371 169.869 153.988C170.748 149.595 173.274 145.811 176.998 143.325C177.687 142.866 178.615 143.056 179.074 143.735C179.534 144.424 179.344 145.352 178.665 145.811C175.61 147.848 173.523 150.963 172.805 154.567C172.086 158.171 172.805 161.845 174.851 164.9C175.31 165.589 175.121 166.518 174.442 166.977C174.182 167.147 173.903 167.226 173.613 167.226V167.236Z" fill="white"/>
<path d="M247.262 196.788C246.723 196.788 246.194 196.489 245.935 195.979C245.555 195.241 245.845 194.342 246.574 193.963C253.462 190.409 258.554 184.378 260.91 176.991C263.266 169.603 262.607 161.735 259.043 154.847C258.664 154.108 258.953 153.209 259.682 152.83C260.421 152.451 261.319 152.74 261.699 153.479C265.622 161.077 266.351 169.752 263.756 177.899C261.16 186.046 255.539 192.695 247.941 196.618C247.722 196.728 247.482 196.788 247.252 196.788H247.262Z" fill="white"/>
<path d="M243.758 190.009C243.218 190.009 242.689 189.71 242.43 189.201C242.05 188.462 242.34 187.563 243.069 187.184C248.15 184.558 251.904 180.115 253.641 174.674C255.379 169.223 254.889 163.433 252.264 158.351C251.884 157.612 252.174 156.714 252.903 156.334C253.641 155.955 254.54 156.244 254.919 156.983C257.904 162.774 258.464 169.383 256.487 175.583C254.51 181.793 250.227 186.854 244.436 189.85C244.217 189.959 243.977 190.019 243.748 190.019L243.758 190.009Z" fill="white"/>
<path d="M240.254 183.23C239.715 183.23 239.185 182.931 238.926 182.422C238.546 181.683 238.836 180.784 239.565 180.405C242.829 178.718 245.246 175.862 246.364 172.358C247.482 168.854 247.172 165.13 245.485 161.855C245.106 161.116 245.395 160.218 246.124 159.839C246.863 159.459 247.761 159.749 248.141 160.478C252.384 168.694 249.149 178.818 240.933 183.061C240.713 183.17 240.473 183.23 240.244 183.23H240.254Z" fill="white"/>
<path d="M152.428 53.782H144.8C144.401 53.782 144.041 54.1114 144.001 54.5108L142.404 69.7259C142.364 70.1253 142.654 70.4548 143.053 70.4548H150.681C151.08 70.4548 151.439 70.1253 151.479 69.7259L153.077 54.5108C153.117 54.1114 152.827 53.782 152.428 53.782Z" fill="#3278FF"/>
<path opacity="0.4" d="M151.739 53.782H144.8C144.401 53.782 144.041 54.1114 144.001 54.5108L142.404 69.7259C142.364 70.1253 142.654 70.4548 143.053 70.4548H149.992C150.391 70.4548 150.75 70.1253 150.79 69.7259L152.388 54.5108C152.428 54.1114 152.138 53.782 151.739 53.782Z" fill="white"/>
<path d="M114.201 335.123C115.239 335.123 116.237 334.983 116.547 334.514C116.656 334.354 116.736 334.074 116.497 333.675C116.357 333.455 116.147 333.306 115.868 333.226C114.51 332.856 111.754 334.474 111.635 334.544C111.565 334.583 111.535 334.663 111.545 334.743C111.565 334.823 111.625 334.883 111.705 334.903C112.224 335.003 113.232 335.133 114.191 335.133L114.201 335.123ZM115.419 333.555C115.558 333.555 115.678 333.565 115.788 333.595C115.968 333.645 116.097 333.735 116.177 333.865C116.327 334.104 116.277 334.224 116.237 334.284C115.888 334.803 113.841 334.823 112.334 334.603C113.062 334.214 114.48 333.545 115.428 333.545L115.419 333.555Z" fill="#3278FF"/>
<path d="M111.744 334.893C111.744 334.893 111.794 334.893 111.823 334.873C112.782 334.434 114.639 332.687 114.449 331.768C114.409 331.548 114.24 331.289 113.71 331.229C113.311 331.189 112.962 331.299 112.662 331.558C111.674 332.407 111.544 334.583 111.544 334.673C111.544 334.743 111.574 334.803 111.634 334.843C111.664 334.863 111.704 334.883 111.744 334.883V334.893ZM113.581 331.618C113.581 331.618 113.66 331.618 113.7 331.618C114.05 331.648 114.07 331.788 114.08 331.838C114.19 332.387 112.942 333.765 111.973 334.354C112.053 333.715 112.283 332.417 112.932 331.858C113.131 331.688 113.341 331.608 113.581 331.608V331.618Z" fill="#3278FF"/>
<path d="M110.926 315.984H102.839V334.703H110.926V315.984Z" fill="#FF8B7B"/>
<path d="M44.1943 325.778L52.2711 326.656L57.5325 308.486L49.4557 307.607L44.1943 325.778Z" fill="#FF8B7B"/>
<path d="M56.025 328.493C57.0433 328.753 58.0517 328.863 58.481 328.493C58.6307 328.363 58.7805 328.114 58.6407 327.675C58.5609 327.425 58.3911 327.235 58.1415 327.096C56.8936 326.407 53.7986 327.275 53.6689 327.305C53.589 327.325 53.5391 327.395 53.5391 327.475C53.5391 327.555 53.579 327.635 53.6589 327.665C54.1481 327.894 55.0965 328.254 56.045 328.493H56.025ZM57.6024 327.295C57.7322 327.325 57.852 327.375 57.9519 327.425C58.1116 327.515 58.2214 327.635 58.2614 327.774C58.3412 328.034 58.2713 328.144 58.2114 328.194C57.7322 328.603 55.7355 328.114 54.2978 327.535C55.1065 327.345 56.664 327.056 57.5924 327.285L57.6024 327.295Z" fill="#3278FF"/>
<path d="M53.6791 327.675C53.6791 327.675 53.729 327.675 53.7589 327.675C54.8072 327.495 57.0536 326.277 57.0935 325.348C57.0935 325.129 57.0136 324.839 56.5045 324.65C56.1251 324.51 55.7557 324.53 55.3963 324.709C54.2182 325.279 53.5593 327.335 53.5293 327.415C53.5094 327.475 53.5293 327.555 53.5692 327.605C53.5992 327.635 53.6292 327.655 53.6691 327.665L53.6791 327.675ZM56.2748 324.989C56.2748 324.989 56.3447 325.009 56.3847 325.019C56.7141 325.139 56.7041 325.279 56.7041 325.318C56.6742 325.868 55.1067 326.876 54.0085 327.215C54.2382 326.626 54.7873 325.428 55.566 325.059C55.7956 324.949 56.0252 324.919 56.2648 324.979L56.2748 324.989Z" fill="#3278FF"/>
<path d="M52.7006 325.908L43.865 323.372C43.5455 323.282 43.2061 323.422 43.0663 323.711L39.8116 330.171C39.4722 330.84 39.8715 331.678 40.6203 331.878C43.7153 332.706 45.2627 332.966 49.1464 334.074C51.5325 334.763 56.3945 336.42 59.6992 337.369C62.9239 338.297 64.2218 335.222 62.9438 334.533C57.2132 331.488 55.3762 329.023 53.8587 326.746C53.5891 326.337 53.1698 326.037 52.7006 325.908Z" fill="#263238"/>
<path d="M110.835 333.765H102.01C101.68 333.765 101.401 333.995 101.341 334.314L100.063 341.502C99.9331 342.251 100.522 342.95 101.291 342.94C104.476 342.89 109.068 342.7 113.072 342.7C117.754 342.7 120.31 342.96 125.801 342.96C129.115 342.96 129.894 339.605 128.496 339.296C122.107 337.908 118.433 337.768 112.822 334.394C112.213 334.024 111.544 333.765 110.845 333.765H110.835Z" fill="#263238"/>
<path opacity="0.2" d="M110.926 315.984H102.839V325.638H110.926V315.984Z" fill="#22262E"/>
<path opacity="0.2" d="M49.4558 307.617L57.5326 308.486L54.6074 318.57L46.7402 316.982L49.4558 307.617Z" fill="#22262E"/>
<path d="M97.6272 129.838C97.6272 129.838 93.1745 190.848 89.1511 213.991C84.7483 239.339 59.1301 316.942 59.1301 316.942L44.4541 314.267C44.4541 314.267 62.9539 241.386 65.0005 216.287C67.2269 189.051 69.9025 132.903 69.9025 132.903L97.6372 129.828L97.6272 129.838Z" fill="#3278FF"/>
<path opacity="0.3" d="M90.109 155.166C90.9177 151.802 92.7547 156.025 94.8812 163.353C93.2639 181.463 91.1573 202.439 89.1406 214C88.6914 216.586 88.0125 219.731 87.1738 223.275C87.9126 197.437 87.9326 164.242 90.109 155.176V155.166Z" fill="#22262E"/>
<path d="M112.872 128.151C112.872 128.151 118.742 189.51 118.942 214.17C119.152 239.818 113.86 323.781 113.86 323.781H100.163C100.163 323.781 96.0495 241.316 94.3423 216.127C92.4753 188.672 84.6182 131.285 84.6182 131.285L112.872 128.151Z" fill="#3278FF"/>
<path d="M62.2253 312.01C62.2852 312.02 59.929 317.322 59.929 317.322L43.416 314.306L44.4144 309.375L62.2253 312.01Z" fill="#263238"/>
<path d="M116.257 318.31C116.317 318.31 115.738 323.991 115.738 323.991H99.0752L98.4062 318.919L116.267 318.31H116.257Z" fill="#263238"/>
<path d="M70.3214 73.4599C69.2231 75.5864 68.0151 77.8228 66.9169 80.0292L63.5624 86.6783C62.4742 88.9047 61.4159 91.1211 60.3876 93.3474C59.3992 95.5738 58.4208 97.8002 57.5522 100.017L57.4723 96.5222C58.0913 98.2694 58.7003 100.066 59.5689 101.784C59.9583 102.662 60.4475 103.491 60.8868 104.369C61.376 105.208 61.8552 106.067 62.3943 106.885C63.4326 108.563 64.5907 110.2 65.8287 111.787C66.4477 112.576 67.0667 113.375 67.7256 114.143C68.3745 114.892 69.1033 115.691 69.6824 116.34L69.8821 116.56C70.9403 117.738 70.8505 119.565 69.6624 120.623C68.724 121.462 67.3861 121.571 66.3379 121.002C65.1997 120.363 64.2812 119.774 63.3128 119.105C62.3643 118.436 61.4359 117.758 60.5373 117.019C58.7403 115.561 57.063 113.944 55.4856 112.217C53.9181 110.479 52.4406 108.622 51.1427 106.616C49.8049 104.639 48.6867 102.473 47.6883 100.246C47.2391 99.2578 47.1891 98.1895 47.4787 97.2211L47.6184 96.7519C48.3772 94.1461 49.2258 91.6203 50.1643 89.1443C51.1027 86.6783 52.1011 84.2523 53.1594 81.8562C54.2077 79.4701 55.3358 77.114 56.4939 74.7878C57.692 72.4616 58.8401 70.1853 60.1979 67.8591C61.8053 65.0936 65.3495 64.1651 68.115 65.7725C70.7806 67.3299 71.749 70.6944 70.3513 73.41L70.3114 73.4899L70.3214 73.4599Z" fill="#FF8B7B"/>
<path d="M76.0523 69.9257C76.4517 77.5433 67.8058 91.5304 67.8058 91.5304L50.0049 82.6349C50.0049 82.6349 53.0399 72.9807 59.8688 65.4331C69.2934 55.0101 75.6929 62.8672 76.0623 69.9257H76.0523Z" fill="#263238"/>
<path d="M63.9922 119.555L67.5763 125.545L75.0341 120.773C75.0341 120.773 73.0574 116.959 69.2336 115.551C68.0955 115.132 66.8176 115.671 66.1986 116.819L63.9922 119.555Z" fill="#FF8B7B"/>
<path d="M70.5615 128.101L74.0259 127.452C75.2538 127.222 76.0625 126.034 75.8129 124.806L75.0242 120.773L67.5664 125.545L68.0756 126.753C68.4849 127.731 69.5232 128.29 70.5615 128.091V128.101Z" fill="#FF8B7B"/>
<path d="M91.5966 31.6283C91.6765 32.2772 92.0759 32.7864 92.5052 32.7464C92.9245 32.7165 93.204 32.1574 93.1242 31.4985C93.0443 30.8395 92.6449 30.3404 92.2156 30.3803C91.7963 30.4102 91.5168 30.9693 91.5966 31.6283Z" fill="#263238"/>
<path d="M92.0166 32.7864C92.0166 32.7864 93.9335 36.4404 95.7605 38.1276C94.7521 39.2957 92.7554 38.9563 92.7554 38.9563L92.0166 32.7764V32.7864Z" fill="#FF5652"/>
<path d="M88.8013 28.1839C88.9011 28.1939 89.0109 28.1639 89.0908 28.0941C90.3288 26.9959 91.6666 27.3653 91.7265 27.3852C91.9361 27.4451 92.1358 27.3253 92.1857 27.1256C92.2356 26.926 92.1158 26.7063 91.9062 26.6464C91.8363 26.6265 90.1191 26.1373 88.5716 27.515C88.4119 27.6548 88.4019 27.8944 88.5517 28.0541C88.6216 28.134 88.7114 28.1739 88.8013 28.1839Z" fill="#263238"/>
<path d="M71.4697 38.8564C73.3766 44.627 75.9125 55.2896 72.2984 59.5526C72.2984 59.5526 74.6745 65.3731 85.6266 64.4546C97.6669 63.4363 90.6184 58.0151 90.6184 58.0151C83.8495 57.0068 83.3903 52.1348 83.9493 47.4724L71.4797 38.8564H71.4697Z" fill="#FF8B7B"/>
<path d="M69.712 61.6692C68.5739 59.8621 67.3159 57.7955 69.4525 57.0268C71.8086 56.1782 84.9771 54.8004 89.6694 55.9585C94.3618 57.1166 93.4133 60.9304 93.4133 60.9304L69.712 61.6792V61.6692Z" fill="#3278FF"/>
<path d="M108.299 64.1052C110.016 65.6827 111.873 67.4298 113.72 69.0272C115.567 70.6645 117.434 72.2619 119.311 73.8393C121.198 75.3868 123.105 76.9043 125.032 78.352C126.969 79.7597 128.915 81.1174 130.872 82.3055L126.869 81.9361C128.346 81.5667 129.944 80.8479 131.511 79.7896C133.069 78.7313 134.626 77.4135 136.074 75.9159C137.551 74.4384 138.939 72.7811 140.277 71.0539C140.946 70.1853 141.615 69.3067 142.244 68.3982C142.863 67.5097 143.502 66.5313 144.061 65.6926L144.17 65.5229C145.049 64.1951 146.836 63.8257 148.164 64.7043C149.242 65.4131 149.691 66.7309 149.342 67.919C148.963 69.2169 148.573 70.3251 148.104 71.4932C147.645 72.6413 147.166 73.7894 146.626 74.9076C145.538 77.1439 144.29 79.3304 142.803 81.4369C141.305 83.5335 139.608 85.5702 137.511 87.3972C135.425 89.2142 132.939 90.8715 129.984 91.9098C128.726 92.3491 127.418 92.2393 126.31 91.7002L125.98 91.5404C123.444 90.2925 121.058 88.9247 118.772 87.4571C116.496 85.9895 114.309 84.442 112.183 82.8247C110.066 81.2173 108.02 79.53 106.023 77.8029C104.026 76.0358 102.109 74.3285 100.162 72.3418C97.926 70.0555 97.966 66.3915 100.242 64.1552C102.449 61.9887 105.953 61.9588 108.199 64.0154L108.299 64.1052Z" fill="#FF8B7B"/>
<path d="M102.2 58.9335C102.2 58.9335 112.253 68.6976 113.422 129.099C97.3378 132.993 81.8431 134.43 69.8826 132.913C69.3036 125.335 68.465 99.048 60.7775 71.3133C59.4097 66.3714 62.5147 61.3196 67.5564 60.3412C69.0839 60.0417 70.6913 59.7722 72.2887 59.5625C77.7598 58.8337 85.7068 57.9851 90.6088 58.025C97.0682 58.065 102.2 58.9335 102.2 58.9335Z" fill="#263238"/>
<path d="M94.392 69.4465C95.3604 77.0041 108.319 91.5304 108.319 91.5304L123.724 75.5665C123.724 75.5665 117.065 68.3982 108.918 62.2882C97.6767 53.852 93.4935 62.4479 94.3821 69.4465H94.392Z" fill="#263238"/>
<path d="M148.394 70.5646L153.545 65.8523L147.365 59.5127C147.365 59.5127 144.031 62.2183 143.422 66.2417C143.242 67.4398 144.031 68.5879 145.269 68.9573L148.394 70.5746V70.5646Z" fill="#FF8B7B"/>
<path d="M155.443 62.4079L154.115 59.1433C153.646 57.9852 152.318 57.4361 151.17 57.9153L147.376 59.5027L153.556 65.8423L154.634 65.1035C155.513 64.5045 155.852 63.3764 155.453 62.398L155.443 62.4079Z" fill="#FF8B7B"/>
<path d="M69.9324 31.9478C71.38 39.9347 71.8293 44.667 76.3119 48.4708C83.0709 54.1914 92.3957 49.7387 93.3241 41.582C94.1628 34.234 91.6569 22.4033 83.5301 19.8276C75.5232 17.2817 68.4847 23.9608 69.9324 31.9478Z" fill="#FF8B7B"/>
<path d="M85.6767 34.843C88.4821 35.4919 90.6985 32.2472 90.958 31.3187C89.5903 31.4485 87.1742 30.7497 86.685 30.1307C88.1826 30.2605 89.6302 28.4135 89.8099 27.7046C88.1826 27.485 86.3755 26.0773 85.8963 25.1488C88.3224 25.1089 91.2376 20.8359 88.5719 17.0021C85.9063 13.1684 74.7645 16.3831 73.1771 13.6576C70.8409 15.0254 72.9175 16.8224 72.9175 16.8224C72.9175 16.8224 57.1533 19.7676 64.4214 25.8876C59.0901 26.3768 58.3413 32.6765 62.7941 35.8813C67.2468 39.086 67.4564 41.2026 65.6993 40.943C66.4082 42.3108 69.563 42.4805 69.7427 41.1627C70.4915 43.9381 72.648 47.682 77.6298 47.063C82.6017 46.444 87.4937 39.4954 85.6867 34.823L85.6767 34.843Z" fill="#263238"/>
<path d="M65.8191 24.9791C62.0653 25.4983 60.358 23.3717 61.2965 21.5148C56.6441 23.8909 61.7258 29.1423 65.8191 24.9791Z" fill="#263238"/>
<path d="M81.7928 33.6251C82.4318 35.3622 83.7596 36.8498 85.0674 37.7284C87.0442 39.0462 88.8712 37.7383 88.5318 35.7017C88.2223 33.8647 86.8246 30.9594 84.738 30.4403C82.6913 29.9311 81.054 31.6383 81.7928 33.6251Z" fill="#FF8B7B"/>
<path d="M335.548 315.025C328.16 297.594 325.175 277.117 333.631 277.936C342.307 278.785 341.288 309.684 342.696 313.079C339.981 315.405 335.548 315.015 335.548 315.015V315.025Z" fill="#3278FF"/>
<path d="M337.944 281.95C336.117 288.589 334.2 298.872 332.732 307.578C333.571 310.074 334.52 312.58 335.548 315.026C335.548 315.026 339.981 315.405 342.706 313.079C341.588 310.403 341.987 290.596 337.944 281.95Z" fill="#263238"/>
<path d="M337.985 311.831C335.678 274.791 342.008 240.457 358.591 242.005C372.848 243.333 352.062 305.701 352.461 312.889C345.932 315.425 337.985 311.821 337.985 311.821V311.831Z" fill="#3278FF"/>
<path d="M348.767 311.591C351.383 284.975 365.42 253.905 371.45 264.279C379.107 277.457 359.489 308.846 358.94 314.007C354.008 315.056 348.757 311.581 348.757 311.581L348.767 311.591Z" fill="#3278FF"/>
<path d="M346.121 251.899C344.444 251.619 343.505 250.571 343.605 249.083C343.725 247.406 345.102 245.749 346.38 245.719C346.989 245.719 348.038 246.038 348.287 248.354L347.299 248.464C347.179 247.366 346.85 246.717 346.41 246.717C345.731 246.727 344.693 247.965 344.603 249.153C344.533 250.122 345.102 250.721 346.281 250.91L346.121 251.899Z" fill="#3278FF"/>
<path d="M364.051 258.608C363.552 258.608 362.883 258.408 362.015 257.839L362.564 257C363.492 257.609 364.211 257.769 364.481 257.419C364.9 256.89 364.611 255.303 363.752 254.474C363.043 253.805 362.234 253.855 361.326 254.644L360.667 253.895C361.945 252.777 363.363 252.727 364.441 253.755C365.649 254.914 366.058 257.04 365.259 258.038C365.05 258.298 364.68 258.598 364.051 258.598V258.608Z" fill="#3278FF"/>
<path d="M339.582 273.673C338.234 273.673 337.276 272.964 336.966 271.716C336.567 270.089 337.365 268.082 338.583 267.663C339.152 267.473 340.251 267.453 341.209 269.58L340.301 269.989C339.851 268.981 339.332 268.462 338.913 268.601C338.264 268.821 337.665 270.309 337.944 271.477C338.174 272.425 338.893 272.814 340.081 272.635L340.231 273.623C340.011 273.653 339.791 273.673 339.592 273.673H339.582Z" fill="#3278FF"/>
<path d="M328.949 294.349C327.921 294.349 327.112 293.83 326.663 292.852C325.964 291.324 326.373 289.208 327.482 288.569C328.011 288.269 329.079 288.05 330.427 289.956L329.608 290.525C328.969 289.617 328.36 289.208 327.981 289.427C327.392 289.767 327.072 291.344 327.572 292.432C327.981 293.321 328.76 293.561 329.888 293.171L330.217 294.11C329.768 294.269 329.339 294.349 328.949 294.349Z" fill="#3278FF"/>
<path d="M346.64 264.208C346.54 264.208 346.44 264.178 346.35 264.119C344.983 263.14 344.483 261.782 345.033 260.494C345.612 259.137 347.179 258.228 348.527 258.478C349.146 258.588 350.583 259.137 350.683 261.802C350.683 262.082 350.474 262.312 350.204 262.322C349.935 262.322 349.695 262.112 349.685 261.842C349.635 260.465 349.156 259.616 348.347 259.466C347.469 259.306 346.35 259.965 345.961 260.894C345.602 261.742 345.951 262.601 346.939 263.32C347.159 263.48 347.219 263.789 347.059 264.019C346.959 264.159 346.81 264.228 346.65 264.228L346.64 264.208Z" fill="white"/>
<path d="M358.471 291.154C358.241 291.154 358.031 290.995 357.981 290.755C357.922 290.485 358.101 290.216 358.371 290.166C359.729 289.886 360.477 289.277 360.487 288.449C360.497 287.55 359.659 286.562 358.68 286.332C357.782 286.123 356.993 286.602 356.454 287.7C356.334 287.95 356.035 288.049 355.785 287.93C355.535 287.81 355.436 287.51 355.555 287.261C356.294 285.743 357.542 285.034 358.91 285.354C360.348 285.693 361.496 287.091 361.486 288.459C361.486 289.088 361.176 290.595 358.57 291.144C358.541 291.144 358.501 291.154 358.471 291.154Z" fill="white"/>
<path d="M372.508 282.738C371.939 282.738 371.17 282.399 370.302 281.101L371.13 280.542C371.749 281.46 372.338 281.88 372.738 281.67C373.337 281.341 373.686 279.773 373.207 278.675C372.818 277.776 372.049 277.517 370.911 277.896L370.601 276.948C372.219 276.419 373.536 276.918 374.126 278.276C374.794 279.813 374.345 281.93 373.217 282.549C373.037 282.648 372.808 282.728 372.518 282.728L372.508 282.738Z" fill="#3278FF"/>
<path d="M369.533 321.365C369.533 315.814 367.506 310.742 364.152 306.849C364.85 306.729 365.39 306.15 365.39 305.431C365.39 304.622 364.731 303.963 363.922 303.963H330.497C329.688 303.963 329.029 304.622 329.029 305.431C329.029 306.16 329.578 306.739 330.277 306.859C326.922 310.752 324.886 315.824 324.886 321.375C324.886 329.941 329.718 337.379 336.796 341.123C336.277 341.392 335.918 341.931 335.918 342.56C335.918 343.449 336.647 344.188 337.545 344.188H356.893C357.782 344.188 358.521 343.459 358.521 342.56C358.521 341.941 358.161 341.402 357.642 341.133C364.721 337.389 369.543 329.951 369.543 321.385L369.533 321.365Z" fill="#263238"/>
<path fill-rule="evenodd" clip-rule="evenodd" d="M221.9 158.778C223.316 161.038 222.625 164.048 220.364 165.464L214.985 168.834L218.354 174.213C219.77 176.474 219.079 179.484 216.818 180.9C214.557 182.316 211.547 181.624 210.131 179.364L206.762 173.985L201.383 177.354C199.122 178.77 196.112 178.079 194.696 175.818C193.28 173.557 193.971 170.547 196.232 169.131L201.611 165.762L198.242 160.382C196.826 158.122 197.517 155.112 199.778 153.696C202.039 152.279 205.049 152.971 206.468 155.232L209.837 160.612L215.216 157.242C217.477 155.826 220.487 156.518 221.906 158.779L221.9 158.778Z" fill="#3278FF"/>
</svg>
