<svg width="120" height="16" viewBox="0 0 120 16" fill="none" xmlns="http://www.w3.org/2000/svg">
<path d="M17.0289 13.8031L1.83753 15.877L0 2.45551L6.72116 1.5377L8.12342 11.7763L17.0412 10.5593L17.0289 13.8031Z" fill="#FF0000"/>
<path d="M17.0481 8.74103L9.55941 9.76315L8.40234 1.30805L17.0807 0.12294L17.0735 2.06866L12.1006 2.74741L12.2878 4.11217L17.0677 3.45949L17.0611 5.29365L12.5337 5.91156L12.7078 7.17997L17.0561 6.58669L17.0481 8.74103Z" fill="#FF0000"/>
<path d="M43.7072 13.6698H36.9236V4.88364L33.134 13.6698H27.7737L23.9848 4.88364V13.6698H20.0479V0.12294H28.0878L31.3784 7.88335L34.7241 0.12294H43.7072V13.6698Z" fill="#22262E"/>
<path d="M65.5999 13.6698H58.6683L57.578 11.5988H49.2602L48.1699 13.6698H43.752L50.8866 0.12294H58.4652L65.5999 13.6698ZM55.9146 8.46359L53.4191 3.72244L50.9055 8.46359H55.9146Z" fill="#22262E"/>
<path d="M85.0157 13.6698H78.3802L75.2383 9.37342H72.3917V13.6698H65.6074V0.12294H80.9866C82.2308 0.12294 83.2384 0.568441 84.0088 1.45872C84.7785 2.349 85.1637 3.445 85.1637 4.74818C85.1637 5.85795 84.8467 6.8156 84.2119 7.62184C83.5772 8.42809 82.7611 8.96704 81.7629 9.23796L85.0157 13.6698ZM76.8829 6.16075C77.3022 6.16075 77.6562 6.03543 77.9456 5.78334C78.2351 5.53197 78.3802 5.18716 78.3802 4.74818C78.3802 3.88398 77.9369 3.41965 77.0497 3.35518H72.3917V6.16075H76.8829Z" fill="#22262E"/>
<path d="M106.172 13.6698H98.5941L93.9361 8.3868L92.4388 9.43138V13.6698H85.6553V0.12294H92.4388V4.99955L99.3885 0.12294H99.8491H120V3.35445H113.937V13.6698H107.153V3.35445H101.087L98.8524 4.92276L106.172 13.6698Z" fill="#22262E"/>
</svg>
